<?xml version="1.0" encoding="UTF-8"?>
<svg width="17" height="64" version="1.1" viewBox="0 0 4.498 16.93" xmlns="http://www.w3.org/2000/svg"><g transform="translate(0 -280.1)"><rect x=".9583" y="281.2" width="2.534" height="12.78" fill="#f9dec4" stroke="#000" stroke-linejoin="round" stroke-width=".2516"/><g fill="none" stroke="#000" stroke-width=".2867"><path d="m0.9635 283.9h2.457"/><path d="m0.9635 286.4h2.457"/><path d="m0.9635 288.8h2.457"/><path d="m0.9635 291.3h2.457"/></g><rect x=".7175" y="293.7" width="2.973" height="2.953" ry=".401" fill="#e0651c" stroke="#000" stroke-width=".2867"/><g transform="matrix(.3612 0 0 .3612 -4.905 184.1)" aria-label="+"><path d="m17.95 307.3-0.01536-0.4096v-0.5632h0.4762v0.5632l-0.02048 0.4096 0.3942-0.0307h0.5581v0.4813h-0.5581l-0.3942-0.0154 0.02048 0.3994v0.5939h-0.4762v-0.5939l0.01536-0.3994-0.4659 0.0154h-0.4813v-0.4813h0.4813z" stroke-width=".128"/></g><g transform="matrix(.3612 0 0 .3612 -5.004 184.3)" aria-label="7"><path d="m20.45 308.9c0.1494-0.6631 0.81-2.373 1.29-2.975 0.1083-0.1358 0.1997-0.4813 0.1997-0.4813s-0.8485-0.2563-1.215 9e-3c-0.2152 0.1556-0.1194 0.7763-0.1194 0.7763l-0.6781-0.4244s-0.0027-0.4337 0.2816-0.6878c0.607-0.5425 1.554-0.2304 2.253-0.1181 0.1761 0.0283 0.1683 0.3336 0.1567 0.5115-0.02735 0.4225-0.4683 0.6779-1.057 1.93-0.2412 0.5129-0.3439 1.665-0.3439 1.665z" stroke-width=".128"/></g><path d="m0.3193 280.5h3.897l-1.971 1.965z" fill="#6db0e5" stroke="#000" stroke-linejoin="round" stroke-width=".2516"/><path d="m0.8361 280.6h2.863l-1.448 1.444z"/><circle cx="2.29" cy="280.8" r=".3936" fill="#77411c"/><circle cx="2.234" cy="280.7" r=".2606" fill="#dd9c70" stroke-width=".9648"/></g></svg>
