<?xml version="1.0" encoding="UTF-8"?>
<svg width="64" height="60" version="1.1" viewBox="0 0 16.93 15.88" xmlns="http://www.w3.org/2000/svg"><g transform="translate(0 -281.1)"><g stroke="#000"><g stroke-width=".396"><rect transform="rotate(-90)" x="-285.7" y="6.609" width="4.024" height="4.23" ry=".6001" fill="#f9dec4" stroke-linejoin="round"/><path d="m7.877 283.4h1.604" fill="none" stroke-linecap="round"/><path d="m7.877 284.1h1.604" fill="none" stroke-linecap="round"/><rect transform="rotate(-90)" x="-289.8" y="12.16" width="4.024" height="4.23" ry=".6001" fill="#f9dec4" stroke-linejoin="round"/><path d="m13.43 287.4h1.604" fill="none" stroke-linecap="round"/><path d="m13.43 288.1h1.604" fill="none" stroke-linecap="round"/><rect transform="rotate(-90)" x="-296.4" y="9.579" width="4.024" height="4.23" ry=".6001" fill="#f9dec4" stroke-linejoin="round"/><path d="m10.85 294h1.604" fill="none" stroke-linecap="round"/><path d="m10.85 294.8h1.604" fill="none" stroke-linecap="round"/><rect transform="rotate(-90)" x="-296.4" y="2.86" width="4.024" height="4.23" ry=".6001" fill="#f9dec4" stroke-linejoin="round"/><path d="m4.128 294h1.604" fill="none" stroke-linecap="round"/><path d="m4.128 294.8h1.604" fill="none" stroke-linecap="round"/><rect transform="rotate(-90)" x="-289.6" y=".6151" width="4.024" height="4.23" ry=".6001" fill="#f9dec4" stroke-linejoin="round"/></g><g><path d="m1.883 287.2h1.604" fill="none" stroke-linecap="round" stroke-width=".396"/><path d="m1.883 287.9h1.604" fill="none" stroke-linecap="round" stroke-width=".396"/><rect transform="rotate(-90)" x="-291.3" y="6.308" width="4.68" height="4.649" ry=".6313" fill="#e0651c" stroke-width=".4513"/></g></g><g><g transform="matrix(.5685 0 0 .5685 -3.014 114.3)" aria-label="+"><path d="m17.95 307.3-0.01536-0.4096v-0.5632h0.4762v0.5632l-0.02048 0.4096 0.3942-0.0307h0.5581v0.4813h-0.5581l-0.3942-0.0154 0.02048 0.3994v0.5939h-0.4762v-0.5939l0.01536-0.3994-0.4659 0.0154h-0.4813v-0.4813h0.4813z" stroke-width=".128"/></g><path d="m8.399 288.5c-0.1488 0-0.2654-6e-3 -0.4127 0.027l-0.03491-0.2221c0.06565-0.1072 0.2606-0.1018 0.3834-0.1611 0.1249-0.0614 0.1986-0.0877 0.2769-0.1533h0.00329l0.2508 0.035v1.746l0.3619 0.035v0.1874h-1.21v-0.1874l0.3809-0.0318z"/><path d="m9.882 290c-0.221 0-0.3903-0.0898-0.5077-0.2697-0.1157-0.182-0.1736-0.4285-0.1736-0.7396 0-0.22 0.03368-0.4063 0.101-0.5587 0.06735-0.1545 0.1563-0.2697 0.2668-0.346 0.1123-0.0784 0.2366-0.1173 0.373-0.1173 0.2228 0 0.3903 0.0868 0.5025 0.2604 0.1123 0.1715 0.1684 0.4148 0.1684 0.7301 0 0.2179-0.03281 0.4063-0.09844 0.565-0.06389 0.1566-0.1511 0.2751-0.2616 0.3555-0.1105 0.0806-0.234 0.1206-0.3704 0.1206zm0.02574-0.1904c0.1088 0 0.1882-0.0676 0.2383-0.2033 0.05182-0.1377 0.07772-0.3417 0.07772-0.6126 0-0.2877-0.02425-0.4984-0.07253-0.6317-0.04664-0.1356-0.1269-0.2033-0.2409-0.2033-0.2141 0-0.3212 0.2655-0.3212 0.7968 0 0.2835 0.02515 0.4973 0.07511 0.6412 0.05182 0.1419 0.133 0.2125 0.2435 0.2125z"/></g></g></svg>
