<?xml version="1.0" encoding="UTF-8" standalone="no"?>
<svg
   xmlns:dc="http://purl.org/dc/elements/1.1/"
   xmlns:cc="http://creativecommons.org/ns#"
   xmlns:rdf="http://www.w3.org/1999/02/22-rdf-syntax-ns#"
   xmlns:svg="http://www.w3.org/2000/svg"
   xmlns="http://www.w3.org/2000/svg"
   xmlns:xlink="http://www.w3.org/1999/xlink"
   xmlns:sodipodi="http://sodipodi.sourceforge.net/DTD/sodipodi-0.dtd"
   xmlns:inkscape="http://www.inkscape.org/namespaces/inkscape"
   inkscape:version="1.0 (4035a4fb49, 2020-05-01)"
   sodipodi:docname="azul_logo.svg"
   id="svg295"
   version="1.1"
   viewBox="0 0 16.93 11.91"
   height="45"
   width="64">
  <metadata
     id="metadata299">
    <rdf:RDF>
      <cc:Work
         rdf:about="">
        <dc:format>image/svg+xml</dc:format>
        <dc:type
           rdf:resource="http://purl.org/dc/dcmitype/StillImage" />
        <dc:title></dc:title>
      </cc:Work>
    </rdf:RDF>
  </metadata>
  <sodipodi:namedview
     inkscape:current-layer="g293"
     inkscape:window-maximized="0"
     inkscape:window-y="0"
     inkscape:window-x="0"
     inkscape:cy="16.28474"
     inkscape:cx="41.222626"
     inkscape:zoom="16"
     showgrid="false"
     id="namedview297"
     inkscape:window-height="1080"
     inkscape:window-width="1920"
     inkscape:pageshadow="2"
     inkscape:pageopacity="0"
     guidetolerance="10"
     gridtolerance="10"
     objecttolerance="10"
     borderopacity="1"
     bordercolor="#666666"
     pagecolor="#ffffff" />
  <defs
     id="defs23">
    <linearGradient
       id="b">
      <stop
         id="stop2"
         offset="0"
         stop-color="#207583" />
      <stop
         id="stop4"
         offset="1"
         stop-color="#6dc3c4" />
    </linearGradient>
    <linearGradient
       id="a">
      <stop
         id="stop7"
         offset="0"
         stop-color="#c66f32" />
      <stop
         id="stop9"
         offset="1"
         stop-color="#f1c784" />
    </linearGradient>
    <linearGradient
       xlink:href="#a"
       gradientUnits="userSpaceOnUse"
       gradientTransform="translate(.504)"
       y2="287.9"
       y1="288.2"
       x2="7.842"
       x1="8.045"
       id="d" />
    <linearGradient
       xlink:href="#a"
       gradientUnits="userSpaceOnUse"
       gradientTransform="translate(4.235 -139.7) scale(.5321)"
       y2="287.9"
       y1="288.2"
       x2="7.842"
       x1="8.045"
       id="e" />
    <linearGradient
       xlink:href="#b"
       gradientUnits="userSpaceOnUse"
       gradientTransform="translate(0 -280.1)"
       y2="293.2"
       y1="293.4"
       x2="7.956"
       x1="7.956"
       id="c" />
    <linearGradient
       xlink:href="#b"
       gradientUnits="userSpaceOnUse"
       gradientTransform="translate(0 -280.1)"
       y2="306.2"
       y1="310"
       x2="11.02"
       x1="9.331"
       id="f" />
    <linearGradient
       xlink:href="#b"
       gradientUnits="userSpaceOnUse"
       gradientTransform="matrix(-.2646 0 0 .2646 16.91 -69.08)"
       y2="306.2"
       y1="310"
       x2="11.02"
       x1="9.331"
       id="g" />
    <linearGradient
       xlink:href="#b"
       gradientUnits="userSpaceOnUse"
       gradientTransform="matrix(.2646 0 0 -.2646 0 91.07)"
       y2="306.2"
       y1="310"
       x2="11.02"
       x1="9.331"
       id="h" />
    <linearGradient
       xlink:href="#b"
       gradientUnits="userSpaceOnUse"
       gradientTransform="rotate(180 8.45 45.535) scale(.2646)"
       y2="306.2"
       y1="310"
       x2="11.02"
       x1="9.331"
       id="i" />
    <linearGradient
       xlink:href="#b"
       gradientUnits="userSpaceOnUse"
       y2="26.79"
       y1="28.4"
       x2="11.16"
       x1="10.18"
       id="j" />
    <linearGradient
       xlink:href="#b"
       gradientUnits="userSpaceOnUse"
       gradientTransform="matrix(.2646 0 0 -.2646 0 297)"
       y2="26.79"
       y1="28.4"
       x2="11.16"
       x1="10.18"
       id="k" />
    <linearGradient
       xlink:href="#b"
       gradientUnits="userSpaceOnUse"
       gradientTransform="matrix(-.2646 0 0 .2646 16.91 285.1)"
       y2="26.79"
       y1="28.4"
       x2="11.16"
       x1="10.18"
       id="l" />
    <linearGradient
       xlink:href="#b"
       gradientUnits="userSpaceOnUse"
       gradientTransform="matrix(-.2646 0 0 -.2646 16.91 297)"
       y2="26.79"
       y1="28.4"
       x2="11.16"
       x1="10.18"
       id="m" />
  </defs>
  <g
     id="g293"
     transform="translate(0 -5.027)">
    <path
       id="path25"
       fill="#d5702c"
       d="M8.129 5.575a1.12 1.12 0 00-.125.415c-.006.057-.12.109-.197.14-.118.046-.132.086-.158.055-.02-.024.037-.295-.011-.242-.308.335-.792.81-.836.793-.05-.02-.01-.213.008-.345.06-.162.159-.436.113-.424-.128.037-.346.225-.432.413-.044.096-.083.266-.157.495-.06.187-.125.382-.248.405-.058.01-.107-.07-.126-.146a.793.793 0 00-.21-.374c-.069-.068-.237-.116-.367-.166s-.253-.106-.4-.1c-.16.005-.197.116-.197.236 0 .155.122.17.178.162.117-.017.085-.14.104-.182.175.04.263.1.306.266a.31.31 0 00-.15.013c-.108.043-.147.14-.147.14s.209.042.292.159c.083.117.09.285.02.438-.148.32-.586.472-1.129.52-.531.048-.812-.204-1.025-.407-.135-.128-.165-.224-.102-.355.028-.057.026-.108-.02-.13-.098-.044-.177.06-.258.109-.045-.02-.104-.008-.23-.022a.41.41 0 00-.405.213.49.49 0 00-.056.371c.028.12.163.187.163.187s0-.32.285-.281c.235.031.14.189.09.228-.089.068.055.17-.089.193-.325.053-.39.03-.64.045-.496.034-.833.121-.855.128-.128.04-.098.19-.002.212.162.039.314.064.48.1.003.057-.002.282-.282.677-.303.428-.874.831-.898.845-.018.01-.044.035-.044.068l-.01.993c0 .072.039.1.06.114.032.022.07.046.231.162.162.116.437.343.716.67.249.29.21.654.206.717-.07.014-.363.101-.443.119-.053.012-.13.024-.133.098-.006.144.205.144.344.163.157.022.23.085.506.097.25.011.58.029.72.034a.397.397 0 00-.074.27c.009.055.21-.083.256-.114a.693.693 0 00-.054.34c.01.206.094.34.094.34s.029-.195.106-.307c.121-.215.277-.238.483-.262.06-.007.137-.101.21-.121.076-.022.222-.05.245-.053.06-.004.082-.086.167-.084-.015.059-.06.09-.07.11-.022.048.007.128.06.132.472.091.922-.246 1.312-.188a.474.474 0 01.239.103.812.812 0 01.133.194c.039.078.087.204.1.238.02.05.073.06.104.017.048-.066.109-.277.143-.347.041.014.008 0 .056.025.08.04.16.16.209.426.027.145.002.334-.06.417-.097.13-.173.15-.279.15 0 0 .176.197.495 0 .103-.064.247-.166.257-.369.012-.245-.007-.407-.007-.407s.054.036.148.18c.071.107.102.149.178.276.033.054.096.113.158.108.12-.011.114-.067.165.065.06.159.116.237.201.282.113.06.155.065.235.146.03.032.122.125.118.207-.01.235-.196.067-.196.067-.04.24.268.256.409.079a.782.782 0 00.138-.449c-.004-.252-.134-.41-.225-.52-.048-.057-.093-.134-.19-.234-.06-.062-.11-.111-.091-.126.017-.014.147.11.195.164a.672.672 0 00.09.085c.03.04.101.128.136.094.028-.028.066-.027.093.011.096.185.118.355.203.355.085 0 .107-.17.204-.355.026-.038.064-.04.093-.011.034.034.106-.055.135-.094 0 0 .043-.031.09-.085.049-.054.179-.178.196-.164.018.015-.031.064-.091.126-.097.1-.143.177-.19.234-.092.11-.221.268-.225.52a.781.781 0 00.138.449c.14.177.45.161.409-.079 0 0-.187.168-.197-.067-.003-.082.088-.175.119-.207.08-.08.121-.086.235-.146.085-.045.14-.123.2-.282.051-.132.046-.076.166-.065.062.005.125-.054.158-.108.076-.127.106-.169.177-.276.095-.144.148-.18.148-.18s-.018.162-.007.407c.01.203.154.304.258.369.319.197.494 0 .494 0-.106 0-.181-.02-.279-.15-.061-.082-.086-.271-.06-.417.05-.266.129-.386.21-.426.048-.024.015-.01.055-.025.035.07.096.281.144.347.03.044.083.033.103-.017.014-.034.062-.16.1-.238a.813.813 0 01.134-.194.474.474 0 01.238-.103c.39-.058.84.279 1.313.188.052-.004.081-.084.059-.132-.01-.02-.054-.051-.07-.11.085-.002.108.08.168.084.023.002.169.031.245.053.073.02.15.114.21.121.206.024.361.047.482.262.078.112.106.308.106.308s.084-.135.094-.34a.693.693 0 00-.054-.341c.047.031.248.169.257.113a.397.397 0 00-.074-.27c.14-.004.47-.021.72-.033.276-.012.348-.075.506-.097.138-.02.35-.019.343-.163-.003-.074-.08-.086-.133-.098-.08-.018-.373-.105-.443-.12-.003-.062-.042-.425.206-.716a4.2 4.2 0 01.716-.67c.162-.116.2-.14.23-.162.023-.015.062-.042.06-.114l-.008-.993c0-.033-.026-.058-.045-.068-.024-.014-.594-.417-.898-.845-.28-.395-.285-.62-.28-.677.164-.036.317-.061.479-.1.095-.023.126-.172-.003-.212a4.73 4.73 0 00-.854-.128c-.25-.015-.315.008-.64-.045-.144-.023 0-.125-.089-.193-.05-.04-.146-.197.09-.228.284-.038.284.281.284.281s.135-.068.164-.187a.49.49 0 00-.056-.371.41.41 0 00-.405-.213c-.127.014-.185.002-.23.022-.081-.05-.16-.153-.258-.108-.047.02-.049.072-.02.13.063.13.032.226-.102.354-.213.203-.494.455-1.026.408-.542-.049-.98-.2-1.128-.521a.442.442 0 01.02-.438c.083-.117.292-.159.292-.159s-.04-.097-.148-.14a.31.31 0 00-.15-.013c.044-.166.132-.226.306-.266.02.042-.013.165.105.182.056.008.177-.007.177-.162 0-.12-.037-.23-.197-.236-.146-.006-.27.05-.4.1s-.297.098-.366.166a.793.793 0 00-.21.374c-.02.076-.069.156-.127.146-.122-.023-.187-.218-.247-.405-.074-.23-.114-.4-.157-.495-.086-.188-.304-.376-.433-.413-.045-.012.054.262.113.424.018.132.059.326.008.345-.044.016-.527-.458-.835-.793-.048-.053.009.218-.012.242-.026.03-.04-.009-.157-.056-.077-.03-.191-.082-.197-.14a1.119 1.119 0 00-.125-.414c-.098-.171-.196-.245-.33-.245-.135 0-.234.074-.331.245z" />
    <path
       id="path27"
       fill="#052830"
       d="M8.195 5.641c-.1.174-.07.511-.07.511s-.238.066-.46.188c-.22.122-.485.379-.485.379s.089-.124.149-.22c.06-.095.191-.283.191-.283s-.311.354-.677.62c-.091.07-.164.104-.184.081-.021-.023-.021-.097-.019-.227.002-.13.126-.498.126-.498s-.04.01-.08.035c-.042.024-.062.07-.1.182s-.33.897-.39 1.019c-.06.122-.135.08-.184.033-.05-.048-.246-.527-.362-.643-.116-.116-.419-.249-.693-.254-.101-.002-.105.08-.1.14.003.06.061.121.115.098.089-.037 0-.092.043-.135.048-.048.201-.008.335.118.101.095.186.355.186.355s-.072-.037-.134-.053c-.062-.017-.176-.002-.176-.002s.438.326.275.68c-.163.353-.666.587-1.221.636-.557.05-.966-.272-1.158-.52-.192-.249-.031-.435-.031-.435s-.116 0-.17.05c-.053.05-.035.13-.035.13s-.082-.066-.24-.08c-.157-.015-.285.026-.365.204-.081.178-.05.32-.05.32s.068-.155.25-.262c.182-.108.345-.044.376.043.031.087.133.403.133.403s-.07-.004-.122.013c-.052.016-.038.035-.005.082.034.048.03.093.03.093s-.416.015-.91.048c-.494.033-.813.072-.813.072s-.016.087 0 .093c.017.007.058.007.211.027s.308.064.308.064.046.424-.27.87c-.317.447-.947.805-.947.805v1.064s.354.097.98.86c.283.344.24.822.24.822s-.477.096-.56.114c-.082.019-.066.07-.041.078.025.008.502.057.785.077.282.021.992.047.992.047s-.045.045-.077.083c-.032.037-.07.15-.07.15s.056-.052.094-.08c.078-.057.121-.063.121-.063s-.093.102-.134.227c-.038.113-.001.228-.001.228s.11-.216.214-.257c.103-.04.28-.026.398-.033.117-.007.276-.162.377-.17.101-.009.36 0 .36 0s-.044.05-.066.08c-.021.03-.047.103-.047.103s.142-.07.201-.079c.06-.008.109-.004.23-.054.123-.05.246-.054.505-.062.26-.007.538.067.638.164.1.097.21.37.21.37s.017-.04.046-.145c.03-.104-.002-.218-.002-.222 0-.004.122.032.235.089.112.056.226.242.267.522.04.279-.133.552-.133.552s.313-.202.348-.443c.036-.24-.051-.344-.144-.507-.093-.164-.301-.324-.301-.324s.36.145.48.235.248.267.32.45c.071.181.119.323.156.328.026.003.046.002.076-.064s.026-.155.108-.128c.081.027.106.159.161.307.055.147.123.193.193.21.07.018.229.049.303.175.075.126-.009.407-.009.407s.206-.077.2-.437c-.005-.239-.085-.351-.175-.459s-.376-.41-.49-.478c-.112-.068-.175-.133-.145-.183.03-.05.108-.026.225-.006.118.02.159.105.277.173.12.068.26.258.26.258s.034-.107.09-.093c.056.013.1.124.142.205.095.182.15.243.15.243s.049-.048.148-.243c.042-.081.087-.192.143-.205.056-.014.09.093.09.093s.14-.19.26-.258c.118-.068.158-.154.276-.173.118-.02.195-.045.225.006.03.05-.033.115-.145.183-.113.068-.4.37-.49.478s-.17.22-.174.46c-.006.359.2.436.2.436s-.084-.28-.01-.407c.075-.126.233-.157.303-.175.07-.017.139-.063.193-.21.055-.148.08-.28.162-.307.081-.027.077.062.107.128s.05.067.077.064c.037-.005.084-.147.156-.329.071-.182.2-.36.32-.45.119-.09.48-.234.48-.234s-.208.16-.301.324c-.093.163-.18.266-.145.507s.348.443.348.443-.172-.273-.132-.552c.04-.28.154-.466.267-.522.112-.057.234-.093.234-.09 0 .005-.03.119-.002.223.03.104.046.146.046.146s.11-.274.21-.371c.1-.097.379-.17.638-.164.26.008.383.013.505.062.122.05.171.046.23.054.06.008.202.079.202.079s-.026-.074-.048-.104c-.022-.03-.066-.078-.066-.078s.26-.01.36-.001c.102.008.26.163.378.17.118.007.294-.007.398.033.103.04.214.257.214.257s.036-.115-.001-.228c-.041-.125-.135-.227-.135-.227s.043.006.121.063c.039.028.094.08.094.08s-.038-.113-.07-.15c-.032-.038-.076-.083-.076-.083s.71-.026.992-.047c.282-.02.76-.069.784-.077.025-.008.042-.059-.04-.078l-.56-.114s-.044-.479.239-.822c.626-.763.98-.86.98-.86v-1.064s-.63-.358-.946-.804c-.316-.447-.27-.87-.27-.87s.154-.044.307-.065c.153-.02.195-.02.211-.027.017-.006 0-.093 0-.093s-.318-.039-.812-.072c-.494-.033-.91-.048-.91-.048s-.004-.045.029-.093c.033-.047.048-.066-.004-.082-.052-.017-.122-.013-.122-.013s.101-.316.132-.403c.031-.087.195-.15.376-.043.182.107.25.262.25.262s.032-.142-.049-.32c-.08-.178-.209-.22-.366-.205a.475.475 0 00-.24.081s.019-.08-.035-.13c-.054-.05-.17-.05-.17-.05s.162.186-.03.434c-.193.248-.602.57-1.158.521-.556-.05-1.058-.283-1.222-.636-.163-.354.275-.68.275-.68s-.113-.015-.175.002a.812.812 0 00-.135.053s.085-.26.186-.355c.134-.126.287-.166.335-.118.044.043-.045.098.044.135.054.023.111-.038.115-.098.004-.06 0-.142-.1-.14-.275.005-.578.138-.693.254-.116.116-.313.595-.362.643-.05.047-.124.089-.184-.033s-.354-.908-.39-1.02c-.038-.111-.059-.157-.1-.181-.041-.025-.08-.035-.08-.035s.123.368.125.498c.002.13.002.204-.018.227-.02.023-.093-.01-.184-.08-.366-.267-.678-.62-.678-.62s.132.187.192.282c.06.096.149.22.149.22s-.265-.257-.486-.379c-.221-.122-.459-.188-.459-.188s.029-.337-.07-.51c-.092-.162-.183-.2-.264-.2-.08 0-.171.038-.263.2z" />
    <path
       id="path29"
       fill="#fbf4ec"
       d="M8.314 6.95s-.555.073-1.029.686c-.352.455-.145 1.273-.145 1.273s-.18-.023-.283-.133c-.078-.083-.146-.238-.146-.238s-.114.026-.256.169c-.121.122-.175.238-.175.238s-.06-.067-.06-.21.086-.273.086-.273-.082.023-.206.032c-.111.008-.17 0-.17 0l-.166.221s.042.042.042.096c0 .055-.07.07-.113.07H2.154s-.057.318-.404.91c-.348.59-.788.941-.788.941v.443s.297.242.663.746c.36.501.533 1.114.533 1.114h2.58c.354 0 .388-.02.58-.033.235-.017.483 0 .566.095.082.095-.033.182-.033.182s.185.046.392.046c.157 0 .418 0 .666.032.248.034.36.075.504.067a.822.822 0 01.405.074c.14.062.236.086.36.206s.277.298.277.298.154-.178.278-.298c.124-.12.218-.144.359-.206a.822.822 0 01.405-.074c.145.008.256-.033.504-.067.248-.033.509-.032.666-.032.207 0 .393-.046.393-.046s-.116-.087-.034-.182c.083-.095.331-.112.567-.095.191.013.225.034.579.034l2.58-.001s.173-.613.533-1.114c.366-.504.663-.746.663-.746v-.443s-.44-.35-.788-.942c-.347-.59-.404-.91-.404-.91h-3.54c-.042 0-.112-.014-.112-.069 0-.054.042-.096.042-.096l-.166-.22s-.059.007-.17-.001c-.124-.01-.206-.032-.206-.032s.086.13.086.274c0 .142-.06.21-.06.21s-.053-.117-.175-.24c-.142-.142-.256-.168-.256-.168s-.068.155-.146.238c-.102.11-.283.133-.283.133s.207-.818-.145-1.273c-.475-.613-1.029-.686-1.029-.686s-.02.062.02.128c.042.066.228.269.228.356 0 .087-.05.24-.05.24s.119-.033.197.008c.079.042.143.14.205.173a.56.56 0 00.182.057c.058.005.053.076-.008.079a.3.3 0 00-.183.063c-.073.044-.145.135-.227.152-.095.019-.162.014-.162.014s.066.13.028.257c-.039.133-.112.176-.176.28-.06.095-.06.154-.08.194-.037.073-.198.075-.23 0-.016-.042-.02-.099-.079-.194-.064-.104-.137-.147-.176-.28-.038-.127.028-.257.028-.257s-.067.005-.162-.014c-.082-.016-.154-.108-.227-.152a.3.3 0 00-.183-.063c-.061-.003-.066-.074-.008-.079a.56.56 0 00.183-.057c.062-.033.125-.131.204-.173.078-.041.197-.008.197-.008s-.05-.153-.05-.24.186-.29.227-.356c.042-.066.021-.128.021-.128z" />
    <path
       id="path31"
       fill="#154b75"
       d="M8.468 13.1c-.1.123-.207.245-.327.363.118.138.22.282.32.426.1-.15.209-.291.327-.426a4.69 4.69 0 01-.32-.363z" />
    <path
       id="path33"
       fill="url(#c)"
       d="M7.477 13.15s.22.046.256.08c.038.036-.002.096-.002.096s.15-.034.296-.058c.289-.047.604-.03.866 0 .147.017.296.058.296.058s-.04-.06-.003-.095c.038-.035.257-.081.257-.081H7.477z" />
    <path
       id="path35"
       fill="#fff"
       d="M11.59 9.534h.91l-.282.269v2.1l.893.003.028-.614.087.003c.11.263.259.475.429.742l-.066.132-2.036-.014.291-.337V9.78z" />
    <path
       id="path37"
       fill="#092631"
       d="M11.52 9.5l.759-.012.048.038-.207.206v2.137h.454c.53 0 .574-.538.574-.538l.096.002c.114.272.15.315.306.6l-.097.167h-2.047l-.05-.038.418-.278V9.746z" />
    <path
       id="path39"
       fill="#fff"
       d="M11.54 12l1.962.028-.058.1-2.083.006zM8.924 9.618l.927-.103.09.083-.2.197v1.656c0 .15.067.433.506.433.438 0 .378-.155.378-.444V9.89l-.287-.265.821-.068.116.077-.273.22s-.007 1.05-.007 1.577c0 .73-.542.775-.949.776-.243 0-.489-.038-.667-.24-.153-.173-.202-.357-.202-.618V9.871z" />
    <path
       id="path41"
       fill="#092631"
       d="M9.023 9.568l.798-.008.051.048-.205.189v1.46c0 .15.003.616.5.616s.557-.194.557-.483V9.84l-.287-.265h.677l.08.053-.267.214v1.54c0 .586-.346.825-.782.827-.243 0-.571-.018-.75-.219-.153-.173-.12-.43-.12-.69V9.822zM3.333 12.1l-.045-.055s.363-.22.525-.563c.175-.371.71-1.78.71-1.78l-.242-.253h.948l.025.02-.218.242.772 2.017.426.38L5.08 12.1l.269-.256-.69-1.98s-.516 1.351-.573 1.665c-.053.293.316.571.316.571z" />
    <path
       sodipodi:nodetypes="cccccccccccccccc"
       id="path43"
       fill="#fefcf9"
       d="m 3.3287054,12.046126 c 0,0 0.2845859,-0.22327 0.4342946,-0.554126 0.17,-0.376 0.748,-1.767 0.748,-1.767 L 4.27,9.513 5.197,9.494 4.964,9.746 5.762,11.86 6.072,12.075494 H 5.038 L 5.039,12.029 5.359,11.862 4.635,9.887 c 0,0 -0.515,1.35 -0.601,1.657 -0.079,0.279 0.2395,0.531494 0.2395,0.531494 H 3.3540975 Z" />
    <path
       id="path45"
       fill="#092631"
       d="M3.76 10.63s.068-.108.096-.165c.027-.055.07-.171.07-.171s.214.185.467.434c.198.195.317.398.317.398s.152-.118.377-.302c.26-.21.2-.134.385-.262.127-.089.165-.15.165-.15s.023.123.085.248c.045.09.156.272.156.272s-.415-.108-.708.12c-.268.21-.489.543-.489.543s-.176-.281-.367-.486a3.832 3.832 0 00-.554-.48z" />
    <path
       id="path47"
       fill="#fefcf9"
       d="M3.732 10.7s.02-.029.073-.144c.05-.11.096-.225.096-.225s.25.204.48.454c.167.182.324.408.324.408s.156-.198.378-.38c.255-.21.195-.135.376-.263.125-.088.116-.116.116-.116s.033.108.07.195c.037.088.158.245.158.245s-.407-.062-.564.089c-.244.233-.555.655-.555.655s-.175-.317-.349-.52c-.236-.278-.603-.398-.603-.398z" />
    <path
       id="path49"
       fill="#eca636"
       d="M4.24 12h-.988s.356-.152.556-.582c.169-.366.669-1.73.669-1.73l-.22-.229h.925l-.219.238.787 2.084.282.219h-.976l.264-.231-.72-1.923s-.503 1.325-.59 1.625c-.077.271.23.529.23.529z" />
    <path
       id="path51"
       fill="#eca636"
       d="M3.756 10.7s.003-.046.052-.153c.05-.108.079-.182.079-.182s.208.159.438.402c.166.177.326.419.326.419s.174-.248.395-.426c.253-.205.194-.131.374-.255.125-.086.163-.146.163-.146s.008.103.05.206c.035.086.098.188.098.188s-.278-.046-.526.175c-.249.222-.557.616-.557.616s-.173-.309-.347-.507c-.236-.27-.545-.337-.545-.337z" />
    <g
       id="g57"
       fill="#092631">
      <path
         id="path53"
         d="M4.164 12.01h-.97s.35-.15.545-.577c.166-.362.657-1.713.657-1.713l-.215-.226h.91l-.216.235.773 2.064.278.217h-.96l.26-.229-.708-1.905s-.494 1.312-.58 1.61c-.076.268.226.523.226.523z" />
      <path
         id="path55"
         d="M3.675 10.72s.048-.052.096-.159c.048-.106.071-.165.071-.165s.18.128.406.369c.164.175.32.414.32.414s.172-.245.389-.421c.25-.203.191-.13.369-.253.122-.085.16-.144.16-.144s.012.12.048.203c.036.086.097.187.097.187s-.273-.046-.517.174c-.245.219-.547.61-.547.61s-.171-.306-.342-.503a.983.983 0 00-.55-.312zM6.484 9.5h2.041l.052.048-1.615 2.4.546.004c.145.001.446-.076.579-.224.138-.152.222-.387.222-.387h.066c.108.235.193.38.357.617l-.1.157-2.26.023-.02-.038 1.643-2.342h-.66c-.46 0-.572.424-.572.424s-.132-.285-.215-.437c-.042-.079-.065-.246-.065-.246z" />
    </g>
    <path
       id="path59"
       fill="#f9fdfe"
       d="M8.635 9.5l-1.588 2.387h.531a.657.657 0 00.479-.191c.137-.15.243-.387.243-.387.13.25.265.46.376.624l-.083.128-2.234-.011.196-.271.465.03L8.56 9.5zM7.98 9.535l-.128.218-.597.01c-.46.009-.538.382-.538.382s-.098-.156-.18-.306a2.133 2.133 0 01-.102-.302z" />
    <path
       id="path61"
       fill="#eca636"
       d="M6.41 9.5h2.145l-1.581 2.368h.645a.662.662 0 00.483-.193c.139-.152.179-.306.179-.306s.056.15.175.358c.09.155.189.306.189.306H6.388l1.576-2.361h-.667c-.464 0-.576.422-.576.422s-.135-.284-.217-.435C6.46 9.58 6.409 9.5 6.409 9.5z" />
    <path
       id="path63"
       fill="#092631"
       d="M6.314 9.498H8.44l-1.566 2.341h.639a.657.657 0 00.478-.191c.138-.15.178-.302.178-.302s.036.126.2.418c.075.134.146.238.146.238H6.293l1.562-2.334h-.66c-.46 0-.572.417-.572.417s-.132-.28-.215-.43c-.042-.077-.094-.156-.094-.156z" />
    <path
       id="path65"
       fill="#fff"
       d="M8.924 9.618l.534-.103.091.083-.201.197.255 1.666c.039.253.205.422.644.422.438 0 .378-.155.378-.444V9.89l-.287-.265h.75l-.333.268s.073 1.025.073 1.539c0 .6-.35.728-.782.729-.243 0-.512-.017-.69-.218-.146-.164-.18-.332-.18-.593V9.871z" />
    <path
       id="path67"
       fill="#eca636"
       d="M9.019 9.5h.873l-.275.254v1.605c0 .153.016.558.484.558s.557-.276.557-.57V9.776l-.247-.257h.823l-.373.301v1.52c0 .71-.344.737-.782.739-.547-.009-.807-.196-.807-.822v-1.5z" />
    <path
       id="path69"
       fill="#092631"
       d="M8.874 9.494h.91l-.275.25v1.583c0 .15.012.55.51.55s.556-.273.556-.561v-1.55l-.287-.266h.822l-.332.268v1.539c0 .209-.03.43-.181.553-.174.141-.357.176-.6.176-.244 0-.49.008-.668-.193-.153-.173-.202-.357-.202-.618V9.747z" />
    <path
       id="path71"
       fill="#eca636"
       d="M11.51 9.5l.849.003-.298.272v2.094h.503c.53 0 .583-.585.583-.585s.089.264.183.436c.125.228.18.291.18.291l-.023.04h-2.021l.298-.266V9.747z" />
    <path
       id="path73"
       fill="#092631"
       d="M11.33 9.501h.91l-.282.269v2.1h.426c.53 0 .591-.593.591-.593s.094.27.189.443c.124.228.184.284.184.284h-2.03l.266-.219V9.747z" />
    <path
       id="path75"
       fill="#1a9dd4"
       d="M8.457 6.266s-.845.212-1.895 1.002c-.69.519-1.42 1.336-1.42 1.336h-3.65s.073.062.164.089c.09.026.202.024.202.024s-.084.454-.39.943c-.479.762-.89.953-.89.953v.702s.37.255.73.716c.38.486.527 1.178.527 1.178l-.173.015c-.1.008-.222.09-.222.09s3.58-.002 3.651 0c.087.004.134.126.452.214.2.056.864.05.978.077.093.02.09.082.156.119.04.022.579.002.787.032.214.031.296.221.37.294.089.09.259.15.259.15s.057-.032.118-.04a.352.352 0 01.141.008l.103.285.102-.285s.057-.018.141-.007c.062.007.12.04.12.04s.17-.062.26-.151c.072-.073.154-.263.368-.294.208-.03.746-.01.787-.032.066-.037.064-.098.156-.12.114-.026.778-.02.978-.076.317-.088.365-.21.451-.213.073-.003 3.654 0 3.654 0s-.122-.083-.222-.091c-.1-.01-.172-.015-.172-.015s.145-.692.526-1.178c.36-.462.73-.716.73-.716v-.702s-.412-.191-.89-.953c-.306-.489-.39-.943-.39-.943s.111.002.202-.024c.09-.027.164-.09.164-.09h-3.65s-.729-.816-1.419-1.335c-1.05-.79-1.895-1.002-1.895-1.002zm0 .366c.072 0 .641-.034 1.758.695.95.62 1.355 1.404 1.355 1.404h3.276s.109.55.474 1.128c.396.626.754.81.754.81v.603s-.372.237-.748.82c-.388.602-.474 1.12-.474 1.12h-3.345s.076.05.076.08-.213.148-.713.175c-.647.035-.671.146-.903.167-.34.031-.629.038-.781.038-.46 0-.73.511-.73.511s-.273-.511-.732-.511c-.152 0-.44-.007-.78-.038-.232-.021-.257-.132-.903-.167-.5-.027-.714-.146-.714-.175s.076-.08.076-.08H2.06s-.086-.518-.473-1.12c-.376-.583-.749-.82-.749-.82v-.603s.358-.184.754-.81a3.703 3.703 0 00.474-1.128h3.278s.284-.695 1.355-1.404c1.072-.709 1.686-.695 1.758-.695z" />
    <ellipse
       id="ellipse77"
       fill="#219dbd"
       ry=".332"
       rx=".177"
       cy="5.846"
       cx="8.454" />
    <path
       id="path79"
       fill="#1a9dd4"
       d="M8.314 6.836a2.048 2.048 0 00-.997.424c-.346.276-.429.5-.769.79-.226.192-.384.264-.384.264s.054.03.16.004c.105-.026.186-.064.186-.064s-.011.126-.035.19c-.023.064-.067.143-.067.143s.129-.085.2-.15c.074-.067.157-.107.157-.107s-.01.088.037.18c.062.117.177.188.177.188s-.178-.463-.007-.845c.16-.355.438-.585.696-.725.34-.184.631-.243.652-.251.045-.018.015-.038-.006-.041z" />
    <path
       id="path81"
       fill="#1f95ca"
       d="M8.406 7.162c0 .043.01.039.008.084-.004.08-.214.16-.214.325 0 .123.105.232.105.232s-.064-.041-.18-.041c-.147 0-.221.177-.292.177-.056 0-.066.024-.066.043 0 .02.015.038.066.038.077 0 .145.157.281.157a.65.65 0 00.191-.035s-.09.093-.09.233.195.214.195.338c0 .048-.003.09.05.09.052 0 .049-.042.049-.09 0-.124.194-.199.194-.338s-.089-.233-.089-.233.096.035.19.035c.138 0 .205-.157.282-.157.05 0 .066-.018.066-.038 0-.019-.01-.043-.066-.043-.071 0-.145-.177-.292-.177-.116 0-.18.041-.18.041s.105-.109.105-.232c0-.166-.21-.244-.213-.325-.003-.045.007-.041.007-.084 0-.03-.03-.043-.053-.043s-.054.013-.054.043z" />
    <path
       id="path83"
       fill="#1a9dd4"
       d="M8.602 6.836c.014-.002.532.054.997.424.346.276.429.5.769.79.226.192.384.264.384.264s-.054.03-.16.004c-.104-.026-.186-.064-.186-.064s.011.126.035.19c.023.064.067.143.067.143s-.129-.085-.2-.15c-.074-.067-.157-.107-.157-.107s.01.088-.037.18c-.062.117-.177.188-.177.188s.178-.463.007-.845a1.562 1.562 0 00-.696-.725c-.34-.184-.631-.243-.652-.251-.045-.018-.015-.038.006-.041z" />
    <g
       id="g87"
       fill="#68cbfc">
      <path
         id="path85"
         d="M8.39 8.11c-.052.027-.067.07-.07.171-.003.097.07.28.14.28s.143-.183.14-.28c-.003-.102-.02-.14-.07-.171-.05-.032-.102-.02-.14 0zM8.322 7.638c.003.102.02.141.07.172.045.028.1.027.14 0 .048-.033.066-.07.07-.172.003-.096-.06-.28-.14-.28-.08 0-.143.184-.14.28zM8.166 7.864c-.076-.003-.22.054-.22.11 0 .054.144.111.22.109.079-.003.11-.016.133-.056.022-.036.01-.08 0-.108-.013-.044-.054-.053-.133-.055zM8.724 7.864c-.08.002-.11.015-.135.055-.021.036-.008.081 0 .108.014.044.055.053.135.056.075.002.219-.055.219-.11s-.144-.112-.22-.11z" />
    </g>
    <circle
       id="circle89"
       fill="url(#d)"
       r=".161"
       cy="288"
       cx="8.448"
       transform="translate(0 -280.1)" />
    <g
       id="g97"
       fill="#052739">
      <path
         id="path91"
         d="M2.414 10.06c-.064.022-.136.215-.349.42-.21.203-.346.245-.47.344-.091.073-.086.183 0 .244.13.09.26.14.47.344.243.234.303.452.376.418.04-.018.023-.16-.037-.384-.06-.223-.11-.27-.11-.27s.092-.014.218-.067c.21-.089.22-.137.22-.163 0-.026-.009-.074-.22-.163-.126-.053-.217-.067-.217-.067s.05-.047.11-.27c.06-.224.076-.367.036-.385a.036.036 0 00-.027-.001zM14.49 10c.064.022.136.215.349.42.21.203.346.245.47.344.091.073.086.184 0 .244-.13.091-.26.14-.47.344-.243.235-.303.452-.376.419-.04-.019-.023-.162.037-.385s.11-.27.11-.27-.092-.014-.218-.067c-.21-.089-.22-.137-.22-.163 0-.026.009-.074.22-.163.126-.053.217-.067.217-.067s-.05-.047-.11-.27c-.06-.223-.076-.366-.036-.384A.037.037 0 0114.49 10z" />
      <circle
         id="circle93"
         r=".118"
         cy="291"
         cx="1.244"
         transform="translate(0 -280.1)" />
      <circle
         id="circle95"
         r=".118"
         cy="291"
         cx="15.66"
         transform="translate(0 -280.1)" />
    </g>
    <circle
       id="circle99"
       fill="#ffc882"
       r=".164"
       cy="291"
       cx="14.92"
       transform="translate(0 -280.1)" />
    <circle
       id="circle101"
       fill="#ffc882"
       r=".164"
       cy="291"
       cx="1.982"
       transform="translate(0 -280.1)" />
    <path
       id="path103"
       fill="#1e94cc"
       d="M6.408 7.7c-.64.547-.802.804-.835.885-.036.086.165.143.22.071.053-.069.306-.46.82-.997.508-.53 1.146-.813 1.146-.813s-.648.226-1.351.854zM10.52 7.757c.64.547.802.804.835.885.036.086-.165.143-.22.071-.053-.069-.305-.46-.82-.997-.508-.53-1.146-.813-1.146-.813s.648.226 1.351.854z" />
    <g
       id="g189"
       fill="#0f5680">
      <circle
         id="circle105"
         r=".07"
         cy="288.3"
         cx="6.678"
         transform="translate(0 -280.1)" />
      <circle
         id="circle107"
         r=".057"
         cy="288.1"
         cx="6.782"
         transform="translate(0 -280.1)" />
      <circle
         id="circle109"
         r=".043"
         cy="287.9"
         cx="6.901"
         transform="translate(0 -280.1)" />
      <circle
         id="circle111"
         r=".07"
         cy="8.205"
         cx="-10.24"
         transform="scale(-1 1)" />
      <circle
         id="circle113"
         r=".057"
         cy="8.002"
         cx="-10.14"
         transform="scale(-1 1)" />
      <circle
         id="circle115"
         r=".043"
         cy="7.822"
         cx="-10.02"
         transform="scale(-1 1)" />
      <circle
         id="circle117"
         r=".07"
         cy="13.98"
         cx="8.071" />
      <circle
         id="circle119"
         r=".056"
         cy="13.83"
         cx="7.86" />
      <circle
         id="circle121"
         r=".07"
         cy="13.98"
         cx="-8.854"
         transform="scale(-1 1)" />
      <circle
         id="circle123"
         r=".056"
         cy="13.83"
         cx="-9.065"
         transform="scale(-1 1)" />
      <circle
         id="circle125"
         r=".07"
         cy="6.526"
         cx="8.165" />
      <circle
         id="circle127"
         r=".059"
         cy="6.586"
         cx="7.954" />
      <circle
         id="circle129"
         r=".043"
         cy="6.654"
         cx="7.77" />
      <circle
         id="circle131"
         r=".033"
         cy="6.716"
         cx="7.607" />
      <circle
         id="circle133"
         r=".025"
         cy="6.781"
         cx="7.465" />
      <circle
         id="circle135"
         r=".07"
         cy="6.526"
         cx="-8.742"
         transform="scale(-1 1)" />
      <circle
         id="circle137"
         r=".059"
         cy="6.586"
         cx="-8.954"
         transform="scale(-1 1)" />
      <circle
         id="circle139"
         r=".043"
         cy="6.654"
         cx="-9.138"
         transform="scale(-1 1)" />
      <circle
         id="circle141"
         r=".033"
         cy="6.716"
         cx="-9.3"
         transform="scale(-1 1)" />
      <circle
         id="circle143"
         r=".025"
         cy="6.781"
         cx="-9.443"
         transform="scale(-1 1)" />
      <circle
         id="circle145"
         r=".06"
         cy="10.7"
         cx=".729" />
      <circle
         id="circle147"
         r=".072"
         cy="10.96"
         cx=".725" />
      <circle
         id="circle149"
         r=".057"
         cy="10.52"
         cx=".874" />
      <circle
         id="circle151"
         r=".048"
         cy="10.38"
         cx="1.043" />
      <circle
         id="circle153"
         r=".04"
         cy="10.25"
         cx="1.179" />
      <circle
         id="circle155"
         r=".029"
         cy="10.11"
         cx="1.29" />
      <circle
         id="circle157"
         r=".06"
         cy="-11.22"
         cx=".729"
         transform="scale(1 -1)" />
      <circle
         id="circle159"
         r=".057"
         cy="-11.41"
         cx=".861"
         transform="scale(1 -1)" />
      <circle
         id="circle161"
         r=".048"
         cy="-11.55"
         cx="1.025"
         transform="scale(1 -1)" />
      <circle
         id="circle163"
         r=".04"
         cy="-11.69"
         cx="1.173"
         transform="scale(1 -1)" />
      <circle
         id="circle165"
         r=".029"
         cy="-11.81"
         cx="1.282"
         transform="scale(1 -1)" />
      <circle
         id="circle167"
         r=".06"
         cy="10.7"
         cx="-16.18"
         transform="scale(-1 1)" />
      <circle
         id="circle169"
         r=".072"
         cy="10.96"
         cx="-16.19"
         transform="scale(-1 1)" />
      <circle
         id="circle171"
         r=".057"
         cy="10.52"
         cx="-16.04"
         transform="scale(-1 1)" />
      <circle
         id="circle173"
         r=".048"
         cy="10.38"
         cx="-15.87"
         transform="scale(-1 1)" />
      <circle
         id="circle175"
         r=".04"
         cy="10.25"
         cx="-15.73"
         transform="scale(-1 1)" />
      <circle
         id="circle177"
         r=".029"
         cy="10.11"
         cx="-15.62"
         transform="scale(-1 1)" />
      <circle
         id="circle179"
         r=".06"
         cy="-11.22"
         cx="-16.18"
         transform="scale(-1)" />
      <circle
         id="circle181"
         r=".057"
         cy="-11.41"
         cx="-16.05"
         transform="scale(-1)" />
      <circle
         id="circle183"
         r=".048"
         cy="-11.55"
         cx="-15.89"
         transform="scale(-1)" />
      <circle
         id="circle185"
         r=".04"
         cy="-11.69"
         cx="-15.74"
         transform="scale(-1)" />
      <circle
         id="circle187"
         r=".029"
         cy="-11.81"
         cx="-15.63"
         transform="scale(-1)" />
    </g>
    <path
       id="path191"
       fill="#004486"
       d="M8.465 13.2c-.08.098-.164.194-.258.287.092.11.173.223.253.337.079-.118.164-.23.258-.337a3.689 3.689 0 01-.253-.287z" />
    <path
       id="path193"
       fill="#278dd4"
       d="M8.465 13.28c-.07.086-.144.17-.228.253.082.096.153.196.224.296.069-.103.145-.202.227-.296a3.276 3.276 0 01-.223-.253z" />
    <path
       id="path195"
       fill="#6fcbf1"
       d="M8.459 13.4c-.086 0-.127.076-.127.15 0 .086.076.147.124.147s.132-.051.132-.143c0-.073-.043-.154-.129-.154z" />
    <circle
       id="circle197"
       fill="url(#e)"
       r=".086"
       cy="13.55"
       cx="8.461" />
    <g
       id="g207"
       color="#000">
      <path
         id="path199"
         fill="url(#f)"
         d="M6.426 24.64c1.228 1.611 2.119 3.034 2.832 4.557l-.023.598a.175.175 0 00.228.17l.621-.186c3.087-.062 6.931-.156 10.18-.227-2.824-.336-5.754-.921-8.578-1.367a.175.175 0 00-.154.06c-.432.489-1.177.698-1.447.509-.27-.19-.366-.511-.361-.813.004-.301.095-.552.095-.552a.176.176 0 00-.082-.207c-1.349-.729-2.366-1.698-3.31-2.541zm1.666 1.795s.748.597 1.371.973c-.228.718.025 1.252.332 1.564l-.223.093a20.755 20.755 0 00-1.48-2.63zm3.615 2.109l5.312.83-6.898.057-.02-.295c.462.107 1.221-.214 1.605-.592zm-1.863.693s.025.134.027.243l-.275.084-.012-.227z"
         transform="translate(0 5.027) scale(.2646)" />
      <path
         id="path201"
         fill="url(#g)"
         d="M15.21 11.55a6.48 6.48 0 00-.75 1.206l.007.158c0 .032-.03.055-.06.045l-.165-.049c-.817-.016-1.834-.041-2.693-.06.747-.089 1.522-.244 2.27-.362a.046.046 0 01.041.016c.114.13.311.185.383.135.071-.05.097-.135.095-.215 0-.08-.025-.146-.025-.146a.047.047 0 01.022-.055c.357-.193.626-.45.876-.673zm-.44.475s-.199.158-.364.257a.395.395 0 01-.087.414l.058.025c.117-.241.21-.417.392-.696zm-.957.558l-1.406.22 1.825.015.005-.078c-.122.028-.323-.057-.425-.157zm.493.183s-.007.036-.007.065l.072.022.003-.06z" />
      <path
         id="path203"
         fill="url(#h)"
         d="M1.7 10.45a6.48 6.48 0 00.75-1.206l-.007-.158c0-.032.03-.055.06-.045l.165.049c.817.016 1.834.041 2.693.06-.747.089-1.522.244-2.27.362a.046.046 0 01-.041-.016c-.114-.13-.311-.185-.383-.135-.071.05-.097.135-.095.215 0 .08.025.146.025.146a.047.047 0 01-.022.055c-.357.193-.626.45-.876.673zm.44-.475s.199-.158.364-.257a.395.395 0 01.087-.414l-.058-.025c-.117.241-.21.417-.392.696zm.957-.558l1.406-.22-1.825-.015-.005.078c.122-.028.323.057.425.157zm-.493-.183s.007-.036.008-.065l-.073-.022-.003.06z" />
      <path
         id="path205"
         fill="url(#i)"
         d="M15.2 10.45a6.48 6.48 0 01-.75-1.206l.007-.158a.046.046 0 00-.06-.045l-.165.049c-.817.016-1.834.041-2.693.06.747.089 1.522.244 2.27.362a.046.046 0 00.041-.016c.114-.13.311-.185.383-.135.071.05.097.135.095.215 0 .08-.025.146-.025.146a.047.047 0 00.022.055c.357.193.626.45.876.673zm-.44-.475s-.199-.158-.364-.257a.395.395 0 00-.087-.414l.058-.025c.117.241.21.417.392.696zm-.957-.558l-1.406-.22 1.825-.015.005.078c-.122-.028-.323.057-.425.157zm.493-.183s-.007-.036-.007-.065l.072-.022.003.06z" />
    </g>
    <path
       id="path209"
       fill="#1da2ba"
       d="M7.869 14.95c-.087-.009-.092.026-.157-.03-.144-.124-.207-.441-.304-.518-.097-.076-.2-.082-.287-.147-.087-.064-.11-.105-.143-.16-.048-.084-.09-.291-.09-.291s.066.148.154.247c.116.13.203.117.352.23.148.111.256.204.4.371.145.168.244.396.244.396s-.068-.088-.169-.098zM9.043 14.95c.087-.009.092.026.157-.03.144-.124.207-.441.304-.518.097-.076.2-.082.287-.147.087-.064.11-.105.143-.16.048-.084.09-.291.09-.291s-.066.148-.154.247c-.115.13-.202.117-.351.23a2.312 2.312 0 00-.401.371c-.145.168-.244.396-.244.396s.068-.088.17-.098z" />
    <g
       id="g249"
       aria-label="A GAME BY MICHAEL KIESSLING"
       stroke-width=".092"
       fill="#241906">
      <path
         id="path211"
         d="M5.608 12.8v-.022h.02l.09-.246h.039l.091.246h.023v.022h-.113v-.022h.024l-.02-.055h-.09l-.021.055h.029v.022zm.071-.098h.075l-.037-.103zM6.231 12.6q-.007-.036-.024-.051-.017-.016-.048-.016-.038 0-.055.028-.018.028-.018.09 0 .06.017.088.017.028.053.028.013 0 .025-.003.011-.003.02-.01v-.073h-.028v-.022h.087v.103q-.027.014-.054.02-.027.008-.056.008-.062 0-.097-.037-.036-.038-.036-.102 0-.065.036-.102.035-.037.097-.037.026 0 .051.006.025.006.05.017v.066z" />
      <path
         id="path213"
         d="M6.241 12.8v-.022h.02l.09-.246h.039l.091.246h.023v.022h-.113v-.022h.024l-.02-.055h-.09l-.021.055h.029v.022zm.071-.098h.075l-.037-.103z" />
      <path
         id="path215"
         d="M6.472 12.8v-.022h.03v-.224h-.03v-.022h.1l.068.172.07-.172h.1v.022h-.032v.224h.031v.022h-.124v-.022h.03v-.204l-.074.187H6.6l-.075-.187v.204h.031v.022z" />
      <path
         id="path217"
         d="M6.797 12.8v-.022h.03v-.224h-.03v-.022h.217v.063h-.022v-.039H6.89v.086h.063v-.034h.022v.093h-.022v-.034H6.89v.108h.105v-.038h.022v.063zM7.186 12.8v-.022h.03v-.224h-.03v-.022h.143q.044 0 .066.016t.022.05q0 .024-.015.038t-.045.018q.036.004.056.021.019.018.019.047 0 .04-.027.059-.027.019-.085.019zm.093-.156H7.3q.028 0 .042-.011.013-.012.013-.035 0-.023-.013-.034-.013-.01-.042-.01h-.02zm0 .134h.023q.031 0 .046-.013.015-.014.015-.043 0-.028-.015-.042-.015-.015-.046-.015H7.28z" />
      <path
         id="path219"
         d="M7.458 12.8v-.022h.033v-.089l-.072-.135h-.02v-.022h.115v.022h-.027l.054.102.054-.102h-.024v-.022h.07v.022H7.62l-.067.126v.098h.033v.022zM7.787 12.8v-.022h.03v-.224h-.03v-.022h.1l.068.172.07-.172h.1v.022h-.032v.224h.031v.022H8v-.022h.03v-.204l-.074.187h-.041l-.075-.187v.204h.031v.022z" />
      <path
         id="path221"
         d="M8.113 12.8v-.022h.03v-.224h-.03v-.022h.124v.022h-.03v.224h.03v.022z" />
      <path
         id="path223"
         d="M8.457 12.7q-.01.041-.034.062-.025.02-.067.02-.06 0-.096-.038-.036-.037-.036-.101 0-.065.036-.102.035-.037.096-.037.022 0 .045.006t.05.017v.066H8.43q-.006-.034-.023-.05-.017-.018-.044-.018-.035 0-.052.03-.017.028-.017.088t.017.088.052.03q.024 0 .04-.016t.022-.045z" />
      <path
         id="path225"
         d="M8.447 12.8v-.022h.03v-.224h-.03v-.022h.124v.022h-.03v.09h.095v-.09h-.03v-.022h.124v.022h-.032v.224h.032v.022h-.125v-.022h.031v-.11H8.54v.11h.031v.022z" />
      <path
         id="path227"
         d="M8.699 12.8v-.022h.02l.09-.246h.04l.09.246h.023v.022H8.85v-.022h.024l-.02-.055h-.09l-.021.055h.029v.022zm.071-.098h.075l-.037-.103z" />
      <path
         id="path229"
         d="M8.931 12.8v-.022h.03v-.224h-.03v-.022h.217v.063h-.022v-.039h-.102v.086h.063v-.034h.022v.093h-.022v-.034h-.063v.108h.105v-.038h.022v.063z" />
      <path
         id="path231"
         d="M9.141 12.8v-.022h.03v-.224h-.03v-.022h.124v.022h-.03v.221h.094v-.042h.022v.067zM9.51 12.8v-.022h.03v-.224h-.03v-.022h.124v.022h-.03v.097l.101-.097H9.68v-.022h.09v.022h-.032l-.087.082.118.142h.024v.022H9.71l-.108-.13v.108h.031v.022z" />
      <path
         id="path233"
         d="M9.756 12.8v-.022h.03v-.224h-.03v-.022h.124v.022h-.03v.224h.03v.022z" />
      <path
         id="path235"
         d="M9.868 12.8v-.022h.03v-.224h-.03v-.022h.217v.063h-.022v-.039H9.96v.086h.063v-.034h.022v.093h-.022v-.034h-.063v.108h.105v-.038h.022v.063z" />
      <path
         id="path237"
         d="M10.09 12.8v-.064h.02q.005.03.023.045.017.015.048.015.025 0 .038-.01t.013-.031q0-.017-.009-.025-.009-.01-.036-.017l-.037-.01q-.035-.01-.05-.028-.014-.018-.014-.05 0-.04.024-.063.024-.022.067-.022.021 0 .044.004.023.004.047.012v.059h-.02q-.005-.028-.02-.04-.016-.013-.046-.013-.024 0-.036.009-.012.009-.012.027 0 .017.008.026.009.009.042.018l.036.01q.033.009.048.029.016.02.016.054 0 .04-.026.062-.025.02-.074.02-.023 0-.047-.003-.023-.004-.047-.014z" />
      <path
         id="path239"
         d="M10.28 12.8v-.064h.02q.005.03.023.045.017.015.048.015.025 0 .038-.01t.013-.031q0-.017-.009-.025-.009-.01-.036-.017l-.037-.01q-.035-.01-.05-.028-.014-.018-.014-.05 0-.04.024-.063.024-.022.067-.022.021 0 .044.004.023.004.047.012v.059h-.02q-.005-.028-.02-.04-.016-.013-.046-.013-.024 0-.036.009-.012.009-.012.027 0 .017.008.026.009.009.041.018l.037.01q.033.009.048.029.016.02.016.054 0 .04-.026.062-.025.02-.074.02-.023 0-.047-.003t-.047-.014z" />
      <path
         id="path241"
         d="M10.46 12.8v-.022h.03v-.224h-.03v-.022h.124v.022h-.03v.221h.094v-.042h.022v.067z" />
      <path
         id="path243"
         d="M10.65 12.8v-.022h.03v-.224h-.03v-.022h.124v.022h-.03v.224h.03v.022z" />
      <path
         id="path245"
         d="M10.77 12.8v-.022h.03v-.224h-.03v-.022h.075l.146.19v-.168h-.03v-.022h.084v.022h-.031v.246h-.043l-.147-.194v.172h.03v.022z" />
      <path
         id="path247"
         d="M11.24 12.6q-.007-.036-.024-.051-.017-.016-.048-.016-.038 0-.055.028-.018.028-.018.09 0 .06.017.088.017.028.053.028.013 0 .025-.003t.02-.01v-.073h-.028v-.022h.087v.103q-.027.014-.054.02-.027.008-.056.008-.062 0-.097-.037-.036-.038-.036-.102 0-.065.036-.102.035-.037.097-.037.026 0 .051.006.025.006.05.017v.066z" />
    </g>
    <g
       id="g279"
       aria-label="POINT CALCULATOR"
       stroke-width=".212"
       fill="#241906">
      <path
         id="path251"
         d="M4.565 16.76v-.05h.071v-.519h-.071v-.05h.317q.093 0 .148.05.055.048.055.13 0 .084-.055.134-.055.049-.148.049H4.78v.206h.09v.05zm.215-.306h.042q.048 0 .077-.036.03-.036.03-.096 0-.06-.03-.095-.028-.036-.077-.036H4.78z" />
      <path
         id="path253"
         d="M5.338 16.72q.071 0 .106-.067.035-.066.035-.204 0-.137-.035-.204-.035-.067-.106-.067-.07 0-.106.068-.035.067-.035.203t.035.204q.035.067.106.067zm0 .05q-.14 0-.22-.085-.08-.086-.08-.236t.08-.235q.08-.086.22-.086t.22.086q.08.085.08.235 0 .15-.08.236-.08.085-.22.085z" />
      <path
         id="path255"
         d="M5.609 16.76v-.05h.071v-.519H5.61v-.05h.287v.05h-.072v.519h.072v.05z" />
      <path
         id="path257"
         d="M5.866 16.76v-.05h.071v-.519h-.071v-.05h.174l.336.438v-.388h-.07v-.05H6.5v.05H6.43v.569H6.33l-.341-.447v.397h.07v.05z" />
      <path
         id="path259"
         d="M6.572 16.76v-.05h.074v-.512h-.153v.098h-.05v-.155h.551v.155h-.05v-.098H6.79v.512h.075v.05zM7.885 16.58q-.022.096-.08.142-.056.047-.152.047-.141 0-.223-.087-.082-.086-.082-.234 0-.149.082-.235t.223-.086q.05 0 .103.013.054.013.114.04v.152h-.048q-.014-.078-.053-.116-.038-.04-.1-.04-.082 0-.122.067-.039.067-.039.205 0 .138.04.204.039.066.12.066.057 0 .092-.034t.05-.104z" />
      <path
         id="path261"
         d="M7.821 16.76v-.05h.045l.21-.569h.089l.21.569h.053v.05h-.26v-.05h.054l-.046-.127h-.21l-.046.127h.066v.05zm.164-.227h.172l-.085-.236z" />
      <path
         id="path263"
         d="M8.357 16.76v-.05h.071v-.519h-.071v-.05h.287v.05h-.072v.512h.22v-.098h.05v.155z" />
      <path
         id="path265"
         d="M9.33 16.58q-.022.096-.08.142-.056.047-.152.047-.141 0-.223-.087-.082-.086-.082-.234 0-.149.082-.235t.223-.086q.05 0 .103.013.054.013.114.04v.152h-.048q-.014-.078-.053-.116-.038-.04-.1-.04-.082 0-.122.067-.039.067-.039.205 0 .138.04.204.039.066.12.066.057 0 .092-.034t.05-.104z" />
      <path
         id="path267"
         d="M9.368 16.19h-.07v-.05h.286v.05h-.072v.31q0 .115.033.162.032.046.111.046.077 0 .11-.047.031-.047.031-.161v-.31h-.07v-.05h.194v.05h-.072v.318q0 .142-.055.202-.055.06-.186.06-.129 0-.184-.06-.056-.061-.056-.203z" />
      <path
         id="path269"
         d="M9.875 16.76v-.05h.071v-.519h-.071v-.05h.287v.05h-.072v.512h.22v-.098h.05v.155z" />
      <path
         id="path271"
         d="M10.27 16.76v-.05h.045l.21-.569h.089l.21.569h.053v.05h-.26v-.05h.054l-.046-.127h-.21l-.046.127h.066v.05zm.164-.227h.172l-.085-.236z" />
      <path
         id="path273"
         d="M10.87 16.76v-.05h.074v-.512h-.153v.098h-.05v-.155h.551v.155h-.05v-.098h-.154v.512h.075v.05z" />
      <path
         id="path275"
         d="M11.53 16.72q.071 0 .106-.067.035-.066.035-.204 0-.137-.035-.204-.035-.067-.106-.067-.07 0-.106.068-.035.067-.035.203t.035.204q.035.067.106.067zm0 .05q-.14 0-.22-.085-.08-.086-.08-.236t.08-.235q.08-.086.22-.086t.22.086q.08.085.08.235 0 .15-.08.236-.08.085-.22.085z" />
      <path
         id="path277"
         d="M12.17 16.46q.033.005.056.024.023.02.04.056l.081.172h.057v.05h-.183l-.09-.187q-.025-.058-.043-.074-.018-.016-.05-.016h-.023v.227h.072v.05H11.8v-.05h.072v-.519H11.8v-.05h.318q.097 0 .15.044.053.043.053.123 0 .064-.038.102-.037.037-.113.048zm-.155-.024h.05q.052 0 .08-.032t.028-.09q0-.058-.028-.09t-.08-.03h-.05z" />
    </g>
    <path
       id="path281"
       fill="url(#j)"
       d="M11.23 26.8a9.888 9.888 0 01-1.098.543c.016.386.043.803.008 1.148a4.258 4.258 0 011.098-.254c-.056-.548-.062-.994-.008-1.438zm-.311.516c-.012.2.001.36.004.582-.19.033-.329.072-.471.109.006-.152-.002-.327-.005-.46.152-.069.325-.149.472-.231z"
       transform="translate(0 5.027) scale(.2646)" />
    <path
       id="path283"
       fill="url(#k)"
       d="M2.971 290a2.617 2.617 0 00-.29-.144c.004-.102.01-.212.002-.304.095.036.19.058.29.068a1.665 1.665 0 00-.002.38zm-.082-.136c-.003-.053 0-.096 0-.155-.05-.009-.086-.019-.124-.028.002.04 0 .086-.001.121.04.019.086.04.125.062z"
       transform="translate(0 -280.1)" />
    <path
       id="path285"
       fill="url(#l)"
       d="M13.94 292.2c.09.051.192.103.29.144-.004.102-.01.212-.002.304a1.127 1.127 0 00-.29-.068c.015-.144.016-.262.002-.38zm.082.136c.003.053 0 .096 0 .155.05.009.086.019.124.028-.002-.04 0-.086.001-.121a1.74 1.74 0 01-.125-.062z"
       transform="translate(0 -280.1)" />
    <path
       id="path287"
       fill="url(#m)"
       d="M13.94 290c.09-.051.192-.103.29-.144-.004-.102-.01-.212-.002-.304-.095.036-.19.058-.29.068.015.144.016.262.002.38zm.082-.136c.003-.053 0-.096 0-.155.05-.009.086-.019.124-.028-.002.04 0 .086.001.121-.04.019-.086.04-.125.062z"
       transform="translate(0 -280.1)" />
    <g
       id="g291"
       fill="#1da2ba">
      <path
         id="path289"
         d="M5.226 8.2c-.034.014-.074.009-.023-.036.087-.077.229-.208.327-.382.14-.248.14-.404.07-.575-.009-.023-.002-.028.01-.019.075.056.133.138.122.341-.015.313-.324.594-.506.67zM11.68 8.278c.034.014.074.009.023-.036a1.529 1.529 0 01-.327-.382c-.14-.248-.14-.404-.07-.575.009-.023.002-.028-.01-.019-.075.057-.133.138-.122.341.015.313.324.595.506.67zM6.595 6.5c.011-.035.018-.015.019.001a.878.878 0 01-.05.254.721.721 0 01-.097.223c-.02.033-.042.01-.033-.009.05-.112.075-.168.101-.256.026-.086.048-.175.06-.213zM10.32 6.5c-.011-.035-.018-.015-.019.001 0 .055.014.139.05.254.039.125.05.147.097.223.02.033.042.01.033-.009-.05-.112-.075-.168-.101-.256-.026-.086-.048-.175-.06-.213z" />
    </g>
  </g>
</svg>
