<?xml version="1.0" encoding="UTF-8" standalone="no"?>
<svg
   xmlns:dc="http://purl.org/dc/elements/1.1/"
   xmlns:cc="http://creativecommons.org/ns#"
   xmlns:rdf="http://www.w3.org/1999/02/22-rdf-syntax-ns#"
   xmlns:svg="http://www.w3.org/2000/svg"
   xmlns="http://www.w3.org/2000/svg"
   xmlns:xlink="http://www.w3.org/1999/xlink"
   xmlns:sodipodi="http://sodipodi.sourceforge.net/DTD/sodipodi-0.dtd"
   xmlns:inkscape="http://www.inkscape.org/namespaces/inkscape"
   width="64"
   height="45"
   viewBox="0 0 16.93 11.91"
   version="1.1"
   id="svg295"
   sodipodi:docname="azul_logo.svg"
   inkscape:version="1.0 (4035a4fb49, 2020-05-01)">
  <metadata
     id="metadata299">
    <rdf:RDF>
      <cc:Work
         rdf:about="">
        <dc:format>image/svg+xml</dc:format>
        <dc:type
           rdf:resource="http://purl.org/dc/dcmitype/StillImage" />
        <dc:title></dc:title>
      </cc:Work>
    </rdf:RDF>
  </metadata>
  <sodipodi:namedview
     inkscape:document-rotation="0"
     pagecolor="#ffffff"
     bordercolor="#666666"
     borderopacity="1"
     objecttolerance="10"
     gridtolerance="10"
     guidetolerance="10"
     inkscape:pageopacity="0"
     inkscape:pageshadow="2"
     inkscape:window-width="1920"
     inkscape:window-height="1080"
     id="namedview297"
     showgrid="false"
     inkscape:zoom="16"
     inkscape:cx="42.868866"
     inkscape:cy="23.0135"
     inkscape:window-x="0"
     inkscape:window-y="0"
     inkscape:window-maximized="0"
     inkscape:current-layer="g293" />
  <defs
     id="defs23">
    <linearGradient
       id="b">
      <stop
         stop-color="#207583"
         offset="0"
         id="stop2" />
      <stop
         stop-color="#6dc3c4"
         offset="1"
         id="stop4" />
    </linearGradient>
    <linearGradient
       id="a">
      <stop
         stop-color="#c66f32"
         offset="0"
         id="stop7" />
      <stop
         stop-color="#f1c784"
         offset="1"
         id="stop9" />
    </linearGradient>
    <linearGradient
       id="d"
       x1="8.045"
       x2="7.842"
       y1="288.2"
       y2="287.9"
       gradientTransform="matrix(0.95754507,0,0,0.95754507,0.84170934,-267.98209)"
       gradientUnits="userSpaceOnUse"
       xlink:href="#a" />
    <linearGradient
       id="e"
       x1="8.045"
       x2="7.842"
       y1="288.2"
       y2="287.9"
       gradientTransform="matrix(0.50950973,0,0,0.50950973,4.41431,-133.54276)"
       gradientUnits="userSpaceOnUse"
       xlink:href="#a" />
    <linearGradient
       id="c"
       x1="7.956"
       x2="7.956"
       y1="293.4"
       y2="293.2"
       gradientTransform="matrix(0.95754507,0,0,0.95754507,0.35910662,-267.98209)"
       gradientUnits="userSpaceOnUse"
       xlink:href="#b" />
    <linearGradient
       id="f"
       x1="9.331"
       x2="11.02"
       y1="310"
       y2="306.2"
       gradientTransform="translate(0,-280.1)"
       gradientUnits="userSpaceOnUse"
       xlink:href="#b" />
    <linearGradient
       id="g"
       x1="9.331"
       x2="11.02"
       y1="310"
       y2="306.2"
       gradientTransform="matrix(-0.2646,0,0,0.2646,16.91,-69.08)"
       gradientUnits="userSpaceOnUse"
       xlink:href="#b" />
    <linearGradient
       id="h"
       x1="9.331"
       x2="11.02"
       y1="310"
       y2="306.2"
       gradientTransform="matrix(0.2646,0,0,-0.2646,0,91.07)"
       gradientUnits="userSpaceOnUse"
       xlink:href="#b" />
    <linearGradient
       id="i"
       x1="9.331"
       x2="11.02"
       y1="310"
       y2="306.2"
       gradientTransform="matrix(-0.2646,0,0,-0.2646,16.9,91.07)"
       gradientUnits="userSpaceOnUse"
       xlink:href="#b" />
    <linearGradient
       gradientTransform="matrix(0.25336642,0,0,0.25336642,0.35910662,5.0398638)"
       id="j"
       x1="10.18"
       x2="11.16"
       y1="28.4"
       y2="26.79"
       gradientUnits="userSpaceOnUse"
       xlink:href="#b" />
    <linearGradient
       id="k"
       x1="10.18"
       x2="11.16"
       y1="28.4"
       y2="26.79"
       gradientTransform="matrix(0.25336643,0,0,-0.25336643,0.35910662,16.408796)"
       gradientUnits="userSpaceOnUse"
       xlink:href="#b" />
    <linearGradient
       id="l"
       x1="10.18"
       x2="11.16"
       y1="28.4"
       y2="26.79"
       gradientTransform="matrix(-0.25336643,0,0,0.25336643,16.551194,5.0140095)"
       gradientUnits="userSpaceOnUse"
       xlink:href="#b" />
    <linearGradient
       id="m"
       x1="10.18"
       x2="11.16"
       y1="28.4"
       y2="26.79"
       gradientTransform="matrix(-0.25336643,0,0,-0.25336643,16.551194,16.408796)"
       gradientUnits="userSpaceOnUse"
       xlink:href="#b" />
  </defs>
  <g
     transform="translate(0 -5.027)"
     id="g293">
    <path
       style="stroke-width:0.957545"
       d="M 8.1429905,5.5645985 A 1.0724505,1.0724505 0 0 0 8.0232973,5.9619797 C 8.0175521,6.0165598 7.9083919,6.0663522 7.834661,6.0960361 7.7216706,6.1400831 7.708265,6.1783849 7.6833688,6.148701 7.6642179,6.12572 7.718798,5.8662252 7.6728358,5.9169751 7.377912,6.2377527 6.9144602,6.6925866 6.8723282,6.6763084 6.8244509,6.6571575 6.8627527,6.4723513 6.8799885,6.3459553 6.9374412,6.190833 7.0322382,5.9284657 6.9881911,5.9399562 6.8656254,5.9753854 6.6568805,6.1554038 6.5745317,6.3354223 6.5323997,6.4273466 6.4950554,6.5901293 6.4241971,6.8094071 6.3667444,6.9884681 6.3045039,7.1751893 6.1867259,7.1972129 6.1311883,7.2067883 6.0842686,7.1301847 6.0660752,7.0574113 A 0.75933324,0.75933324 0 0 0 5.8649908,6.6992894 C 5.7989201,6.6341764 5.6380526,6.5882142 5.5135717,6.540337 5.3890909,6.4924597 5.2713128,6.4388372 5.1305537,6.4445825 4.9773465,6.4493702 4.9419173,6.5556577 4.9419173,6.6705631 c 0,0.1484195 0.1168205,0.1627827 0.170443,0.1551223 0.1120328,-0.016278 0.081391,-0.1340563 0.099585,-0.1742732 0.1675704,0.038302 0.2518344,0.095754 0.2930088,0.254707 a 0.29683897,0.29683897 0 0 0 -0.1436317,0.012448 c -0.1034149,0.041174 -0.1407592,0.1340563 -0.1407592,0.1340563 0,0 0.2001269,0.040217 0.2796032,0.1522496 C 5.5796423,7.316906 5.5863451,7.4777736 5.519317,7.624278 5.3776003,7.9306924 4.9581956,8.0762393 4.4382486,8.1222014 3.9297922,8.1681636 3.660722,7.9268622 3.4567649,7.7324806 3.3274963,7.6099148 3.29877,7.5179905 3.3590953,7.3925521 3.3859066,7.337972 3.3839915,7.2891372 3.3399444,7.2680712 3.246105,7.2259392 3.1704589,7.3255239 3.0928978,7.3724436 3.0498083,7.3532927 2.9933131,7.3647833 2.8726624,7.3513776 A 0.39259348,0.39259348 0 0 0 2.4848567,7.5553347 0.46919708,0.46919708 0 0 0 2.4312341,7.910584 c 0.026811,0.1149054 0.1560799,0.1790609 0.1560799,0.1790609 0,0 0,-0.3064144 0.2729003,-0.2690702 0.2250231,0.029684 0.1340563,0.180976 0.086179,0.2183203 -0.085221,0.065113 0.052665,0.1627827 -0.085221,0.1848062 -0.3112022,0.05075 -0.3734426,0.028726 -0.6128289,0.043089 -0.4749423,0.032557 -0.797635,0.115863 -0.818701,0.1225658 -0.1225658,0.038302 -0.093839,0.1819336 -0.00192,0.2029995 0.1551223,0.037344 0.3006692,0.061283 0.4596217,0.095754 0.00287,0.05458 -0.00192,0.2700278 -0.2700278,0.6482581 -0.2901361,0.4098292 -0.83689435,0.7957204 -0.85987543,0.8091254 -0.0172358,0.0096 -0.042132,0.03351 -0.042132,0.06511 l -0.009575,0.950842 c 0,0.06894 0.0373443,0.09576 0.0574527,0.109161 0.0306414,0.02107 0.0670282,0.04405 0.22119291,0.155122 0.15512232,0.111075 0.41844712,0.328438 0.68560222,0.641555 0.2384287,0.277688 0.2010845,0.626235 0.1972543,0.68656 -0.067028,0.01341 -0.3475889,0.09671 -0.4241925,0.113948 -0.05075,0.01149 -0.1244808,0.02298 -0.1273535,0.09384 -0.00575,0.137887 0.1962968,0.137887 0.3293955,0.15608 0.1503346,0.02107 0.2202354,0.08139 0.4845179,0.09288 0.2393862,0.01053 0.5553761,0.02777 0.6894324,0.03256 a 0.38014539,0.38014539 0 0 0 -0.070858,0.258538 c 0.00862,0.05266 0.2010844,-0.07948 0.2451315,-0.109161 a 0.66357873,0.66357873 0 0 0 -0.051707,0.325566 c 0.00958,0.197254 0.090009,0.325565 0.090009,0.325565 0,0 0.027769,-0.186721 0.1014998,-0.293966 0.1158629,-0.205872 0.26524,-0.227896 0.4624942,-0.250877 0.057453,-0.0067 0.1311837,-0.09671 0.2010845,-0.115863 0.072773,-0.02107 0.212575,-0.04788 0.2345986,-0.05075 0.057453,-0.0038 0.078519,-0.08235 0.15991,-0.08043 -0.014363,0.05649 -0.057453,0.08618 -0.067028,0.10533 -0.021066,0.04596 0.0067,0.122566 0.057453,0.126396 0.4519613,0.08714 0.8828566,-0.235556 1.2562992,-0.180018 a 0.45387636,0.45387636 0 0 1 0.2288532,0.09863 0.77752659,0.77752659 0 0 1 0.1273535,0.185764 c 0.037344,0.07469 0.083306,0.195339 0.095754,0.227895 0.019151,0.04788 0.069901,0.05745 0.099585,0.01628 0.045962,-0.0632 0.1043724,-0.26524 0.136929,-0.332268 0.039259,0.01341 0.00766,0 0.053622,0.02394 0.076604,0.0383 0.1532072,0.153207 0.2001269,0.407914 0.025854,0.138844 0.00192,0.31982 -0.057453,0.399297 -0.092882,0.12448 -0.1656553,0.143631 -0.2671551,0.143631 0,0 0.168528,0.188637 0.4739848,0 0.098627,-0.06128 0.2365137,-0.158952 0.2460891,-0.353334 0.011491,-0.234598 -0.0067,-0.389721 -0.0067,-0.389721 0,0 0.051707,0.03447 0.1417167,0.172359 0.067986,0.102457 0.09767,0.142674 0.170443,0.264282 0.031599,0.05171 0.091924,0.108203 0.1512921,0.103415 0.1149054,-0.01053 0.1091602,-0.06416 0.1579949,0.06224 0.057453,0.15225 0.1110753,0.226938 0.1924666,0.270028 0.1082026,0.05745 0.1484195,0.06224 0.2250231,0.139802 0.028726,0.03064 0.1168205,0.119693 0.1129903,0.198211 -0.00958,0.225023 -0.1876788,0.06416 -0.1876788,0.06416 -0.038302,0.229811 0.2566221,0.245131 0.3916359,0.07565 A 0.74880024,0.74880024 0 0 0 8.2569383,14.651701 C 8.2531082,14.4104 8.1286273,14.259108 8.0414907,14.153778 7.9955285,14.099198 7.952439,14.025467 7.8595571,13.929712 c -0.057453,-0.05937 -0.1053299,-0.106287 -0.087137,-0.12065 0.016278,-0.01341 0.1407592,0.10533 0.1867213,0.157037 a 0.64347028,0.64347028 0 0 0 0.086179,0.08139 c 0.028726,0.0383 0.096712,0.122566 0.1302261,0.09001 0.026811,-0.02681 0.063198,-0.02585 0.089052,0.01053 0.091924,0.177145 0.1129903,0.339928 0.1943816,0.339928 0.081391,0 0.1024574,-0.162783 0.1953392,-0.339928 0.024896,-0.03639 0.061283,-0.0383 0.089052,-0.01053 0.032557,0.03256 0.1014998,-0.05266 0.1292686,-0.09001 0,0 0.041175,-0.02968 0.086179,-0.08139 0.04692,-0.05171 0.1714005,-0.170443 0.1876788,-0.157037 0.017236,0.01436 -0.029684,0.06128 -0.087137,0.12065 -0.092882,0.09576 -0.1369289,0.169486 -0.1819336,0.224066 -0.088094,0.10533 -0.2116174,0.256622 -0.2154476,0.497923 a 0.7478427,0.7478427 0 0 0 0.1321412,0.429938 c 0.1340563,0.169485 0.4308953,0.154165 0.3916359,-0.07565 0,0 -0.1790609,0.160867 -0.1886363,-0.06416 -0.00287,-0.07852 0.084264,-0.16757 0.1139478,-0.198211 0.076604,-0.0766 0.115863,-0.08235 0.2250231,-0.139802 0.081391,-0.04309 0.1340563,-0.117778 0.191509,-0.270028 0.048835,-0.126396 0.044047,-0.07277 0.1589525,-0.06224 0.059368,0.0048 0.1196932,-0.05171 0.1512921,-0.103415 0.072774,-0.121608 0.1014998,-0.161825 0.1694862,-0.264282 0.09097,-0.137887 0.141716,-0.172359 0.141716,-0.172359 0,0 -0.01723,0.155123 -0.0067,0.389721 0.0096,0.194382 0.147462,0.291094 0.247046,0.353334 0.305457,0.188637 0.473027,0 0.473027,0 -0.101499,0 -0.173315,-0.01915 -0.267155,-0.143631 -0.05841,-0.07852 -0.08235,-0.259495 -0.05745,-0.399297 0.04788,-0.254707 0.123523,-0.369612 0.201084,-0.407914 0.04596,-0.02298 0.01436,-0.0096 0.05267,-0.02394 0.03351,0.06703 0.09192,0.26907 0.137887,0.332268 0.02873,0.04213 0.07948,0.0316 0.09863,-0.01628 0.01341,-0.03256 0.05937,-0.153207 0.09575,-0.227895 a 0.77848414,0.77848414 0 0 1 0.128311,-0.185764 0.45387636,0.45387636 0 0 1 0.227896,-0.09863 c 0.373443,-0.05554 0.804338,0.267155 1.257257,0.180018 0.04979,-0.0038 0.07756,-0.08043 0.05649,-0.126396 -0.0096,-0.01915 -0.05171,-0.04884 -0.06703,-0.10533 0.08139,-0.0019 0.103415,0.0766 0.160867,0.08043 0.02202,0.0019 0.161825,0.02968 0.234599,0.05075 0.0699,0.01915 0.143632,0.10916 0.201084,0.115863 0.197255,0.02298 0.345674,0.045 0.461537,0.250877 0.07469,0.107245 0.1015,0.294924 0.1015,0.294924 0,0 0.08043,-0.129269 0.09001,-0.325566 a 0.66357873,0.66357873 0 0 0 -0.05171,-0.326523 c 0.045,0.02968 0.237471,0.161826 0.246089,0.108203 a 0.38014539,0.38014539 0 0 0 -0.07086,-0.258537 c 0.134057,-0.0038 0.450047,-0.02011 0.689433,-0.0316 0.264282,-0.01149 0.333225,-0.07182 0.484518,-0.09288 0.132141,-0.01915 0.33514,-0.01819 0.328438,-0.15608 -0.0029,-0.07086 -0.0766,-0.08235 -0.127354,-0.09384 -0.0766,-0.01724 -0.357164,-0.100542 -0.424192,-0.114906 -0.0029,-0.05937 -0.04022,-0.406956 0.197254,-0.685602 a 4.0216893,4.0216893 0 0 1 0.685602,-0.641555 c 0.155122,-0.111075 0.191509,-0.134056 0.220236,-0.155122 0.02202,-0.01436 0.05937,-0.04022 0.05745,-0.109161 l -0.0077,-0.950842 c 0,-0.0316 -0.0249,-0.05554 -0.04309,-0.06511 -0.02298,-0.0134 -0.568781,-0.3992962 -0.859875,-0.8091254 -0.268113,-0.3782303 -0.2729,-0.593678 -0.268113,-0.6482581 0.157038,-0.034472 0.303542,-0.05841 0.458664,-0.095754 0.09097,-0.022024 0.120651,-0.1646977 -0.0029,-0.2029995 A 4.5291882,4.5291882 0 0 0 14.670575,8.2667907 c -0.239386,-0.014363 -0.301627,0.00766 -0.612829,-0.043089 -0.137886,-0.022024 0,-0.1196931 -0.08522,-0.1848062 -0.04788,-0.038302 -0.139802,-0.1886364 0.08618,-0.2183203 0.271943,-0.036387 0.271943,0.2690702 0.271943,0.2690702 0,0 0.129268,-0.065113 0.157037,-0.1790609 A 0.46919708,0.46919708 0 0 0 14.434062,7.5553347 0.39259348,0.39259348 0 0 0 14.046256,7.3513776 c -0.121608,0.013406 -0.177146,0.00192 -0.220236,0.021066 -0.07756,-0.047877 -0.153207,-0.1465044 -0.247046,-0.1034148 -0.045,0.019151 -0.04692,0.068943 -0.01915,0.1244808 0.06033,0.1244809 0.03064,0.2164052 -0.09767,0.338971 -0.203957,0.1943816 -0.473027,0.435683 -0.982441,0.3906784 -0.518989,-0.04692 -0.938394,-0.1915091 -1.080111,-0.498881 a 0.42323492,0.42323492 0 0 1 0.01915,-0.4194048 c 0.07948,-0.1120327 0.279603,-0.1522496 0.279603,-0.1522496 0,0 -0.0383,-0.092882 -0.141716,-0.1340563 a 0.29683897,0.29683897 0 0 0 -0.143632,-0.012448 c 0.04213,-0.1589525 0.126396,-0.2164052 0.293009,-0.254707 0.01915,0.040217 -0.01245,0.1579949 0.100542,0.1742732 0.05362,0.00766 0.169485,-0.0067 0.169485,-0.1551223 0,-0.1149054 -0.03543,-0.2202354 -0.188636,-0.2259806 -0.139802,-0.00575 -0.258537,0.047877 -0.383018,0.095754 -0.124481,0.047877 -0.284391,0.093839 -0.350462,0.1589524 a 0.75933324,0.75933324 0 0 0 -0.201084,0.3581219 c -0.01915,0.072773 -0.06607,0.149377 -0.121608,0.1398016 C 10.614414,7.1751893 10.552174,6.9884681 10.494721,6.8094071 10.423863,6.5891718 10.385561,6.4263891 10.344387,6.3354223 10.262038,6.1554038 10.053293,5.9753854 9.9297696,5.9399562 9.88668,5.9284657 9.981477,6.190833 10.037972,6.3459553 c 0.01724,0.126396 0.05649,0.3121597 0.0077,0.3303531 C 10.003501,6.6916291 9.5410063,6.2377527 9.2460824,5.9169751 9.2001202,5.8662252 9.2547003,6.12572 9.2345918,6.148701 9.2096957,6.1774274 9.19629,6.1400831 9.0842573,6.0950785 9.0105263,6.0663522 8.9013662,6.0165598 8.8956209,5.9610222 A 1.0714929,1.0714929 0 0 0 8.7759278,5.5645985 C 8.6820883,5.4008583 8.5882489,5.33 8.4599379,5.33 8.3306693,5.33 8.2358723,5.4008583 8.1429905,5.5645985 Z"
       fill="#d5702c"
       id="path25" />
    <path
       style="stroke-width:0.957545"
       d="m 8.2061884,5.6277965 c -0.095754,0.1666129 -0.067028,0.4893055 -0.067028,0.4893055 0,0 -0.2278957,0.063198 -0.4404707,0.1800185 -0.21066,0.1168205 -0.4644094,0.3629096 -0.4644094,0.3629096 0,0 0.085222,-0.1187356 0.1426742,-0.2106599 0.057453,-0.090967 0.1828911,-0.2709853 0.1828911,-0.2709853 0,0 -0.2977965,0.338971 -0.648258,0.593678 -0.087137,0.067028 -0.1570374,0.099585 -0.1761883,0.077561 -0.020108,-0.022024 -0.020108,-0.092882 -0.018193,-0.2173627 0.00192,-0.1244809 0.1206506,-0.4768575 0.1206506,-0.4768575 0,0 -0.038302,0.00958 -0.076604,0.033514 C 6.721036,6.211899 6.7018851,6.2559461 6.6654984,6.3631911 6.6291117,6.4704362 6.3495086,7.2221091 6.2920559,7.3389296 6.2346032,7.45575 6.1627873,7.4155332 6.1158676,7.3705285 6.0679903,7.3245664 5.8803115,6.8659023 5.7692363,6.7548271 5.658161,6.6437518 5.3680249,6.5163983 5.1056575,6.5116106 c -0.096712,-0.00192 -0.1005422,0.076604 -0.095754,0.1340563 0.00287,0.057453 0.05841,0.115863 0.1101177,0.093839 0.085221,-0.035429 0,-0.088094 0.041174,-0.1292685 0.045962,-0.045962 0.1924666,-0.00766 0.3207776,0.1129903 0.096712,0.090967 0.1781034,0.3399285 0.1781034,0.3399285 0,0 -0.068943,-0.035429 -0.128311,-0.05075 -0.059368,-0.016278 -0.168528,-0.00192 -0.168528,-0.00192 0,0 0.4194048,0.3121597 0.2633249,0.6511306 C 5.4704822,7.9996356 4.988837,8.2237012 4.4573995,8.2706209 3.9240469,8.3184982 3.532411,8.0101686 3.3485623,7.7726975 3.1647137,7.5342687 3.3188784,7.3561654 3.3188784,7.3561654 c 0,0 -0.1110752,0 -0.1627826,0.047877 -0.05075,0.047877 -0.033514,0.1244809 -0.033514,0.1244809 0,0 -0.078519,-0.063198 -0.2298108,-0.076604 C 2.7424364,7.4375563 2.6198706,7.4768153 2.543267,7.6472585 2.465706,7.8177015 2.49539,7.9536729 2.49539,7.9536729 c 0,0 0.065113,-0.1484195 0.2393862,-0.2508768 0.1742732,-0.1034149 0.3303531,-0.042132 0.360037,0.041174 0.029684,0.083306 0.1273535,0.3858907 0.1273535,0.3858907 0,0 -0.067028,-0.00383 -0.1168205,0.012448 -0.049792,0.015321 -0.036387,0.033514 -0.00479,0.078519 0.032557,0.045962 0.028726,0.089052 0.028726,0.089052 0,0 -0.3983387,0.014363 -0.871366,0.045962 -0.4730273,0.031599 -0.7784841,0.068943 -0.7784841,0.068943 0,0 -0.015321,0.083306 0,0.089052 0.016278,0.0067 0.055538,0.0067 0.202042,0.025854 0.1465044,0.019151 0.2949238,0.061283 0.2949238,0.061283 0,0 0.044047,0.4059992 -0.2585371,0.8330643 C 1.4143213,9.8620608 0.8110679,10.204862 0.8110679,10.204862 v 1.018828 c 0,0 0.3389709,0.09288 0.9383942,0.823489 0.2709852,0.329395 0.2298108,0.787102 0.2298108,0.787102 0,0 -0.456749,0.09192 -0.5362253,0.10916 -0.078519,0.01819 -0.063198,0.06703 -0.039259,0.07469 0.023939,0.0077 0.4806876,0.05458 0.7516729,0.07373 0.2700277,0.02011 0.9498847,0.045 0.9498847,0.045 0,0 -0.04309,0.04309 -0.073731,0.07948 -0.030641,0.03543 -0.067028,0.143632 -0.067028,0.143632 0,0 0.053622,-0.04979 0.090009,-0.0766 0.074688,-0.05458 0.1158629,-0.06033 0.1158629,-0.06033 0,0 -0.089052,0.09767 -0.128311,0.217363 -0.036387,0.108202 -9.575e-4,0.21832 -9.575e-4,0.21832 0,0 0.1053299,-0.20683 0.2049146,-0.246089 0.098627,-0.0383 0.2681126,-0.0249 0.3811029,-0.0316 0.1120328,-0.0067 0.2642825,-0.155122 0.3609945,-0.162783 0.096712,-0.0086 0.3447163,0 0.3447163,0 0,0 -0.042132,0.04788 -0.063198,0.0766 -0.020109,0.02873 -0.045005,0.09863 -0.045005,0.09863 0,0 0.1359714,-0.06703 0.1924665,-0.07565 0.057453,-0.0077 0.1043724,-0.0038 0.2202354,-0.05171 0.117778,-0.04788 0.2355561,-0.05171 0.4835602,-0.05937 0.2489618,-0.0067 0.5151593,0.06415 0.6109138,0.157037 0.095754,0.09288 0.2010845,0.354292 0.2010845,0.354292 0,0 0.016278,-0.0383 0.044047,-0.138844 0.028726,-0.09958 -0.00192,-0.208745 -0.00192,-0.212575 0,-0.0038 0.1168205,0.03064 0.2250231,0.08522 0.1072451,0.05362 0.2164052,0.231726 0.2556646,0.499839 0.038302,0.267155 -0.1273535,0.528565 -0.1273535,0.528565 0,0 0.2997116,-0.193424 0.3332257,-0.424193 C 6.6961352,13.826284 6.6128282,13.7267 6.5237767,13.57062 6.4347247,13.413582 6.2355556,13.260375 6.2355556,13.260375 c 0,0 0.3447162,0.138844 0.4596216,0.225023 0.1149054,0.08618 0.2374712,0.255665 0.3064145,0.430896 0.067986,0.173315 0.1139478,0.309287 0.149377,0.314074 0.024896,0.0029 0.044047,0.0019 0.072773,-0.06128 0.028726,-0.0632 0.024896,-0.14842 0.1034149,-0.122566 0.077561,0.02585 0.1014998,0.152249 0.1541647,0.293966 0.052665,0.140759 0.1177781,0.184806 0.1848062,0.201085 0.067028,0.01723 0.2192778,0.04692 0.2901362,0.16757 0.071816,0.120651 -0.00862,0.389721 -0.00862,0.389721 0,0 0.1972543,-0.07373 0.191509,-0.418447 C 8.1343726,14.451574 8.057769,14.344329 7.9715899,14.240914 7.8854108,14.1375 7.611553,13.848321 7.5023928,13.783208 c -0.107245,-0.06511 -0.1675704,-0.127354 -0.138844,-0.175231 0.028726,-0.04788 0.1034149,-0.0249 0.2154476,-0.0057 0.1129903,0.01915 0.1522497,0.100542 0.26524,0.165655 0.1149054,0.06511 0.2489617,0.247047 0.2489617,0.247047 0,0 0.032557,-0.102458 0.086179,-0.08905 0.053623,0.01245 0.095754,0.118736 0.1359714,0.196297 0.090967,0.174273 0.1436317,0.232683 0.1436317,0.232683 0,0 0.04692,-0.04596 0.1417167,-0.232683 0.040217,-0.07756 0.083306,-0.183849 0.136929,-0.196297 0.053622,-0.01341 0.086179,0.08905 0.086179,0.08905 0,0 0.1340563,-0.181934 0.2489617,-0.247047 0.1129903,-0.06511 0.1512922,-0.147462 0.2642825,-0.165655 0.1129903,-0.01915 0.1867213,-0.04309 0.2154476,0.0057 0.028726,0.04788 -0.031599,0.110118 -0.138844,0.175231 -0.1082026,0.06511 -0.3830181,0.354292 -0.4691971,0.457706 -0.086179,0.103415 -0.1627827,0.21066 -0.1666128,0.440471 -0.00575,0.343759 0.191509,0.41749 0.191509,0.41749 0,0 -0.080434,-0.268113 -0.00958,-0.389721 0.071816,-0.120651 0.223108,-0.150335 0.2901362,-0.16757 0.067028,-0.01628 0.1330987,-0.06033 0.1848062,-0.201085 0.052665,-0.141717 0.076604,-0.268113 0.1551223,-0.293966 0.077561,-0.02585 0.073731,0.05937 0.1024573,0.122566 0.028726,0.0632 0.047877,0.06416 0.073731,0.06128 0.035429,-0.0048 0.080434,-0.140759 0.149377,-0.315032 0.067986,-0.174273 0.1915082,-0.344716 0.3064142,-0.430895 0.113948,-0.08618 0.459621,-0.224066 0.459621,-0.224066 0,0 -0.199169,0.153207 -0.288221,0.310245 -0.08905,0.15608 -0.172358,0.254707 -0.138844,0.485475 0.03351,0.230769 0.333226,0.424193 0.333226,0.424193 0,0 -0.164698,-0.26141 -0.126396,-0.528565 0.0383,-0.268113 0.147462,-0.446216 0.255665,-0.499839 0.107245,-0.05458 0.224065,-0.08905 0.224065,-0.08618 0,0.0048 -0.02873,0.113948 -0.0019,0.213533 0.02873,0.09958 0.04405,0.139801 0.04405,0.139801 0,0 0.10533,-0.262367 0.201085,-0.355249 0.09575,-0.09288 0.362909,-0.162783 0.610913,-0.157037 0.248962,0.0077 0.36674,0.01245 0.483561,0.05937 0.11682,0.04788 0.16374,0.04405 0.220235,0.05171 0.05745,0.0077 0.193424,0.07565 0.193424,0.07565 0,0 -0.0249,-0.07086 -0.04596,-0.09959 -0.02107,-0.02873 -0.0632,-0.07469 -0.0632,-0.07469 0,0 0.248962,-0.0096 0.344716,-9.58e-4 0.09767,0.0077 0.248962,0.15608 0.361952,0.162783 0.112991,0.0067 0.281518,-0.0067 0.381103,0.0316 0.09863,0.0383 0.204915,0.246089 0.204915,0.246089 0,0 0.03447,-0.110118 -9.58e-4,-0.21832 -0.03926,-0.119693 -0.129268,-0.217363 -0.129268,-0.217363 0,0 0.04117,0.0057 0.115863,0.06033 0.03734,0.02681 0.09001,0.0766 0.09001,0.0766 0,0 -0.03639,-0.108203 -0.06703,-0.143632 -0.03064,-0.03639 -0.07277,-0.07948 -0.07277,-0.07948 0,0 0.679857,-0.0249 0.949885,-0.045 0.270028,-0.01915 0.727734,-0.06607 0.750715,-0.07373 0.02394,-0.0077 0.04022,-0.05649 -0.0383,-0.07469 l -0.536226,-0.10916 c 0,0 -0.04213,-0.458664 0.228854,-0.787102 0.599423,-0.730607 0.938394,-0.823489 0.938394,-0.823489 v -1.018828 c 0,0 -0.603254,-0.3428012 -0.905838,-0.7698663 C 14.896573,9.0069741 14.94062,8.6019325 14.94062,8.6019325 c 0,0 0.147462,-0.042132 0.293966,-0.06224 0.146505,-0.019151 0.186722,-0.019151 0.202042,-0.025854 0.01628,-0.00575 0,-0.089052 0,-0.089052 0,0 -0.304499,-0.037344 -0.777526,-0.068943 -0.473028,-0.031599 -0.871366,-0.045962 -0.871366,-0.045962 0,0 -0.0038,-0.04309 0.02777,-0.089052 0.0316,-0.045005 0.04596,-0.063198 -0.0038,-0.078519 -0.04979,-0.016278 -0.11682,-0.012448 -0.11682,-0.012448 0,0 0.09671,-0.3025843 0.126396,-0.3858907 0.02968,-0.083306 0.186721,-0.1436317 0.360037,-0.041174 0.174273,0.1024573 0.239386,0.2508768 0.239386,0.2508768 0,0 0.03064,-0.1359714 -0.04692,-0.3064144 -0.0766,-0.1704431 -0.200127,-0.21066 -0.350461,-0.1962968 a 0.45483391,0.45483391 0 0 0 -0.229811,0.077561 c 0,0 0.01819,-0.076604 -0.03351,-0.1244809 -0.05171,-0.047877 -0.162783,-0.047877 -0.162783,-0.047877 0,0 0.155122,0.1781033 -0.02873,0.4155745 -0.184806,0.2374712 -0.576442,0.5458007 -1.108837,0.498881 -0.532395,-0.047877 -1.013083,-0.2709853 -1.17012,-0.6089987 -0.15608,-0.3389709 0.263324,-0.6511306 0.263324,-0.6511306 0,0 -0.108202,-0.014363 -0.16757,0.00192 a 0.77752659,0.77752659 0 0 0 -0.129269,0.05075 c 0,0 0.08139,-0.2489617 0.178104,-0.3399285 0.128311,-0.1206507 0.274815,-0.1589525 0.320777,-0.1129903 0.04213,0.041174 -0.04309,0.093839 0.04213,0.1292685 0.05171,0.022024 0.106288,-0.036387 0.110118,-0.093839 0.0038,-0.057453 0,-0.1359714 -0.09575,-0.1340563 -0.263325,0.00479 -0.553461,0.1321412 -0.663579,0.2432165 C 11.036743,6.8659088 10.848106,7.3245729 10.801187,7.370535 10.753307,7.41554 10.682451,7.455757 10.624998,7.338936 10.567548,7.2221155 10.286027,6.469485 10.251556,6.36224 c -0.03639,-0.1062875 -0.05649,-0.1503346 -0.09576,-0.1733157 -0.03926,-0.023939 -0.0766,-0.033514 -0.0766,-0.033514 0,0 0.117778,0.3523766 0.119693,0.4768575 0.0019,0.1244808 0.0019,0.1953392 -0.01724,0.2173627 -0.01915,0.022024 -0.08905,-0.00958 -0.176188,-0.076604 -0.3505069,-0.2556706 -0.6492609,-0.593684 -0.6492609,-0.593684 0,0 0.1263959,0.1790609 0.1838486,0.2700277 0.057453,0.091924 0.1426742,0.2106599 0.1426742,0.2106599 0,0 -0.2537494,-0.2460891 -0.4653669,-0.3629096 C 9.0057386,6.1803 8.7778429,6.117102 8.7778429,6.117102 c 0,0 0.027769,-0.3226926 -0.067028,-0.4883479 C 8.6227206,5.4736318 8.5355839,5.437245 8.4580228,5.437245 c -0.076604,0 -0.1637402,0.036387 -0.2518344,0.1915091 z"
       fill="#052830"
       id="path27" />
    <path
       style="stroke-width:0.957545"
       d="m 8.3201363,6.881223 c 0,0 -0.5314375,0.069901 -0.9853139,0.6568759 -0.3370558,0.435683 -0.138844,1.2189549 -0.138844,1.2189549 0,0 -0.1723581,-0.022023 -0.2709853,-0.1273535 -0.074688,-0.079476 -0.1398015,-0.2278957 -0.1398015,-0.2278957 0,0 -0.1091602,0.024896 -0.2451316,0.1618251 -0.1158629,0.1168205 -0.1675704,0.2278957 -0.1675704,0.2278957 0,0 -0.057453,-0.064156 -0.057453,-0.2010844 0,-0.136929 0.082349,-0.2614099 0.082349,-0.2614099 0,0 -0.078519,0.022024 -0.1972543,0.030641 -0.1062875,0.00766 -0.1627826,0 -0.1627826,0 l -0.1589523,0.211618 c 0,0 0.040217,0.040217 0.040217,0.091924 0,0.052665 -0.067028,0.067028 -0.1082026,0.067028 h -3.388752 c 0,0 -0.05458,0.3044994 -0.3868482,0.871366 C 1.7015848,10.16656 1.280265,10.502658 1.280265,10.502658 v 0.424193 c 0,0 0.2843909,0.231726 0.6348524,0.714329 0.3447162,0.47973 0.5103715,1.066705 0.5103715,1.066705 h 2.4704663 c 0.3389709,0 0.3715274,-0.01915 0.5553761,-0.0316 0.2250231,-0.01628 0.4624943,0 0.5419705,0.09097 0.078519,0.09097 -0.031599,0.174273 -0.031599,0.174273 0,0 0.1771458,0.04405 0.3753577,0.04405 0.1503346,0 0.4002538,0 0.637725,0.03064 0.2374712,0.03256 0.3447162,0.07182 0.4826027,0.06416 a 0.78710204,0.78710204 0 0 1 0.3878058,0.07086 c 0.1340563,0.05937 0.2259806,0.08235 0.3447162,0.197254 0.1187356,0.114906 0.26524,0.285349 0.26524,0.285349 0,0 0.1474619,-0.170443 0.2661975,-0.285349 0.1187356,-0.114905 0.2087448,-0.137886 0.3437587,-0.197254 a 0.78710204,0.78710204 0 0 1 0.3878057,-0.07086 c 0.1388441,0.0077 0.2451316,-0.0316 0.4826027,-0.06416 0.2374712,-0.0316 0.4873902,-0.03064 0.6377252,-0.03064 0.198212,0 0.376315,-0.04405 0.376315,-0.04405 0,0 -0.111075,-0.08331 -0.03256,-0.174273 0.07948,-0.09097 0.316947,-0.107246 0.542928,-0.09097 0.182891,0.01245 0.215447,0.03256 0.554418,0.03256 l 2.470466,-9.57e-4 c 0,0 0.165656,-0.586975 0.510372,-1.066705 0.350461,-0.482603 0.634852,-0.714329 0.634852,-0.714329 v -0.424193 c 0,0 -0.421319,-0.33514 -0.754545,-0.902007 C 14.543222,9.0356994 14.488642,8.729285 14.488642,8.729285 h -3.38971 c -0.04022,0 -0.107245,-0.013406 -0.107245,-0.066071 0,-0.051707 0.04022,-0.091924 0.04022,-0.091924 L 10.872954,8.36063 c 0,0 -0.05649,0.0067 -0.162782,-9.575e-4 -0.118736,-0.00958 -0.197254,-0.030641 -0.197254,-0.030641 0,0 0.08235,0.1244809 0.08235,0.2623674 0,0.1359714 -0.05745,0.2010845 -0.05745,0.2010845 0,0 -0.05075,-0.1120328 -0.167571,-0.2298109 C 10.234276,8.4267011 10.125116,8.401805 10.125116,8.401805 c 0,0 -0.06511,0.1484195 -0.1398018,0.2278957 -0.09767,0.10533 -0.2709853,0.1273535 -0.2709853,0.1273535 0,0 0.1982119,-0.7832719 -0.138844,-1.2189549 C 9.120644,6.9511238 8.590164,6.881223 8.590164,6.881223 c 0,0 -0.019151,0.059368 0.019151,0.1225658 0.040217,0.063198 0.2183203,0.2575796 0.2183203,0.340886 0,0.083306 -0.047877,0.2298108 -0.047877,0.2298108 0,0 0.1139479,-0.031599 0.1886364,0.00766 0.075646,0.040217 0.136929,0.1340563 0.1962968,0.1656553 a 0.53622524,0.53622524 0 0 0 0.1742732,0.05458 c 0.055538,0.00479 0.05075,0.072773 -0.00766,0.075646 A 0.28726352,0.28726352 0 0 0 9.156074,7.9383519 c -0.069901,0.042132 -0.1388441,0.1292685 -0.2173628,0.1455468 -0.090967,0.018193 -0.1551223,0.013406 -0.1551223,0.013406 0,0 0.063198,0.1244809 0.026811,0.2460891 -0.037344,0.1273535 -0.1072451,0.168528 -0.1685279,0.2681126 -0.057453,0.090967 -0.057453,0.147462 -0.076604,0.1857638 -0.035429,0.069901 -0.1895939,0.071816 -0.2202353,0 C 8.3297118,8.7570538 8.3258816,8.7024737 8.2693864,8.6115069 8.2081035,8.5119223 8.1382027,8.4707478 8.1008585,8.3433943 8.0644718,8.2217861 8.1276698,8.0973052 8.1276698,8.0973052 c 0,0 -0.064156,0.00479 -0.1551224,-0.013406 C 7.8940288,8.0685789 7.8250855,7.9804847 7.7551847,7.9383528 A 0.28726352,0.28726352 0 0 0 7.579954,7.8780274 c -0.05841,-0.00287 -0.063198,-0.070858 -0.00766,-0.075646 a 0.53622524,0.53622524 0 0 0 0.1752308,-0.05458 C 7.8068928,7.7162024 7.8672179,7.622363 7.942864,7.5821461 c 0.074688,-0.039259 0.1886363,-0.00766 0.1886363,-0.00766 0,0 -0.047877,-0.1465044 -0.047877,-0.2298108 0,-0.083306 0.1781034,-0.277688 0.2173627,-0.340886 0.040217,-0.063198 0.020108,-0.1225658 0.020108,-0.1225658 z"
       fill="#fbf4ec"
       id="path29" />
    <path
       style="stroke-width:0.957545"
       d="m 8.4675982,12.770125 c -0.095754,0.117778 -0.1982118,0.234599 -0.3131172,0.347589 0.1129903,0.132141 0.2106599,0.270028 0.3064144,0.407914 0.095754,-0.143632 0.200127,-0.278645 0.3131173,-0.407914 A 4.4908864,4.4908864 0 0 1 8.4675982,12.770125 Z"
       fill="#154b75"
       id="path31" />
    <path
       style="fill:url(#c);stroke-width:0.957545"
       d="m 7.5186711,12.818002 c 0,0 0.2106599,0.04405 0.2451315,0.0766 0.036387,0.03447 -0.00192,0.09192 -0.00192,0.09192 0,0 0.1436318,-0.03256 0.2834334,-0.05554 0.2767305,-0.04501 0.5783572,-0.02873 0.829234,0 0.1407591,0.01628 0.2834333,0.05554 0.2834333,0.05554 0,0 -0.038302,-0.05745 -0.00287,-0.09097 0.036387,-0.03351 0.2460891,-0.07756 0.2460891,-0.07756 z"
       fill="url(#c)"
       id="path33" />
    <path
       style="stroke-width:0.957545"
       d="m 11.457054,9.3555195 h 0.871366 l -0.270028,0.2575796 v 2.0108449 l 0.855088,0.0029 0.02681,-0.587932 0.08331,0.0029 c 0.10533,0.251835 0.248004,0.454834 0.410787,0.710499 l -0.0632,0.126396 -1.949562,-0.01341 0.278645,-0.322693 V 9.5910755 Z"
       fill="#ffffff"
       id="path35" />
    <path
       style="stroke-width:0.957545"
       d="m 11.390026,9.3229629 0.726776,-0.011491 0.04596,0.036387 -0.198212,0.1972543 v 2.0462738 h 0.434725 c 0.507499,0 0.549631,-0.515159 0.549631,-0.515159 l 0.09192,0.0019 c 0.109161,0.260452 0.143632,0.301627 0.293009,0.574527 l -0.09288,0.15991 h -1.960094 l -0.04788,-0.03639 0.400254,-0.266197 V 9.558519 Z"
       fill="#092631"
       id="path37" />
    <path
       style="stroke-width:0.957545"
       d="m 11.409177,11.716826 1.878703,0.02681 -0.05554,0.09575 -1.994567,0.0057 z m -2.5049382,-2.2808728 0.8876443,-0.098627 0.086179,0.079476 -0.191509,0.1886364 v 1.5856944 c 0,0.143632 0.064156,0.414617 0.4845179,0.414617 0.419405,0 0.361952,-0.148419 0.361952,-0.42515 V 9.6964055 l -0.274815,-0.2537494 0.786144,-0.065113 0.111075,0.073731 -0.26141,0.2106599 c 0,0 -0.0067,1.005422 -0.0067,1.510048 0,0.699008 -0.51899,0.742098 -0.9087106,0.743055 -0.2326835,0 -0.4682396,-0.03639 -0.6386826,-0.22981 C 9.1934174,11.519571 9.1464977,11.343383 9.1464977,11.093464 V 9.6782121 Z"
       fill="#ffffff"
       id="path39" />
    <path
       style="stroke-width:0.957545"
       d="M 8.9990358,9.388076 9.7631567,9.380416 9.8119917,9.426378 9.615695,9.607354 v 1.398016 c 0,0.143631 0.00287,0.589847 0.478772,0.589847 0.4759,0 0.533353,-0.185763 0.533353,-0.462494 V 9.6485283 L 10.353004,9.3947788 h 0.648258 l 0.0766,0.05075 -0.255664,0.2049146 v 1.4746196 c 0,0.561121 -0.331311,0.789974 -0.748801,0.79189 -0.2326831,0 -0.5467579,-0.01724 -0.7181585,-0.209703 C 9.2087381,11.541595 9.2403371,11.295506 9.2403371,11.046544 V 9.6312924 Z M 3.5506043,11.81258 3.5075153,11.75991 c 0,0 0.3475889,-0.21066 0.5027112,-0.539098 0.1675704,-0.355249 0.679857,-1.70443 0.679857,-1.70443 L 4.4583571,9.2741281 H 5.3661098 L 5.3900484,9.293279 5.1813036,9.5250049 5.9205284,11.456373 6.3284426,11.82024 5.2234356,11.81258 5.4810152,11.567449 4.8203091,9.6715093 c 0,0 -0.4940933,1.2936437 -0.5486733,1.5943127 -0.05075,0.280561 0.3025842,0.546758 0.3025842,0.546758 z"
       fill="#092631"
       id="path41" />
    <path
       style="stroke-width:0.957545"
       d="m 3.5464921,11.760993 c 0,0 0.2725038,-0.213791 0.4158566,-0.5306 C 4.1251314,10.870356 4.6785924,9.5384106 4.6785924,9.5384106 L 4.4478241,9.335411 5.3354683,9.3172177 5.1123603,9.558519 l 0.764121,2.02425 0.296839,0.206346 H 5.1832187 l 9.575e-4,-0.04452 0.3064144,-0.15991 L 4.797328,9.6935329 c 0,0 -0.4931357,1.2926861 -0.5754846,1.5866521 -0.075646,0.267155 0.2293321,0.50893 0.2293321,0.50893 H 3.5708061 Z"
       fill="#fefcf9"
       id="path43"
       sodipodi:nodetypes="cccccccccccccccc" />
    <path
       style="stroke-width:0.957545"
       d="m 3.9594761,10.404989 c 0,0 0.065113,-0.103415 0.091924,-0.157995 0.025854,-0.05267 0.067028,-0.16374 0.067028,-0.16374 0,0 0.2049146,0.177146 0.4471735,0.415574 0.1895939,0.186722 0.3035418,0.381103 0.3035418,0.381103 0,0 0.1455468,-0.11299 0.3609945,-0.289178 0.2489617,-0.201085 0.191509,-0.128311 0.3686548,-0.250877 0.1216083,-0.08522 0.157995,-0.143632 0.157995,-0.143632 0,0 0.022024,0.117778 0.081391,0.237471 0.043089,0.08618 0.149377,0.260452 0.149377,0.260452 0,0 -0.3973812,-0.103414 -0.6779419,0.114906 -0.2566221,0.201084 -0.4682395,0.519947 -0.4682395,0.519947 0,0 -0.168528,-0.26907 -0.3514191,-0.465367 A 3.6693127,3.6693127 0 0 0 3.9594761,10.404031 Z"
       fill="#092631"
       id="path45" />
    <path
       style="stroke-width:0.957545"
       d="m 3.9326648,10.472017 c 0,0 0.019151,-0.02777 0.069901,-0.137886 0.047877,-0.10533 0.091924,-0.215448 0.091924,-0.215448 0,0 0.2393863,0.195339 0.4596217,0.434725 0.15991,0.174274 0.3102446,0.390679 0.3102446,0.390679 0,0 0.149377,-0.189594 0.361952,-0.363867 0.244174,-0.201085 0.1867213,-0.129269 0.3600369,-0.251835 0.1196932,-0.08426 0.1110753,-0.111075 0.1110753,-0.111075 0,0 0.031599,0.103415 0.067028,0.186721 0.035429,0.08426 0.1512921,0.234599 0.1512921,0.234599 0,0 -0.3897208,-0.05937 -0.5400554,0.08522 -0.233641,0.223108 -0.5314375,0.627192 -0.5314375,0.627192 0,0 -0.1675704,-0.303541 -0.3341832,-0.497923 C 4.2840839,10.586922 3.9326648,10.472017 3.9326648,10.472017 Z"
       fill="#fefcf9"
       id="path47" />
    <path
       style="stroke-width:0.957545"
       d="M 4.4190977,11.716826 H 3.4730432 c 0,0 0.340886,-0.145547 0.532395,-0.557292 C 4.1672634,10.809073 4.6460359,9.5029814 4.6460359,9.5029814 L 4.435376,9.2837036 h 0.8857292 l -0.2097024,0.2278957 0.753588,1.9955237 0.2700277,0.209703 H 5.2004545 L 5.4532464,11.495633 4.7638139,9.6542735 c 0,0 -0.4816451,1.2687475 -0.5649516,1.5560105 -0.073731,0.259495 0.2202354,0.506542 0.2202354,0.506542 z"
       fill="#eca636"
       id="path49" />
    <path
       style="stroke-width:0.957545"
       d="m 3.9556459,10.472017 c 0,0 0.00287,-0.04405 0.049792,-0.146504 0.047877,-0.103415 0.075646,-0.174274 0.075646,-0.174274 0,0 0.1991694,0.15225 0.4194047,0.384934 0.1589525,0.169485 0.3121597,0.401211 0.3121597,0.401211 0,0 0.1666129,-0.237471 0.3782303,-0.407914 0.2422589,-0.196297 0.1857638,-0.125439 0.3581219,-0.244174 0.1196931,-0.08235 0.1560798,-0.139802 0.1560798,-0.139802 0,0 0.00766,0.09863 0.047877,0.197254 0.033514,0.08235 0.093839,0.180019 0.093839,0.180019 0,0 -0.2661975,-0.04405 -0.5036687,0.16757 -0.2384287,0.212575 -0.5333526,0.589848 -0.5333526,0.589848 0,0 -0.1656553,-0.295881 -0.3322681,-0.485475 -0.2259796,-0.258537 -0.521861,-0.322693 -0.521861,-0.322693 z"
       fill="#eca636"
       id="path51" />
    <g
       transform="matrix(0.95754507,0,0,0.95754507,0.35910662,0.22628479)"
       fill="#092631"
       id="g57">
      <path
         d="m 4.164,12.01 h -0.97 c 0,0 0.35,-0.15 0.545,-0.577 C 3.905,11.071 4.396,9.72 4.396,9.72 L 4.181,9.494 h 0.91 L 4.875,9.729 5.648,11.793 5.926,12.01 H 4.966 L 5.226,11.781 4.518,9.876 c 0,0 -0.494,1.312 -0.58,1.61 -0.076,0.268 0.226,0.523 0.226,0.523 z"
         id="path53" />
      <path
         d="m 3.675,10.72 c 0,0 0.048,-0.052 0.096,-0.159 0.048,-0.106 0.071,-0.165 0.071,-0.165 0,0 0.18,0.128 0.406,0.369 0.164,0.175 0.32,0.414 0.32,0.414 0,0 0.172,-0.245 0.389,-0.421 0.25,-0.203 0.191,-0.13 0.369,-0.253 0.122,-0.085 0.16,-0.144 0.16,-0.144 0,0 0.012,0.12 0.048,0.203 0.036,0.086 0.097,0.187 0.097,0.187 0,0 -0.273,-0.046 -0.517,0.174 -0.245,0.219 -0.547,0.61 -0.547,0.61 0,0 -0.171,-0.306 -0.342,-0.503 A 0.983,0.983 0 0 0 3.675,10.72 Z M 6.484,9.5 h 2.041 l 0.052,0.048 -1.615,2.4 0.546,0.004 c 0.145,10e-4 0.446,-0.076 0.579,-0.224 0.138,-0.152 0.222,-0.387 0.222,-0.387 h 0.066 c 0.108,0.235 0.193,0.38 0.357,0.617 l -0.1,0.157 -2.26,0.023 L 6.352,12.1 7.995,9.758 h -0.66 c -0.46,0 -0.572,0.424 -0.572,0.424 0,0 -0.132,-0.285 -0.215,-0.437 C 6.506,9.666 6.483,9.499 6.483,9.499 Z"
         id="path55" />
    </g>
    <path
       style="stroke-width:0.957545"
       d="M 8.6275083,9.3229629 7.1069267,11.608623 h 0.5084564 a 0.62910711,0.62910711 0 0 0 0.4586641,-0.182891 c 0.1311837,-0.143632 0.2326835,-0.37057 0.2326835,-0.37057 0.1244808,0.239386 0.2537494,0.440471 0.3600369,0.597508 l -0.079476,0.122566 -2.1391557,-0.01053 0.1876788,-0.259495 0.4452585,0.02873 1.4746194,-2.2109711 z m -0.627192,0.033514 -0.1225658,0.2087448 -0.5716544,0.00958 c -0.4404707,0.00862 -0.5151593,0.3657822 -0.5151593,0.3657822 0,0 -0.093839,-0.149377 -0.1723581,-0.2930088 a 2.0424436,2.0424436 0 0 1 -0.09767,-0.2891786 z"
       fill="#f9fdfe"
       id="path59" />
    <path
       style="stroke-width:0.957545"
       d="M 6.4969705,9.3229629 H 8.5509047 L 7.0370259,11.59043 h 0.6176166 a 0.63389483,0.63389483 0 0 0 0.4624943,-0.184807 c 0.1330987,-0.145546 0.1714005,-0.293008 0.1714005,-0.293008 0,0 0.053622,0.143631 0.1675704,0.342801 0.086179,0.148419 0.180976,0.293009 0.180976,0.293009 H 6.4759045 L 7.9849955,9.4876607 H 7.346313 c -0.4443009,0 -0.551546,0.404084 -0.551546,0.404084 0,0 -0.1292686,-0.2719428 -0.2077873,-0.4165321 C 6.5448478,9.3995665 6.496013,9.3229629 6.496013,9.3229629 Z"
       fill="#eca636"
       id="path61" />
    <path
       style="stroke-width:0.957545"
       d="M 6.4050462,9.3210478 H 8.440787 L 6.9412714,11.562661 H 7.5531427 A 0.62910711,0.62910711 0 0 0 8.0108493,11.37977 c 0.1321412,-0.143632 0.170443,-0.289179 0.170443,-0.289179 0,0 0.034472,0.120651 0.191509,0.400254 0.071816,0.128311 0.1398016,0.227896 0.1398016,0.227896 H 6.3849377 L 7.8806231,9.4838305 H 7.2486434 c -0.4404708,0 -0.5477158,0.3992963 -0.5477158,0.3992963 0,0 -0.1263959,-0.2681126 -0.2058722,-0.4117444 -0.040217,-0.073731 -0.090009,-0.149377 -0.090009,-0.149377 z"
       fill="#092631"
       id="path63" />
    <path
       style="stroke-width:0.957545"
       d="m 8.9042388,9.4359532 0.5113291,-0.098627 0.087137,0.079476 -0.1924666,0.1886364 0.244174,1.5952704 c 0.037344,0.242259 0.1962967,0.404084 0.6166587,0.404084 0.419405,0 0.361952,-0.14842 0.361952,-0.42515 V 9.6964055 L 10.258208,9.4426561 h 0.718158 l -0.318862,0.256622 c 0,0 0.0699,0.9814839 0.0699,1.4736619 0,0.574527 -0.335141,0.697093 -0.7488006,0.69805 -0.2326835,0 -0.4902631,-0.01628 -0.6607061,-0.208744 C 9.1780967,11.505208 9.1455402,11.344341 9.1455402,11.094421 V 9.6782121 Z"
       fill="#ffffff"
       id="path65" />
    <path
       style="stroke-width:0.957545"
       d="M 8.9952056,9.3229629 H 9.8311424 L 9.5678175,9.5661794 v 1.5368596 c 0,0.146505 0.015321,0.53431 0.4634515,0.53431 0.448131,0 0.533353,-0.264282 0.533353,-0.5458 V 9.5872454 L 10.328108,9.3411563 h 0.78806 l -0.357164,0.288221 v 1.4554687 c 0,0.679857 -0.329396,0.705711 -0.748801,0.707626 C 9.4864262,11.783854 9.2374645,11.604793 9.2374645,11.00537 V 9.569052 Z"
       fill="#eca636"
       id="path67" />
    <path
       style="stroke-width:0.957545"
       d="M 8.8563615,9.3172177 H 9.7277276 L 9.4644027,9.5566039 v 1.5157941 c 0,0.143632 0.01149,0.52665 0.4883479,0.52665 0.4768574,0 0.5323954,-0.26141 0.5323954,-0.537183 V 9.5776699 L 10.21033,9.3229629 h 0.787102 L 10.679527,9.579585 v 1.473662 c 0,0.200127 -0.02873,0.411744 -0.173315,0.529522 -0.166613,0.135014 -0.341844,0.168528 -0.5745273,0.168528 -0.233641,0 -0.4691971,0.0077 -0.6396401,-0.184806 C 9.1455402,11.400836 9.0986204,11.224647 9.0986204,10.974728 V 9.5594766 Z"
       fill="#092631"
       id="path69" />
    <path
       style="stroke-width:0.957545"
       d="m 11.38045,9.3229629 0.812956,0.00287 -0.285348,0.2604522 v 2.0050989 h 0.481645 c 0.507499,0 0.558249,-0.560164 0.558249,-0.560164 0,0 0.08522,0.252792 0.17523,0.41749 0.119693,0.21832 0.172358,0.278646 0.172358,0.278646 l -0.02202,0.0383 H 11.338321 L 11.62367,11.510949 V 9.5594766 Z"
       fill="#eca636"
       id="path71" />
    <path
       style="stroke-width:0.957545"
       d="m 11.208092,9.3239205 h 0.871366 l -0.270027,0.2575796 v 2.0108449 h 0.407914 c 0.507499,0 0.565909,-0.567824 0.565909,-0.567824 0,0 0.09001,0.258537 0.180976,0.424192 0.118735,0.21832 0.176188,0.271943 0.176188,0.271943 h -1.943816 l 0.254707,-0.209703 V 9.5594766 Z"
       fill="#092631"
       id="path73" />
    <path
       style="stroke-width:0.957545"
       d="m 8.4570653,6.2262622 c 0,0 -0.8091256,0.2029995 -1.8145479,0.9594601 -0.6607061,0.4969659 -1.359714,1.2792802 -1.359714,1.2792802 H 1.7877639 c 0,0 0.069901,0.059368 0.1570374,0.085222 0.086179,0.024896 0.1934241,0.022981 0.1934241,0.022981 0,0 -0.080434,0.4347255 -0.3734426,0.902965 C 1.3061187,10.205819 0.91256767,10.388711 0.91256767,10.388711 v 0.672196 c 0,0 0.35429163,0.244174 0.69900793,0.685602 0.3638671,0.465367 0.5046262,1.127989 0.5046262,1.127989 l -0.1656553,0.01436 c -0.095754,0.0077 -0.212575,0.08618 -0.212575,0.08618 0,0 3.4280114,-0.0019 3.4959971,0 0.083306,0.0038 0.128311,0.12065 0.4328103,0.204914 0.191509,0.05362 0.827319,0.04788 0.9364791,0.07373 0.089052,0.01915 0.086179,0.07852 0.149377,0.113948 0.038302,0.02107 0.5544186,0.0019 0.753588,0.03064 0.2049146,0.02968 0.2834333,0.211617 0.3542917,0.281518 0.085221,0.08618 0.2480041,0.143632 0.2480041,0.143632 0,0 0.05458,-0.03064 0.1129904,-0.0383 a 0.33705586,0.33705586 0 0 1 0.1350138,0.0077 L 8.45515,14.065721 8.55282,13.79282 c 0,0 0.05458,-0.01724 0.1350138,-0.0067 0.059368,0.0067 0.1149054,0.0383 0.1149054,0.0383 0,0 0.1627827,-0.05937 0.2489617,-0.144589 0.068943,-0.0699 0.147462,-0.251834 0.3523766,-0.281518 0.1991694,-0.02873 0.7143285,-0.0096 0.7535875,-0.03064 0.0632,-0.03543 0.06128,-0.09384 0.149377,-0.114905 0.10916,-0.0249 0.74497,-0.01915 0.936479,-0.07277 0.303542,-0.08426 0.349504,-0.201084 0.431853,-0.203957 0.0699,-0.0029 3.49887,0 3.49887,0 0,0 -0.116821,-0.07948 -0.212575,-0.08714 -0.09576,-0.0096 -0.164698,-0.01436 -0.164698,-0.01436 0,0 0.138844,-0.662622 0.503669,-1.127989 0.344716,-0.442385 0.699008,-0.685602 0.699008,-0.685602 v -0.672196 c 0,0 -0.394509,-0.182892 -0.852215,-0.9125409 -0.293009,-0.4682395 -0.373443,-0.902965 -0.373443,-0.902965 0,0 0.106288,0.00192 0.193424,-0.022981 0.08618,-0.025854 0.157038,-0.086179 0.157038,-0.086179 h -3.49504 c 0,0 -0.69805,-0.7813568 -1.358756,-1.2783227 C 9.2652333,6.4292617 8.4561077,6.2262622 8.4561077,6.2262622 Z m 0,0.3504615 c 0.068943,0 0.6137863,-0.032557 1.6833637,0.6654938 0.909668,0.5936779 1.297474,1.3443933 1.297474,1.3443933 h 3.136918 c 0,0 0.104372,0.5266498 0.453876,1.0801108 0.379188,0.5994234 0.721989,0.7756114 0.721989,0.7756114 v 0.5774 c 0,0 -0.356207,0.226938 -0.716244,0.785187 -0.371527,0.576442 -0.453876,1.07245 -0.453876,1.07245 h -3.202988 c 0,0 0.07277,0.04788 0.07277,0.0766 0,0.02873 -0.203957,0.141716 -0.68273,0.16757 -0.619531,0.03351 -0.642512,0.139802 -0.8646627,0.15991 -0.3255653,0.02968 -0.6022958,0.03639 -0.7478427,0.03639 -0.4404707,0 -0.6990079,0.489305 -0.6990079,0.489305 0,0 -0.2614098,-0.489305 -0.700923,-0.489305 -0.1455468,0 -0.4213198,-0.0067 -0.7468851,-0.03639 C 6.7861461,13.26134 6.7622075,13.155054 6.1436334,13.12154 5.6648608,13.09569 5.4599462,12.981739 5.4599462,12.95397 c 0,-0.02777 0.072773,-0.0766 0.072773,-0.0766 H 2.3316495 c 0,0 -0.082349,-0.496008 -0.4529189,-1.07245 C 1.5186937,11.246671 1.1615294,11.019733 1.1615294,11.019733 v -0.5774 c 0,0 0.3428011,-0.176188 0.721989,-0.7756114 A 3.5457894,3.5457894 0 0 0 2.3373947,8.5866108 h 3.1388328 c 0,0 0.2719428,-0.6654938 1.2974735,-1.3443933 C 7.8001893,6.563318 8.388122,6.5767237 8.4570653,6.5767237 Z"
       fill="#1a9dd4"
       id="path75" />
    <ellipse
       style="stroke-width:0.957545"
       cx="8.4541931"
       cy="5.8240933"
       rx="0.16948548"
       ry="0.31790495"
       fill="#219dbd"
       id="ellipse77" />
    <path
       style="stroke-width:0.957545"
       d="M 8.3201363,6.7720629 A 1.9610523,1.9610523 0 0 0 7.3654639,7.178062 C 7.0341533,7.4423444 6.954677,7.6568345 6.6291117,7.9345226 6.4127065,8.1183712 6.2614144,8.1873145 6.2614144,8.1873145 c 0,0 0.051707,0.028726 0.1532072,0.00383 0.1005423,-0.024896 0.1781034,-0.061283 0.1781034,-0.061283 0,0 -0.010533,0.1206507 -0.033514,0.1819335 -0.022024,0.061283 -0.064156,0.136929 -0.064156,0.136929 0,0 0.1235233,-0.081391 0.191509,-0.1436318 0.070858,-0.064156 0.1503346,-0.1024573 0.1503346,-0.1024573 0,0 -0.00958,0.084264 0.035429,0.1723581 0.059368,0.1120328 0.1694854,0.1800185 0.1694854,0.1800185 0,0 -0.170443,-0.4433434 -0.0067,-0.8091256 C 7.188318,7.4059577 7.4545156,7.1857223 7.7015622,7.051666 8.0271275,6.8754777 8.3057731,6.8189826 8.3258816,6.8113222 c 0.043089,-0.017236 0.014363,-0.036387 -0.00575,-0.039259 z"
       fill="#1a9dd4"
       id="path79" />
    <path
       style="stroke-width:0.957545"
       d="m 8.4082305,7.0842226 c 0,0.041174 0.00958,0.037344 0.00766,0.080434 -0.00383,0.076604 -0.2049146,0.1532073 -0.2049146,0.3112022 0,0.117778 0.1005422,0.2221505 0.1005422,0.2221505 0,0 -0.061283,-0.039259 -0.1723581,-0.039259 -0.1407591,0 -0.2116175,0.1694855 -0.2796032,0.1694855 -0.053623,0 -0.063198,0.022981 -0.063198,0.041174 0,0.019151 0.014363,0.036387 0.063198,0.036387 0.073731,0 0.1388441,0.1503346 0.2690702,0.1503346 a 0.62240429,0.62240429 0 0 0 0.1828911,-0.033514 c 0,0 -0.086179,0.089052 -0.086179,0.223108 0,0.1340563 0.1867213,0.2049147 0.1867213,0.3236503 0,0.045962 -0.00287,0.086179 0.047877,0.086179 0.049792,0 0.04692,-0.040217 0.04692,-0.086179 0,-0.1187356 0.1857637,-0.1905515 0.1857637,-0.3236503 0,-0.1330987 -0.085222,-0.223108 -0.085222,-0.223108 0,0 0.091924,0.033514 0.1819336,0.033514 0.1321412,0 0.1962967,-0.1503346 0.2700277,-0.1503346 0.047877,0 0.063198,-0.017236 0.063198,-0.036387 0,-0.018193 -0.00958,-0.041174 -0.063198,-0.041174 -0.067986,0 -0.138844,-0.1694855 -0.2796032,-0.1694855 -0.1110752,0 -0.1723581,0.039259 -0.1723581,0.039259 0,0 0.1005423,-0.1043725 0.1005423,-0.2221505 0,-0.1589525 -0.2010845,-0.233641 -0.2039571,-0.3112022 -0.00287,-0.043089 0.0067,-0.039259 0.0067,-0.080434 0,-0.028726 -0.028726,-0.041175 -0.05075,-0.041175 -0.022023,0 -0.051707,0.012448 -0.051707,0.041175 z"
       fill="#1f95ca"
       id="path81" />
    <path
       style="stroke-width:0.957545"
       d="m 8.5959093,6.7720629 c 0.013406,-0.00192 0.509414,0.051707 0.9546724,0.4059991 0.3313106,0.2642824 0.4107869,0.4787725 0.7363523,0.7564606 0.216405,0.1838486 0.367697,0.2527919 0.367697,0.2527919 0,0 -0.05171,0.028726 -0.153207,0.00383 -0.09958,-0.024896 -0.178103,-0.061283 -0.178103,-0.061283 0,0 0.01053,0.1206507 0.03351,0.1819335 0.02202,0.061283 0.06415,0.136929 0.06415,0.136929 0,0 -0.123523,-0.081391 -0.191509,-0.1436318 -0.07086,-0.064156 -0.150334,-0.1024573 -0.150334,-0.1024573 0,0 0.0096,0.084264 -0.03543,0.1723581 -0.059367,0.1120328 -0.169485,0.1800185 -0.169485,0.1800185 0,0 0.170443,-0.4433434 0.0067,-0.8091256 A 1.4956854,1.4956854 0 0 0 9.2144834,7.051666 C 8.8889181,6.8754777 8.6102725,6.8189826 8.590164,6.8113222 8.547075,6.7940862 8.575801,6.7749352 8.595914,6.7720632 Z"
       fill="#1a9dd4"
       id="path83" />
    <g
       transform="matrix(0.95754507,0,0,0.95754507,0.35910662,0.22628479)"
       fill="#68cbfc"
       id="g87">
      <path
         d="M 8.39,8.11 C 8.338,8.137 8.323,8.18 8.32,8.281 8.317,8.378 8.39,8.561 8.46,8.561 8.53,8.561 8.603,8.378 8.6,8.281 8.597,8.179 8.58,8.141 8.53,8.11 8.48,8.078 8.428,8.09 8.39,8.11 Z M 8.322,7.638 c 0.003,0.102 0.02,0.141 0.07,0.172 0.045,0.028 0.1,0.027 0.14,0 0.048,-0.033 0.066,-0.07 0.07,-0.172 0.003,-0.096 -0.06,-0.28 -0.14,-0.28 -0.08,0 -0.143,0.184 -0.14,0.28 z M 8.166,7.864 C 8.09,7.861 7.946,7.918 7.946,7.974 7.946,8.028 8.09,8.085 8.166,8.083 8.245,8.08 8.276,8.067 8.299,8.027 8.321,7.991 8.309,7.947 8.299,7.919 8.286,7.875 8.245,7.866 8.166,7.864 Z m 0.558,0 C 8.644,7.866 8.614,7.879 8.589,7.919 8.568,7.955 8.581,8 8.589,8.027 8.603,8.071 8.644,8.08 8.724,8.083 8.799,8.085 8.943,8.028 8.943,7.973 8.943,7.918 8.799,7.861 8.723,7.863 Z"
         id="path85" />
    </g>
    <circle
       style="fill:url(#d);stroke-width:0.957545"
       cx="8.4484472"
       cy="7.7908907"
       r="0.15416476"
       fill="url(#d)"
       id="circle89" />
    <g
       transform="matrix(0.95754507,0,0,0.95754507,0.35910662,0.22628479)"
       fill="#052739"
       id="g97">
      <path
         d="m 2.414,10.06 c -0.064,0.022 -0.136,0.215 -0.349,0.42 -0.21,0.203 -0.346,0.245 -0.47,0.344 -0.091,0.073 -0.086,0.183 0,0.244 0.13,0.09 0.26,0.14 0.47,0.344 0.243,0.234 0.303,0.452 0.376,0.418 0.04,-0.018 0.023,-0.16 -0.037,-0.384 -0.06,-0.223 -0.11,-0.27 -0.11,-0.27 0,0 0.092,-0.014 0.218,-0.067 0.21,-0.089 0.22,-0.137 0.22,-0.163 0,-0.026 -0.009,-0.074 -0.22,-0.163 -0.126,-0.053 -0.217,-0.067 -0.217,-0.067 0,0 0.05,-0.047 0.11,-0.27 0.06,-0.224 0.076,-0.367 0.036,-0.385 A 0.036,0.036 0 0 0 2.414,10.06 Z M 14.49,10 c 0.064,0.022 0.136,0.215 0.349,0.42 0.21,0.203 0.346,0.245 0.47,0.344 0.091,0.073 0.086,0.184 0,0.244 -0.13,0.091 -0.26,0.14 -0.47,0.344 -0.243,0.235 -0.303,0.452 -0.376,0.419 -0.04,-0.019 -0.023,-0.162 0.037,-0.385 0.06,-0.223 0.11,-0.27 0.11,-0.27 0,0 -0.092,-0.014 -0.218,-0.067 -0.21,-0.089 -0.22,-0.137 -0.22,-0.163 0,-0.026 0.009,-0.074 0.22,-0.163 0.126,-0.053 0.217,-0.067 0.217,-0.067 0,0 -0.05,-0.047 -0.11,-0.27 -0.06,-0.223 -0.076,-0.366 -0.036,-0.384 A 0.037,0.037 0 0 1 14.49,10 Z"
         id="path91" />
      <circle
         transform="translate(0,-280.1)"
         cx="1.244"
         cy="291"
         r="0.118"
         id="circle93" />
      <circle
         transform="translate(0,-280.1)"
         cx="15.66"
         cy="291"
         r="0.118"
         id="circle95" />
    </g>
    <circle
       style="stroke-width:0.957545"
       cx="14.645679"
       cy="10.663526"
       r="0.15703739"
       fill="#ffc882"
       id="circle99" />
    <circle
       style="stroke-width:0.957545"
       cx="2.2569609"
       cy="10.663526"
       r="0.15703739"
       fill="#ffc882"
       id="circle101" />
    <path
       style="stroke-width:0.957545"
       d="M 6.4950554,7.5993818 C 5.8822266,8.123159 5.7271043,8.369248 5.6955053,8.4468092 5.6610337,8.5291581 5.8535002,8.5837381 5.9061652,8.5147949 5.9569151,8.4487243 6.199174,8.0743242 6.6913522,7.5601225 7.177785,7.0526236 7.7886988,6.7816383 7.7886988,6.7816383 c 0,0 -0.6204892,0.2164052 -1.2936434,0.8177435 z m 3.9374256,0.05458 c 0.612829,0.5237771 0.767951,0.7698662 0.79955,0.8474274 0.03447,0.082349 -0.157995,0.1369289 -0.21066,0.067986 C 10.970621,8.5033044 10.72932,8.1289042 10.236184,7.6147025 9.7497511,7.1072036 9.1388373,6.8362184 9.1388373,6.8362184 c 0,0 0.6204892,0.2164052 1.2936437,0.8177434 z"
       fill="#1e94cc"
       id="path103" />
    <g
       transform="matrix(0.95754507,0,0,0.95754507,0.35910662,0.22628479)"
       fill="#0f5680"
       id="g189">
      <circle
         transform="translate(0,-280.1)"
         cx="6.678"
         cy="288.29999"
         r="0.07"
         id="circle105" />
      <circle
         transform="translate(0,-280.1)"
         cx="6.7820001"
         cy="288.10001"
         r="0.057"
         id="circle107" />
      <circle
         transform="translate(0,-280.1)"
         cx="6.901"
         cy="287.89999"
         r="0.043000001"
         id="circle109" />
      <circle
         transform="scale(-1,1)"
         cx="-10.24"
         cy="8.2049999"
         r="0.07"
         id="circle111" />
      <circle
         transform="scale(-1,1)"
         cx="-10.14"
         cy="8.0019999"
         r="0.057"
         id="circle113" />
      <circle
         transform="scale(-1,1)"
         cx="-10.02"
         cy="7.822"
         r="0.043000001"
         id="circle115" />
      <circle
         cx="8.0710001"
         cy="13.98"
         r="0.07"
         id="circle117" />
      <circle
         cx="7.8600001"
         cy="13.83"
         r="0.056000002"
         id="circle119" />
      <circle
         transform="scale(-1,1)"
         cx="-8.8540001"
         cy="13.98"
         r="0.07"
         id="circle121" />
      <circle
         transform="scale(-1,1)"
         cx="-9.0649996"
         cy="13.83"
         r="0.056000002"
         id="circle123" />
      <circle
         cx="8.165"
         cy="6.526"
         r="0.07"
         id="circle125" />
      <circle
         cx="7.954"
         cy="6.586"
         r="0.059"
         id="circle127" />
      <circle
         cx="7.77"
         cy="6.6539998"
         r="0.043000001"
         id="circle129" />
      <circle
         cx="7.6069999"
         cy="6.7160001"
         r="0.033"
         id="circle131" />
      <circle
         cx="7.4650002"
         cy="6.7810001"
         r="0.025"
         id="circle133" />
      <circle
         transform="scale(-1,1)"
         cx="-8.7419996"
         cy="6.526"
         r="0.07"
         id="circle135" />
      <circle
         transform="scale(-1,1)"
         cx="-8.9540005"
         cy="6.586"
         r="0.059"
         id="circle137" />
      <circle
         transform="scale(-1,1)"
         cx="-9.1379995"
         cy="6.6539998"
         r="0.043000001"
         id="circle139" />
      <circle
         transform="scale(-1,1)"
         cx="-9.3000002"
         cy="6.7160001"
         r="0.033"
         id="circle141" />
      <circle
         transform="scale(-1,1)"
         cx="-9.4429998"
         cy="6.7810001"
         r="0.025"
         id="circle143" />
      <circle
         cx="0.72899997"
         cy="10.7"
         r="0.059999999"
         id="circle145" />
      <circle
         cx="0.72500002"
         cy="10.96"
         r="0.071999997"
         id="circle147" />
      <circle
         cx="0.87400001"
         cy="10.52"
         r="0.057"
         id="circle149" />
      <circle
         cx="1.043"
         cy="10.38"
         r="0.048"
         id="circle151" />
      <circle
         cx="1.179"
         cy="10.25"
         r="0.039999999"
         id="circle153" />
      <circle
         cx="1.29"
         cy="10.11"
         r="0.028999999"
         id="circle155" />
      <circle
         transform="scale(1,-1)"
         cx="0.72899997"
         cy="-11.22"
         r="0.059999999"
         id="circle157" />
      <circle
         transform="scale(1,-1)"
         cx="0.861"
         cy="-11.41"
         r="0.057"
         id="circle159" />
      <circle
         transform="scale(1,-1)"
         cx="1.025"
         cy="-11.55"
         r="0.048"
         id="circle161" />
      <circle
         transform="scale(1,-1)"
         cx="1.173"
         cy="-11.69"
         r="0.039999999"
         id="circle163" />
      <circle
         transform="scale(1,-1)"
         cx="1.2819999"
         cy="-11.81"
         r="0.028999999"
         id="circle165" />
      <circle
         transform="scale(-1,1)"
         cx="-16.18"
         cy="10.7"
         r="0.059999999"
         id="circle167" />
      <circle
         transform="scale(-1,1)"
         cx="-16.190001"
         cy="10.96"
         r="0.071999997"
         id="circle169" />
      <circle
         transform="scale(-1,1)"
         cx="-16.040001"
         cy="10.52"
         r="0.057"
         id="circle171" />
      <circle
         transform="scale(-1,1)"
         cx="-15.87"
         cy="10.38"
         r="0.048"
         id="circle173" />
      <circle
         transform="scale(-1,1)"
         cx="-15.73"
         cy="10.25"
         r="0.039999999"
         id="circle175" />
      <circle
         transform="scale(-1,1)"
         cx="-15.62"
         cy="10.11"
         r="0.028999999"
         id="circle177" />
      <circle
         transform="scale(-1)"
         cx="-16.18"
         cy="-11.22"
         r="0.059999999"
         id="circle179" />
      <circle
         transform="scale(-1)"
         cx="-16.049999"
         cy="-11.41"
         r="0.057"
         id="circle181" />
      <circle
         transform="scale(-1)"
         cx="-15.89"
         cy="-11.55"
         r="0.048"
         id="circle183" />
      <circle
         transform="scale(-1)"
         cx="-15.74"
         cy="-11.69"
         r="0.039999999"
         id="circle185" />
      <circle
         transform="scale(-1)"
         cx="-15.63"
         cy="-11.81"
         r="0.028999999"
         id="circle187" />
    </g>
    <path
       style="stroke-width:0.957545"
       d="m 8.4647256,12.86588 c -0.076604,0.09384 -0.1570374,0.185763 -0.2470466,0.274815 0.088094,0.10533 0.1656553,0.213533 0.2422589,0.322693 0.075646,-0.112991 0.1570374,-0.220236 0.2470466,-0.322693 A 3.5323838,3.5323838 0 0 1 8.4647256,12.86588 Z"
       fill="#004486"
       id="path191" />
    <path
       style="stroke-width:0.957545"
       d="m 8.4647256,12.942483 c -0.067028,0.08235 -0.1378865,0.162783 -0.2183203,0.242259 0.078519,0.09192 0.1465044,0.187679 0.2144901,0.283434 0.066071,-0.09863 0.1388441,-0.193425 0.2173628,-0.283434 A 3.1369176,3.1369176 0 0 1 8.4647256,12.942483 Z"
       fill="#278dd4"
       id="path193" />
    <path
       style="stroke-width:0.957545"
       d="m 8.4589803,13.057389 c -0.082349,0 -0.1216082,0.07277 -0.1216082,0.143631 0,0.08235 0.072773,0.14076 0.1187356,0.14076 0.045962,0 0.126396,-0.04884 0.126396,-0.136929 0,-0.0699 -0.041175,-0.147462 -0.1235234,-0.147462 z"
       fill="#6fcbf1"
       id="path195" />
    <circle
       style="fill:url(#e);stroke-width:0.957545"
       cx="8.4608955"
       cy="13.20102"
       r="0.082348876"
       fill="url(#e)"
       id="circle197" />
    <g
       transform="matrix(0.95754507,0,0,0.95754507,0.35910662,0.22628479)"
       color="#000"
       id="g207">
      <path
         style="fill:url(#f)"
         transform="matrix(0.2646,0,0,0.2646,0,5.027)"
         d="m 6.426,24.64 c 1.228,1.611 2.119,3.034 2.832,4.557 l -0.023,0.598 a 0.175,0.175 0 0 0 0.228,0.17 l 0.621,-0.186 c 3.087,-0.062 6.931,-0.156 10.18,-0.227 -2.824,-0.336 -5.754,-0.921 -8.578,-1.367 a 0.175,0.175 0 0 0 -0.154,0.06 C 11.1,28.734 10.355,28.943 10.085,28.754 9.815,28.564 9.719,28.243 9.724,27.941 9.728,27.64 9.819,27.389 9.819,27.389 A 0.176,0.176 0 0 0 9.737,27.182 C 8.388,26.453 7.371,25.484 6.427,24.641 Z m 1.666,1.795 c 0,0 0.748,0.597 1.371,0.973 -0.228,0.718 0.025,1.252 0.332,1.564 l -0.223,0.093 a 20.755,20.755 0 0 0 -1.48,-2.63 z m 3.615,2.109 5.312,0.83 -6.898,0.057 -0.02,-0.295 c 0.462,0.107 1.221,-0.214 1.605,-0.592 z m -1.863,0.693 c 0,0 0.025,0.134 0.027,0.243 L 9.596,29.564 9.584,29.337 Z"
         fill="url(#f)"
         id="path199" />
      <path
         style="fill:url(#g)"
         d="m 15.21,11.55 a 6.48,6.48 0 0 0 -0.75,1.206 l 0.007,0.158 c 0,0.032 -0.03,0.055 -0.06,0.045 L 14.242,12.91 c -0.817,-0.016 -1.834,-0.041 -2.693,-0.06 0.747,-0.089 1.522,-0.244 2.27,-0.362 a 0.046,0.046 0 0 1 0.041,0.016 c 0.114,0.13 0.311,0.185 0.383,0.135 0.071,-0.05 0.097,-0.135 0.095,-0.215 0,-0.08 -0.025,-0.146 -0.025,-0.146 a 0.047,0.047 0 0 1 0.022,-0.055 c 0.357,-0.193 0.626,-0.45 0.876,-0.673 z m -0.44,0.475 c 0,0 -0.199,0.158 -0.364,0.257 a 0.395,0.395 0 0 1 -0.087,0.414 l 0.058,0.025 c 0.117,-0.241 0.21,-0.417 0.392,-0.696 z m -0.957,0.558 -1.406,0.22 1.825,0.015 0.005,-0.078 c -0.122,0.028 -0.323,-0.057 -0.425,-0.157 z m 0.493,0.183 c 0,0 -0.007,0.036 -0.007,0.065 l 0.072,0.022 0.003,-0.06 z"
         fill="url(#g)"
         id="path201" />
      <path
         style="fill:url(#h)"
         d="M 1.7,10.45 A 6.48,6.48 0 0 0 2.45,9.244 L 2.443,9.086 c 0,-0.032 0.03,-0.055 0.06,-0.045 L 2.668,9.09 C 3.485,9.106 4.502,9.131 5.361,9.15 4.614,9.239 3.839,9.394 3.091,9.512 A 0.046,0.046 0 0 1 3.05,9.496 C 2.936,9.366 2.739,9.311 2.667,9.361 2.596,9.411 2.57,9.496 2.572,9.576 c 0,0.08 0.025,0.146 0.025,0.146 A 0.047,0.047 0 0 1 2.575,9.777 C 2.218,9.97 1.949,10.227 1.699,10.45 Z M 2.14,9.975 c 0,0 0.199,-0.158 0.364,-0.257 A 0.395,0.395 0 0 1 2.591,9.304 L 2.533,9.279 C 2.416,9.52 2.323,9.696 2.141,9.975 Z M 3.097,9.417 4.503,9.197 2.678,9.182 2.673,9.26 C 2.795,9.232 2.996,9.317 3.098,9.417 Z M 2.604,9.234 c 0,0 0.007,-0.036 0.008,-0.065 L 2.539,9.147 2.536,9.207 Z"
         fill="url(#h)"
         id="path203" />
      <path
         style="fill:url(#i)"
         d="M 15.2,10.45 A 6.48,6.48 0 0 1 14.45,9.244 L 14.457,9.086 A 0.046,0.046 0 0 0 14.397,9.041 L 14.232,9.09 c -0.817,0.016 -1.834,0.041 -2.693,0.06 0.747,0.089 1.522,0.244 2.27,0.362 A 0.046,0.046 0 0 0 13.85,9.496 c 0.114,-0.13 0.311,-0.185 0.383,-0.135 0.071,0.05 0.097,0.135 0.095,0.215 0,0.08 -0.025,0.146 -0.025,0.146 a 0.047,0.047 0 0 0 0.022,0.055 c 0.357,0.193 0.626,0.45 0.876,0.673 z M 14.76,9.975 c 0,0 -0.199,-0.158 -0.364,-0.257 A 0.395,0.395 0 0 0 14.309,9.304 l 0.058,-0.025 c 0.117,0.241 0.21,0.417 0.392,0.696 z M 13.803,9.417 12.397,9.197 14.222,9.182 14.227,9.26 C 14.105,9.232 13.904,9.317 13.802,9.417 Z m 0.493,-0.183 c 0,0 -0.007,-0.036 -0.007,-0.065 l 0.072,-0.022 0.003,0.06 z"
         fill="url(#i)"
         id="path205" />
    </g>
    <path
       style="stroke-width:0.957545"
       d="m 7.8940288,14.541584 c -0.083306,-0.0086 -0.088094,0.0249 -0.1503346,-0.02873 C 7.6058077,14.394122 7.5454824,14.09058 7.4526005,14.016849 7.3597186,13.944075 7.2610915,13.93833 7.177785,13.87609 7.0944786,13.814807 7.0724551,13.775547 7.0408561,13.722883 6.9948939,13.642449 6.954677,13.444237 6.954677,13.444237 c 0,0 0.063198,0.141717 0.147462,0.236514 0.1110752,0.12448 0.1943816,0.112032 0.3370558,0.220235 0.1417167,0.106287 0.2451316,0.195339 0.3830181,0.355249 0.138844,0.160868 0.233641,0.379188 0.233641,0.379188 0,0 -0.065113,-0.08426 -0.1618251,-0.09384 z m 1.1241579,0 c 0.083306,-0.0086 0.088094,0.0249 0.1503345,-0.02873 0.1378865,-0.118735 0.1982119,-0.422277 0.2910937,-0.496008 0.092882,-0.07277 0.1915091,-0.07852 0.2748155,-0.140759 0.083306,-0.06128 0.1053299,-0.100543 0.1369289,-0.153207 0.045962,-0.08043 0.086179,-0.278646 0.086179,-0.278646 0,0 -0.063198,0.141717 -0.147462,0.236514 -0.1101176,0.12448 -0.1934241,0.112032 -0.3360983,0.220235 a 2.2138442,2.2138442 0 0 0 -0.3839756,0.355249 c -0.138844,0.160868 -0.233641,0.379188 -0.233641,0.379188 0,0 0.065113,-0.08426 0.1627827,-0.09384 z"
       fill="#1da2ba"
       id="path209" />
    <g
       transform="matrix(0.95754507,0,0,0.95754507,0.35910662,0.22628479)"
       fill="#241906"
       stroke-width=".092"
       aria-label="A GAME BY MICHAEL KIESSLING"
       id="g249">
      <path
         d="m 5.608,12.8 v -0.022 h 0.02 l 0.09,-0.246 h 0.039 l 0.091,0.246 H 5.871 V 12.8 H 5.758 V 12.778 H 5.782 L 5.762,12.723 H 5.672 L 5.651,12.778 H 5.68 V 12.8 Z M 5.679,12.702 H 5.754 L 5.717,12.599 Z M 6.231,12.6 Q 6.224,12.564 6.207,12.549 6.19,12.533 6.159,12.533 q -0.038,0 -0.055,0.028 -0.018,0.028 -0.018,0.09 0,0.06 0.017,0.088 0.017,0.028 0.053,0.028 0.013,0 0.025,-0.003 0.011,-0.003 0.02,-0.01 V 12.681 H 6.173 V 12.659 H 6.26 v 0.103 q -0.027,0.014 -0.054,0.02 -0.027,0.008 -0.056,0.008 -0.062,0 -0.097,-0.037 -0.036,-0.038 -0.036,-0.102 0,-0.065 0.036,-0.102 0.035,-0.037 0.097,-0.037 0.026,0 0.051,0.006 0.025,0.006 0.05,0.017 v 0.066 z"
         id="path211" />
      <path
         d="m 6.241,12.8 v -0.022 h 0.02 l 0.09,-0.246 H 6.39 l 0.091,0.246 H 6.504 V 12.8 H 6.391 V 12.778 H 6.415 L 6.395,12.723 H 6.305 L 6.284,12.778 H 6.313 V 12.8 Z M 6.312,12.702 H 6.387 L 6.35,12.599 Z"
         id="path213" />
      <path
         d="m 6.472,12.8 v -0.022 h 0.03 v -0.224 h -0.03 v -0.022 h 0.1 l 0.068,0.172 0.07,-0.172 h 0.1 v 0.022 H 6.778 v 0.224 H 6.809 V 12.8 H 6.685 v -0.022 h 0.03 V 12.574 L 6.641,12.761 H 6.6 L 6.525,12.574 v 0.204 H 6.556 V 12.8 Z"
         id="path215" />
      <path
         d="m 6.797,12.8 v -0.022 h 0.03 v -0.224 h -0.03 v -0.022 h 0.217 v 0.063 H 6.992 V 12.556 H 6.89 v 0.086 h 0.063 v -0.034 h 0.022 v 0.093 H 6.953 V 12.667 H 6.89 v 0.108 H 6.995 V 12.737 H 7.017 V 12.8 Z m 0.389,0 v -0.022 h 0.03 v -0.224 h -0.03 v -0.022 h 0.143 q 0.044,0 0.066,0.016 0.022,0.016 0.022,0.05 0,0.024 -0.015,0.038 -0.015,0.014 -0.045,0.018 0.036,0.004 0.056,0.021 0.019,0.018 0.019,0.047 0,0.04 -0.027,0.059 Q 7.378,12.8 7.32,12.8 Z M 7.279,12.644 H 7.3 q 0.028,0 0.042,-0.011 0.013,-0.012 0.013,-0.035 0,-0.023 -0.013,-0.034 Q 7.329,12.554 7.3,12.554 H 7.28 Z m 0,0.134 h 0.023 q 0.031,0 0.046,-0.013 0.015,-0.014 0.015,-0.043 0,-0.028 -0.015,-0.042 Q 7.333,12.665 7.302,12.665 H 7.28 Z"
         id="path217" />
      <path
         d="M 7.458,12.8 V 12.778 H 7.491 V 12.689 L 7.419,12.554 h -0.02 v -0.022 h 0.115 v 0.022 H 7.487 l 0.054,0.102 0.054,-0.102 H 7.571 v -0.022 h 0.07 v 0.022 H 7.62 L 7.553,12.68 v 0.098 H 7.586 V 12.8 Z m 0.329,0 v -0.022 h 0.03 v -0.224 h -0.03 v -0.022 h 0.1 l 0.068,0.172 0.07,-0.172 h 0.1 v 0.022 H 8.093 v 0.224 H 8.124 V 12.8 H 8 V 12.778 H 8.03 V 12.574 L 7.956,12.761 H 7.915 L 7.84,12.574 v 0.204 H 7.871 V 12.8 Z"
         id="path219" />
      <path
         d="m 8.113,12.8 v -0.022 h 0.03 v -0.224 h -0.03 v -0.022 h 0.124 v 0.022 h -0.03 v 0.224 h 0.03 V 12.8 Z"
         id="path221" />
      <path
         d="m 8.457,12.7 q -0.01,0.041 -0.034,0.062 -0.025,0.02 -0.067,0.02 -0.06,0 -0.096,-0.038 -0.036,-0.037 -0.036,-0.101 0,-0.065 0.036,-0.102 0.035,-0.037 0.096,-0.037 0.022,0 0.045,0.006 0.023,0.006 0.05,0.017 v 0.066 H 8.43 Q 8.424,12.559 8.407,12.543 8.39,12.525 8.363,12.525 q -0.035,0 -0.052,0.03 -0.017,0.028 -0.017,0.088 0,0.06 0.017,0.088 0.017,0.028 0.052,0.03 0.024,0 0.04,-0.016 0.016,-0.016 0.022,-0.045 z"
         id="path223" />
      <path
         d="m 8.447,12.8 v -0.022 h 0.03 v -0.224 h -0.03 v -0.022 h 0.124 v 0.022 h -0.03 v 0.09 h 0.095 v -0.09 H 8.606 V 12.532 H 8.73 v 0.022 H 8.698 v 0.224 H 8.73 V 12.8 H 8.605 v -0.022 h 0.031 v -0.11 H 8.54 v 0.11 H 8.571 V 12.8 Z"
         id="path225" />
      <path
         d="m 8.699,12.8 v -0.022 h 0.02 l 0.09,-0.246 h 0.04 l 0.09,0.246 H 8.962 V 12.8 H 8.85 V 12.778 H 8.874 L 8.854,12.723 H 8.764 L 8.743,12.778 H 8.772 V 12.8 Z M 8.77,12.702 H 8.845 L 8.808,12.599 Z"
         id="path227" />
      <path
         d="m 8.931,12.8 v -0.022 h 0.03 v -0.224 h -0.03 v -0.022 h 0.217 v 0.063 H 9.126 V 12.556 H 9.024 v 0.086 h 0.063 v -0.034 h 0.022 v 0.093 H 9.087 V 12.667 H 9.024 v 0.108 H 9.129 V 12.737 H 9.151 V 12.8 Z"
         id="path229" />
      <path
         d="m 9.141,12.8 v -0.022 h 0.03 v -0.224 h -0.03 v -0.022 h 0.124 v 0.022 h -0.03 v 0.221 H 9.329 V 12.733 H 9.351 V 12.8 Z m 0.369,0 V 12.778 H 9.54 V 12.554 H 9.51 v -0.022 h 0.124 v 0.022 h -0.03 v 0.097 L 9.705,12.554 H 9.68 v -0.022 h 0.09 v 0.022 H 9.738 l -0.087,0.082 0.118,0.142 H 9.793 V 12.8 H 9.71 L 9.602,12.67 v 0.108 H 9.633 V 12.8 Z"
         id="path231" />
      <path
         d="m 9.756,12.8 v -0.022 h 0.03 V 12.554 H 9.756 V 12.532 H 9.88 v 0.022 H 9.85 v 0.224 H 9.88 V 12.8 Z"
         id="path233" />
      <path
         d="m 9.868,12.8 v -0.022 h 0.03 v -0.224 h -0.03 v -0.022 h 0.217 v 0.063 H 10.063 V 12.556 H 9.96 v 0.086 h 0.063 v -0.034 h 0.022 v 0.093 H 10.023 V 12.667 H 9.96 v 0.108 h 0.105 v -0.038 h 0.022 V 12.8 Z"
         id="path235" />
      <path
         d="m 10.09,12.8 v -0.064 h 0.02 q 0.005,0.03 0.023,0.045 0.017,0.015 0.048,0.015 0.025,0 0.038,-0.01 0.013,-0.01 0.013,-0.031 0,-0.017 -0.009,-0.025 -0.009,-0.01 -0.036,-0.017 l -0.037,-0.01 q -0.035,-0.01 -0.05,-0.028 -0.014,-0.018 -0.014,-0.05 0,-0.04 0.024,-0.063 0.024,-0.022 0.067,-0.022 0.021,0 0.044,0.004 0.023,0.004 0.047,0.012 v 0.059 h -0.02 q -0.005,-0.028 -0.02,-0.04 -0.016,-0.013 -0.046,-0.013 -0.024,0 -0.036,0.009 -0.012,0.009 -0.012,0.027 0,0.017 0.008,0.026 0.009,0.009 0.042,0.018 l 0.036,0.01 q 0.033,0.009 0.048,0.029 0.016,0.02 0.016,0.054 0,0.04 -0.026,0.062 -0.025,0.02 -0.074,0.02 -0.023,0 -0.047,-0.003 Q 10.114,12.81 10.09,12.8 Z"
         id="path237" />
      <path
         d="m 10.28,12.8 v -0.064 h 0.02 q 0.005,0.03 0.023,0.045 0.017,0.015 0.048,0.015 0.025,0 0.038,-0.01 0.013,-0.01 0.013,-0.031 0,-0.017 -0.009,-0.025 -0.009,-0.01 -0.036,-0.017 l -0.037,-0.01 q -0.035,-0.01 -0.05,-0.028 -0.014,-0.018 -0.014,-0.05 0,-0.04 0.024,-0.063 0.024,-0.022 0.067,-0.022 0.021,0 0.044,0.004 0.023,0.004 0.047,0.012 v 0.059 h -0.02 q -0.005,-0.028 -0.02,-0.04 -0.016,-0.013 -0.046,-0.013 -0.024,0 -0.036,0.009 -0.012,0.009 -0.012,0.027 0,0.017 0.008,0.026 0.009,0.009 0.041,0.018 l 0.037,0.01 q 0.033,0.009 0.048,0.029 0.016,0.02 0.016,0.054 0,0.04 -0.026,0.062 -0.025,0.02 -0.074,0.02 -0.023,0 -0.047,-0.003 Q 10.303,12.811 10.28,12.8 Z"
         id="path239" />
      <path
         d="m 10.46,12.8 v -0.022 h 0.03 v -0.224 h -0.03 v -0.022 h 0.124 v 0.022 h -0.03 v 0.221 h 0.094 V 12.733 H 10.67 V 12.8 Z"
         id="path241" />
      <path
         d="m 10.65,12.8 v -0.022 h 0.03 v -0.224 h -0.03 v -0.022 h 0.124 v 0.022 h -0.03 v 0.224 h 0.03 V 12.8 Z"
         id="path243" />
      <path
         d="m 10.77,12.8 v -0.022 h 0.03 v -0.224 h -0.03 v -0.022 h 0.075 l 0.146,0.19 v -0.168 h -0.03 v -0.022 h 0.084 v 0.022 H 11.014 V 12.8 h -0.043 l -0.147,-0.194 v 0.172 h 0.03 V 12.8 Z"
         id="path245" />
      <path
         d="m 11.24,12.6 q -0.007,-0.036 -0.024,-0.051 -0.017,-0.016 -0.048,-0.016 -0.038,0 -0.055,0.028 -0.018,0.028 -0.018,0.09 0,0.06 0.017,0.088 0.017,0.028 0.053,0.028 0.013,0 0.025,-0.003 0.012,-0.003 0.02,-0.01 v -0.073 h -0.028 v -0.022 h 0.087 v 0.103 q -0.027,0.014 -0.054,0.02 -0.027,0.008 -0.056,0.008 -0.062,0 -0.097,-0.037 -0.036,-0.038 -0.036,-0.102 0,-0.065 0.036,-0.102 0.035,-0.037 0.097,-0.037 0.026,0 0.051,0.006 0.025,0.006 0.05,0.017 v 0.066 z"
         id="path247" />
    </g>
    <g
       transform="matrix(0.95754507,0,0,0.95754507,0.35910662,0.22628479)"
       fill="#241906"
       stroke-width=".212"
       aria-label="POINT CALCULATOR"
       id="g279">
      <path
         d="M 4.565,16.76 V 16.71 H 4.636 V 16.191 H 4.565 v -0.05 h 0.317 q 0.093,0 0.148,0.05 0.055,0.048 0.055,0.13 0,0.084 -0.055,0.134 -0.055,0.049 -0.148,0.049 H 4.78 v 0.206 h 0.09 v 0.05 z M 4.78,16.454 h 0.042 q 0.048,0 0.077,-0.036 0.03,-0.036 0.03,-0.096 0,-0.06 -0.03,-0.095 Q 4.871,16.191 4.822,16.191 H 4.78 Z"
         id="path251" />
      <path
         d="m 5.338,16.72 q 0.071,0 0.106,-0.067 0.035,-0.066 0.035,-0.204 0,-0.137 -0.035,-0.204 -0.035,-0.067 -0.106,-0.067 -0.07,0 -0.106,0.068 -0.035,0.067 -0.035,0.203 0,0.136 0.035,0.204 0.035,0.067 0.106,0.067 z m 0,0.05 q -0.14,0 -0.22,-0.085 -0.08,-0.086 -0.08,-0.236 0,-0.15 0.08,-0.235 0.08,-0.086 0.22,-0.086 0.14,0 0.22,0.086 0.08,0.085 0.08,0.235 0,0.15 -0.08,0.236 -0.08,0.085 -0.22,0.085 z"
         id="path253" />
      <path
         d="M 5.609,16.76 V 16.71 H 5.68 V 16.191 H 5.61 v -0.05 h 0.287 v 0.05 H 5.825 v 0.519 h 0.072 v 0.05 z"
         id="path255" />
      <path
         d="M 5.866,16.76 V 16.71 H 5.937 V 16.191 H 5.866 v -0.05 H 6.04 l 0.336,0.438 v -0.388 h -0.07 v -0.05 H 6.5 v 0.05 H 6.43 V 16.76 H 6.33 L 5.989,16.313 v 0.397 h 0.07 v 0.05 z"
         id="path257" />
      <path
         d="M 6.572,16.76 V 16.71 H 6.646 V 16.198 H 6.493 v 0.098 h -0.05 v -0.155 h 0.551 v 0.155 H 6.944 V 16.198 H 6.79 v 0.512 h 0.075 v 0.05 z m 1.313,-0.18 q -0.022,0.096 -0.08,0.142 -0.056,0.047 -0.152,0.047 -0.141,0 -0.223,-0.087 -0.082,-0.086 -0.082,-0.234 0,-0.149 0.082,-0.235 0.082,-0.086 0.223,-0.086 0.05,0 0.103,0.013 0.054,0.013 0.114,0.04 v 0.152 H 7.822 q -0.014,-0.078 -0.053,-0.116 -0.038,-0.04 -0.1,-0.04 -0.082,0 -0.122,0.067 -0.039,0.067 -0.039,0.205 0,0.138 0.04,0.204 0.039,0.066 0.12,0.066 0.057,0 0.092,-0.034 0.035,-0.034 0.05,-0.104 z"
         id="path259" />
      <path
         d="m 7.821,16.76 v -0.05 h 0.045 l 0.21,-0.569 h 0.089 l 0.21,0.569 h 0.053 v 0.05 H 8.168 V 16.71 H 8.222 L 8.176,16.583 H 7.966 L 7.92,16.71 h 0.066 v 0.05 z M 7.985,16.533 H 8.157 L 8.072,16.297 Z"
         id="path261" />
      <path
         d="M 8.357,16.76 V 16.71 H 8.428 V 16.191 H 8.357 v -0.05 h 0.287 v 0.05 H 8.572 v 0.512 h 0.22 v -0.098 h 0.05 v 0.155 z"
         id="path263" />
      <path
         d="m 9.33,16.58 q -0.022,0.096 -0.08,0.142 -0.056,0.047 -0.152,0.047 -0.141,0 -0.223,-0.087 -0.082,-0.086 -0.082,-0.234 0,-0.149 0.082,-0.235 0.082,-0.086 0.223,-0.086 0.05,0 0.103,0.013 0.054,0.013 0.114,0.04 v 0.152 H 9.267 q -0.014,-0.078 -0.053,-0.116 -0.038,-0.04 -0.1,-0.04 -0.082,0 -0.122,0.067 -0.039,0.067 -0.039,0.205 0,0.138 0.04,0.204 0.039,0.066 0.12,0.066 0.057,0 0.092,-0.034 0.035,-0.034 0.05,-0.104 z"
         id="path265" />
      <path
         d="m 9.368,16.19 h -0.07 v -0.05 h 0.286 v 0.05 H 9.512 v 0.31 q 0,0.115 0.033,0.162 0.032,0.046 0.111,0.046 0.077,0 0.11,-0.047 0.031,-0.047 0.031,-0.161 v -0.31 h -0.07 v -0.05 h 0.194 v 0.05 H 9.849 v 0.318 q 0,0.142 -0.055,0.202 -0.055,0.06 -0.186,0.06 -0.129,0 -0.184,-0.06 -0.056,-0.061 -0.056,-0.203 z"
         id="path267" />
      <path
         d="M 9.875,16.76 V 16.71 H 9.946 V 16.191 H 9.875 v -0.05 h 0.287 v 0.05 H 10.09 v 0.512 h 0.22 v -0.098 h 0.05 v 0.155 z"
         id="path269" />
      <path
         d="m 10.27,16.76 v -0.05 h 0.045 l 0.21,-0.569 h 0.089 l 0.21,0.569 h 0.053 v 0.05 h -0.26 v -0.05 h 0.054 l -0.046,-0.127 h -0.21 l -0.046,0.127 h 0.066 v 0.05 z m 0.164,-0.227 h 0.172 l -0.085,-0.236 z"
         id="path271" />
      <path
         d="m 10.87,16.76 v -0.05 h 0.074 v -0.512 h -0.153 v 0.098 h -0.05 v -0.155 h 0.551 v 0.155 h -0.05 v -0.098 h -0.154 v 0.512 h 0.075 v 0.05 z"
         id="path273" />
      <path
         d="m 11.53,16.72 q 0.071,0 0.106,-0.067 0.035,-0.066 0.035,-0.204 0,-0.137 -0.035,-0.204 -0.035,-0.067 -0.106,-0.067 -0.07,0 -0.106,0.068 -0.035,0.067 -0.035,0.203 0,0.136 0.035,0.204 0.035,0.067 0.106,0.067 z m 0,0.05 q -0.14,0 -0.22,-0.085 -0.08,-0.086 -0.08,-0.236 0,-0.15 0.08,-0.235 0.08,-0.086 0.22,-0.086 0.14,0 0.22,0.086 0.08,0.085 0.08,0.235 0,0.15 -0.08,0.236 -0.08,0.085 -0.22,0.085 z"
         id="path275" />
      <path
         d="m 12.17,16.46 q 0.033,0.005 0.056,0.024 0.023,0.02 0.04,0.056 l 0.081,0.172 h 0.057 v 0.05 h -0.183 l -0.09,-0.187 q -0.025,-0.058 -0.043,-0.074 -0.018,-0.016 -0.05,-0.016 h -0.023 v 0.227 h 0.072 v 0.05 H 11.8 v -0.05 h 0.072 V 16.193 H 11.8 v -0.05 h 0.318 q 0.097,0 0.15,0.044 0.053,0.043 0.053,0.123 0,0.064 -0.038,0.102 -0.037,0.037 -0.113,0.048 z m -0.155,-0.024 h 0.05 q 0.052,0 0.08,-0.032 0.028,-0.032 0.028,-0.09 0,-0.058 -0.028,-0.09 -0.028,-0.032 -0.08,-0.03 h -0.05 z"
         id="path277" />
    </g>
    <path
       style="fill:url(#j);stroke-width:0.253366"
       d="m 3.2044116,11.830084 a 2.5052872,2.5052872 0 0 1 -0.2781964,0.137578 c 0.00405,0.0978 0.010895,0.203453 0.00203,0.290865 a 1.0788342,1.0788342 0 0 1 0.2781963,-0.06436 c -0.014191,-0.13884 -0.015712,-0.251842 -0.00203,-0.364336 z m -0.078797,0.130737 c -0.00304,0.05067 2.534e-4,0.09121 0.00101,0.147459 -0.04814,0.0084 -0.083358,0.01824 -0.1193356,0.02762 0.00152,-0.03851 -5.067e-4,-0.08285 -0.00127,-0.116548 0.038512,-0.01748 0.082344,-0.03775 0.1195889,-0.05853 z"
       fill="url(#j)"
       id="path281" />
    <path
       style="fill:url(#k);stroke-width:0.957545"
       d="M 3.203973,9.705981 A 2.5058954,2.5058954 0 0 0 2.9262849,9.5680945 c 0.00383,-0.09767 0.00958,-0.2029996 0.00192,-0.2910937 0.090967,0.034472 0.1819336,0.055538 0.2776881,0.065113 A 1.5943125,1.5943125 0 0 0 3.203973,9.705981 Z M 3.1254543,9.5757548 c -0.00287,-0.05075 0,-0.091924 0,-0.1484195 -0.047877,-0.00862 -0.082349,-0.018193 -0.1187356,-0.026811 0.00192,0.038302 0,0.082349 -9.575e-4,0.1158629 0.038302,0.018193 0.082349,0.038302 0.1196931,0.059368 z"
       fill="url(#k)"
       id="path283" />
    <path
       style="fill:url(#l);stroke-width:0.957545"
       d="m 13.707285,11.81258 c 0.08618,0.04883 0.183849,0.09863 0.277688,0.137887 -0.0038,0.09767 -0.0096,0.202999 -0.0019,0.291093 a 1.0791533,1.0791533 0 0 0 -0.277688,-0.06511 c 0.01436,-0.137886 0.01532,-0.250877 0.0019,-0.363867 z m 0.07852,0.130226 c 0.0029,0.05075 0,0.09193 0,0.14842 0.04788,0.0086 0.08235,0.01819 0.118735,0.02681 -0.0019,-0.0383 0,-0.08235 9.58e-4,-0.115863 a 1.6661284,1.6661284 0 0 1 -0.119693,-0.05937 z"
       fill="url(#l)"
       id="path285" />
    <path
       style="fill:url(#m);stroke-width:0.957545"
       d="m 13.707285,9.705981 c 0.08618,-0.048835 0.183849,-0.098627 0.277688,-0.1378865 -0.0038,-0.09767 -0.0096,-0.2029996 -0.0019,-0.2910937 -0.09097,0.034472 -0.181934,0.055538 -0.277688,0.065113 0.01436,0.1378865 0.01532,0.2508768 0.0019,0.3638672 z m 0.07852,-0.1302262 c 0.0029,-0.05075 0,-0.091924 0,-0.1484195 0.04788,-0.00862 0.08235,-0.018193 0.118735,-0.026811 -0.0019,0.038302 0,0.082349 9.58e-4,0.1158629 -0.0383,0.018193 -0.08235,0.038302 -0.119693,0.059368 z"
       fill="url(#m)"
       id="path287" />
    <g
       transform="matrix(0.95754507,0,0,0.95754507,0.35910662,0.22628479)"
       fill="#1da2ba"
       id="g291">
      <path
         d="M 5.226,8.2 C 5.192,8.214 5.152,8.209 5.203,8.164 5.29,8.087 5.432,7.956 5.53,7.782 5.67,7.534 5.67,7.378 5.6,7.207 5.591,7.184 5.598,7.179 5.61,7.188 5.685,7.244 5.743,7.326 5.732,7.529 5.717,7.842 5.408,8.123 5.226,8.199 Z m 6.454,0.078 c 0.034,0.014 0.074,0.009 0.023,-0.036 A 1.529,1.529 0 0 1 11.376,7.86 c -0.14,-0.248 -0.14,-0.404 -0.07,-0.575 0.009,-0.023 0.002,-0.028 -0.01,-0.019 -0.075,0.057 -0.133,0.138 -0.122,0.341 0.015,0.313 0.324,0.595 0.506,0.67 z M 6.595,6.5 C 6.606,6.465 6.613,6.485 6.614,6.501 A 0.878,0.878 0 0 1 6.564,6.755 0.721,0.721 0 0 1 6.467,6.978 C 6.447,7.011 6.425,6.988 6.434,6.969 6.484,6.857 6.509,6.801 6.535,6.713 6.561,6.627 6.583,6.538 6.595,6.5 Z m 3.725,0 c -0.011,-0.035 -0.018,-0.015 -0.019,0.001 0,0.055 0.014,0.139 0.05,0.254 0.039,0.125 0.05,0.147 0.097,0.223 0.02,0.033 0.042,0.01 0.033,-0.009 C 10.431,6.857 10.406,6.801 10.38,6.713 10.354,6.627 10.332,6.538 10.32,6.5 Z"
         id="path289" />
    </g>
  </g>
</svg>
