<?xml version="1.0" encoding="UTF-8" standalone="no"?>
<svg
   xmlns:dc="http://purl.org/dc/elements/1.1/"
   xmlns:cc="http://creativecommons.org/ns#"
   xmlns:rdf="http://www.w3.org/1999/02/22-rdf-syntax-ns#"
   xmlns:svg="http://www.w3.org/2000/svg"
   xmlns="http://www.w3.org/2000/svg"
   xmlns:sodipodi="http://sodipodi.sourceforge.net/DTD/sodipodi-0.dtd"
   xmlns:inkscape="http://www.inkscape.org/namespaces/inkscape"
   inkscape:export-ydpi="768"
   inkscape:export-xdpi="768"
   inkscape:export-filename="/home/josh/azul/images/favicon_512x512.png"
   sodipodi:docname="favicon.svg"
   inkscape:version="1.0 (4035a4fb49, 2020-05-01)"
   id="svg8"
   version="1.1"
   viewBox="0 0 64 64"
   height="64"
   width="64">
  <defs
     id="defs2" />
  <sodipodi:namedview
     inkscape:document-rotation="0"
     inkscape:window-maximized="0"
     inkscape:window-y="0"
     inkscape:window-x="0"
     inkscape:window-height="788"
     inkscape:window-width="1327"
     units="px"
     showgrid="false"
     inkscape:current-layer="layer1"
     inkscape:document-units="px"
     inkscape:cy="33.292426"
     inkscape:cx="36.822945"
     inkscape:zoom="5.6"
     inkscape:pageshadow="2"
     inkscape:pageopacity="0.0"
     borderopacity="1.0"
     bordercolor="#666666"
     pagecolor="#ffffff"
     id="base" />
  <metadata
     id="metadata5">
    <rdf:RDF>
      <cc:Work
         rdf:about="">
        <dc:format>image/svg+xml</dc:format>
        <dc:type
           rdf:resource="http://purl.org/dc/dcmitype/StillImage" />
        <dc:title></dc:title>
      </cc:Work>
    </rdf:RDF>
  </metadata>
  <g
     id="layer1"
     inkscape:groupmode="layer"
     inkscape:label="Layer 1">
    <path
       sodipodi:nodetypes="cccccccccccccccc"
       style="stroke-width:20.7134"
       d="M 3.4431345,59.096936 2.5110303,57.957694 c 0,0 7.5189767,-4.556955 10.8745557,-11.661668 C 17.010439,38.611341 28.092133,9.4260973 28.092133,9.4260973 L 23.079478,4.1855984 h 19.636345 l 0.517844,0.4142864 -4.515526,5.0126551 15.990774,41.7790151 8.823927,7.871108 -23.90331,-0.165727 5.571917,-5.302644 -14.292276,-41.012616 c 0,0 -10.688135,27.983862 -11.868806,34.487883 -1.097813,6.06904 6.54545,11.827377 6.54545,11.827377 z"
       fill="#092631"
       id="path41" />
    <path
       style="stroke-width:20.7134"
       d="m 3.3541804,57.981016 c 0,0 5.8947507,-4.624688 8.9957346,-11.477857 C 15.871203,38.714904 27.843573,9.9025074 27.843573,9.9025074 L 22.85163,5.5112556 42.052991,5.1176914 37.226763,10.337479 53.756088,54.125694 60.177253,58.589322 H 38.759558 l 0.02084,-0.96305 6.628302,-3.45915 -14.99654,-40.909047 c 0,0 -10.667425,27.963146 -12.448781,34.322175 -1.636358,5.779049 4.960871,11.009072 4.960871,11.009072 H 3.8802488 Z"
       fill="#fefcf9"
       id="path43"
       sodipodi:nodetypes="cccccccccccccccc" />
    <path
       style="stroke-width:20.7134"
       d="M 22.230226,57.02559 H 1.7653465 c 0,0 7.3739862,-3.148447 11.5166725,-12.055226 C 16.782595,37.389247 27.139312,9.1361075 27.139312,9.1361075 L 22.582357,4.3927312 h 19.159934 l -4.536246,4.9297967 16.301482,43.1668191 5.84119,4.536243 H 39.132399 L 44.600747,52.240785 29.68707,12.408835 c 0,0 -10.418864,27.445311 -12.220933,33.659342 -1.594934,5.613346 4.764089,10.957413 4.764089,10.957413 z"
       fill="#eca636"
       id="path49" />
    <g
       transform="matrix(20.713443,0,0,20.713443,-65.59477,-191.53572)"
       fill="#092631"
       id="g57">
      <path
         d="m 4.164,12.01 h -0.97 c 0,0 0.35,-0.15 0.545,-0.577 C 3.905,11.071 4.396,9.72 4.396,9.72 L 4.181,9.494 h 0.91 L 4.875,9.729 5.648,11.793 5.926,12.01 H 4.966 L 5.226,11.781 4.518,9.876 c 0,0 -0.494,1.312 -0.58,1.61 -0.076,0.268 0.226,0.523 0.226,0.523 z"
         id="path53" />
      <path
         sodipodi:nodetypes="cccccccccccccc"
         d="m 3.675,10.72 c 0,0 0.048,-0.052 0.096,-0.159 0.048,-0.106 0.071,-0.165 0.071,-0.165 0,0 0.18,0.128 0.406,0.369 0.164,0.175 0.32,0.414 0.32,0.414 0,0 0.172,-0.245 0.389,-0.421 0.25,-0.203 0.191,-0.13 0.369,-0.253 0.122,-0.085 0.16,-0.144 0.16,-0.144 0,0 0.012,0.12 0.048,0.203 0.036,0.086 0.097,0.187 0.097,0.187 0,0 -0.273,-0.046 -0.517,0.174 -0.245,0.219 -0.547,0.61 -0.547,0.61 0,0 -0.171,-0.306 -0.342,-0.503 C 4.0810333,10.870263 3.8876925,10.760586 3.675,10.72 Z"
         id="path55" />
    </g>
  </g>
</svg>
