<?xml version="1.0" encoding="UTF-8"?>
<svg width="64" height="17" version="1.1" viewBox="0 0 16.93 4.498" xmlns="http://www.w3.org/2000/svg"><g transform="matrix(.8531 0 0 .8531 1.247 -249.2)"><rect transform="rotate(-90)" x="-296.1" y="1.147" width="2.516" height="12.68" fill="#f9dec4" stroke="#000" stroke-linejoin="round" stroke-width=".2497"/><g fill="none" stroke="#000" stroke-width=".2846"><path d="m3.876 296.1v-2.439"/><path d="m6.307 296.1v-2.439"/><path d="m8.738 296.1v-2.439"/><path d="m11.15 296.1v-2.439"/></g><rect transform="rotate(-90)" x="-296.3" y="13.54" width="2.951" height="2.932" ry=".3981" fill="#e0651c" stroke="#000" stroke-width=".2846"/><g transform="matrix(.3585 0 0 .3585 7.76 184.6)" aria-label="+"><path d="m17.95 307.3-0.01536-0.4096v-0.5632h0.4762v0.5632l-0.02048 0.4096 0.3942-0.0307h0.5581v0.4813h-0.5581l-0.3942-0.0154 0.02048 0.3994v0.5939h-0.4762v-0.5939l0.01536-0.3994-0.4659 0.0154h-0.4813v-0.4813h0.4813z" stroke-width=".128"/></g><path d="m0.4939 296.7v-3.868l1.951 1.957z" fill="#6db0e5" stroke="#000" stroke-linejoin="round" stroke-width=".2497"/><path d="m0.5798 296.2v-2.842l1.433 1.438z"/><circle transform="rotate(-90)" cx="-294.8" cy=".8211" r=".3908" fill="#77411c"/><circle transform="rotate(-90)" cx="-294.7" cy=".7319" r=".2681" fill="#dd9c70"/><g transform="matrix(1.888,0,0,1.888,-3.532,284)" aria-label="2"><path d="m9.794 5.984c0.1003-0.05919 0.1826-0.1245 0.2469-0.196 0.06425-0.07146 0.09637-0.1404 0.09637-0.2068 0-0.03537-0.01119-0.06352-0.03357-0.08446-0.02165-0.02166-0.03667-0.03666-0.07638-0.03666-0.03754 0-0.0567 0.00317-0.0744 0.03418-0.01425 0.02497 0.07328 0.1512 0.02298 0.1774-0.02841 0.01482-0.1264 0.00999-0.1414-0.00944-0.07296-0.095-0.02542-0.1963 0.02772-0.2369 0.06012-0.05524 0.1346-0.06428 0.2046-0.06605 0.05267-0.00133 0.09673 0.00902 0.1321 0.02707 0.03609 0.01805 0.0628 0.04187 0.08013 0.07146 0.01733 0.0296 0.02599 0.06244 0.02599 0.09853 0 0.0693-0.03321 0.139-0.09962 0.209-0.06641 0.07002-0.1509 0.1343-0.2534 0.1927l0.314-0.02924 0.04115-0.09096 0.06822 0.01408-0.0314 0.1906h-0.5273z" stroke-width=".02707"/></g></g></svg>
