<?xml version="1.0" encoding="UTF-8"?>
<svg width="64" height="64" version="1.1" viewBox="0 0 16.93 16.93" xmlns="http://www.w3.org/2000/svg"><g transform="matrix(.8338 0 0 .8338 1.411 -232.2)"><rect transform="rotate(-90)" x="-290.2" y="6.892" width="3.413" height="3.322" ry=".1581" fill="#f9dec4" stroke="#000" stroke-linejoin="round" stroke-width=".3376"/><text x="7.8041992" y="289.53543" fill="#000000" font-family="Merriweather" font-size="3.224px" font-weight="bold" letter-spacing="0px" stroke-width=".0806" word-spacing="0px" style="line-height:1.25" xml:space="preserve"><tspan x="7.8041992" y="289.53543" font-family="Merriweather" font-weight="bold" stroke-width=".0806">1</tspan></text><rect transform="rotate(-90)" x="-286.6" y="6.637" width="3.766" height="3.741" ry=".508" fill="#e0651c" stroke="#000" stroke-width=".3632"/><g transform="matrix(.4575 0 0 .4575 -.7387 144)" aria-label="+"><path d="m17.95 307.3-0.01536-0.4096v-0.5632h0.4762v0.5632l-0.02048 0.4096 0.3942-0.0307h0.5581v0.4813h-0.5581l-0.3942-0.0154 0.02048 0.3994v0.5939h-0.4762v-0.5939l0.01536-0.3994-0.4659 0.0154h-0.4813v-0.4813h0.4813z" stroke-width=".128"/></g><text x="8.4349995" y="285.58908" fill="#000000" font-family="Merriweather" font-size="3.043px" font-weight="bold" letter-spacing="0px" stroke-width=".07606" word-spacing="0px" style="line-height:1.25" xml:space="preserve"><tspan x="8.4349995" y="285.58908" font-family="Merriweather" font-weight="bold" stroke-width=".07606">1</tspan></text><rect transform="rotate(-90)" x="-290.4" y="10.37" width="3.766" height="3.741" ry=".508" fill="#e0651c" stroke="#000" stroke-width=".3632"/><g transform="matrix(.4575 0 0 .4575 2.998 147.9)" aria-label="+"><path d="m17.95 307.3-0.01536-0.4096v-0.5632h0.4762v0.5632l-0.02048 0.4096 0.3942-0.0307h0.5581v0.4813h-0.5581l-0.3942-0.0154 0.02048 0.3994v0.5939h-0.4762v-0.5939l0.01536-0.3994-0.4659 0.0154h-0.4813v-0.4813h0.4813z" stroke-width=".128"/></g><text x="12.171647" y="289.4072" fill="#000000" font-family="Merriweather" font-size="3.043px" font-weight="bold" letter-spacing="0px" stroke-width=".07606" word-spacing="0px" style="line-height:1.25" xml:space="preserve"><tspan x="12.171647" y="289.4072" font-family="Merriweather" font-weight="bold" stroke-width=".07606">1</tspan></text><rect transform="rotate(-90)" x="-290.4" y="2.928" width="3.766" height="3.741" ry=".508" fill="#e0651c" stroke="#000" stroke-width=".3632"/><g transform="matrix(.4575 0 0 .4575 -4.448 147.9)" aria-label="+"><path d="m17.95 307.3-0.01536-0.4096v-0.5632h0.4762v0.5632l-0.02048 0.4096 0.3942-0.0307h0.5581v0.4813h-0.5581l-0.3942-0.0154 0.02048 0.3994v0.5939h-0.4762v-0.5939l0.01536-0.3994-0.4659 0.0154h-0.4813v-0.4813h0.4813z" stroke-width=".128"/></g><text x="4.725781" y="289.4072" fill="#000000" font-family="Merriweather" font-size="3.043px" font-weight="bold" letter-spacing="0px" stroke-width=".07606" word-spacing="0px" style="line-height:1.25" xml:space="preserve"><tspan x="4.725781" y="289.4072" font-family="Merriweather" font-weight="bold" stroke-width=".07606">1</tspan></text><rect transform="rotate(-90)" x="-294.3" y="6.645" width="3.766" height="3.741" ry=".508" fill="#e0651c" stroke="#000" stroke-width=".3632"/><g transform="matrix(.4575 0 0 .4575 -.73 151.7)" aria-label="+"><path d="m17.95 307.3-0.01536-0.4096v-0.5632h0.4762v0.5632l-0.02048 0.4096 0.3942-0.0307h0.5581v0.4813h-0.5581l-0.3942-0.0154 0.02048 0.3994v0.5939h-0.4762v-0.5939l0.01536-0.3994-0.4659 0.0154h-0.4813v-0.4813h0.4813z" stroke-width=".128"/></g><text x="8.4437151" y="293.2749" fill="#000000" font-family="Merriweather" font-size="3.043px" font-weight="bold" letter-spacing="0px" stroke-width=".07606" word-spacing="0px" style="line-height:1.25" xml:space="preserve"><tspan x="8.4437151" y="293.2749" font-family="Merriweather" font-weight="bold" stroke-width=".07606">1</tspan></text><rect transform="rotate(-90)" x="-286.6" y="6.637" width="3.766" height="3.741" ry=".508" fill="#e0651c" stroke="#000" stroke-width=".3632"/><g transform="matrix(.4575 0 0 .4575 -.7387 144)" aria-label="+"><path d="m17.95 307.3-0.01536-0.4096v-0.5632h0.4762v0.5632l-0.02048 0.4096 0.3942-0.0307h0.5581v0.4813h-0.5581l-0.3942-0.0154 0.02048 0.3994v0.5939h-0.4762v-0.5939l0.01536-0.3994-0.4659 0.0154h-0.4813v-0.4813h0.4813z" stroke-width=".128"/></g><text x="8.4349995" y="285.58908" fill="#000000" font-family="Merriweather" font-size="3.043px" font-weight="bold" letter-spacing="0px" stroke-width=".07606" word-spacing="0px" style="line-height:1.25" xml:space="preserve"><tspan x="8.4349995" y="285.58908" font-family="Merriweather" font-weight="bold" stroke-width=".07606">1</tspan></text><path d="m10.92 282.8h-4.892l2.475-2.468z" fill="#6db0e5" stroke="#000" stroke-linejoin="round" stroke-width=".3158"/><path d="m10.29 282.7h-3.595l1.819-1.812z" stroke-width="1.265"/><circle transform="scale(-1)" cx="-8.521" cy="-282.4" r=".4943" fill="#77411c" stroke-width="1.265"/><circle transform="scale(-1)" cx="-8.408" cy="-282.2" r=".2967" fill="#dd9c70" stroke-width="1.107"/><path d="m2.917 286v4.892l-2.468-2.475z" fill="#6db0e5" stroke="#000" stroke-linejoin="round" stroke-width=".3158"/><path d="m2.808 286.7v3.595l-1.812-1.819z" stroke-width="1.265"/><circle transform="rotate(90)" cx="288.5" cy="-2.503" r=".4943" fill="#77411c" stroke-width="1.265"/><circle transform="rotate(90)" cx="288.3" cy="-2.394" r=".2912" fill="#dd9c70" stroke-width="1.086"/><path d="m5.968 294.2h4.892l-2.475 2.468z" fill="#6db0e5" stroke="#000" stroke-linejoin="round" stroke-width=".3158"/><path d="m6.6 294.3h3.595l-1.819 1.812z" stroke-width="1.265"/><circle cx="8.371" cy="294.6" r=".4943" fill="#77411c" stroke-width="1.265"/><circle cx="8.229" cy="294.5" r=".2792" fill="#dd9c70" stroke-width="1.041"/><path d="m14.07 290.9v-4.892l2.468 2.475z" fill="#6db0e5" stroke="#000" stroke-linejoin="round" stroke-width=".3158"/><path d="m14.18 290.3v-3.595l1.812 1.819z" stroke-width="1.265"/><circle transform="rotate(-90)" cx="-288.5" cy="14.49" r=".4943" fill="#77411c" stroke-width="1.265"/><circle transform="rotate(-90)" cx="-288.4" cy="14.37" r=".2939" fill="#dd9c70" stroke-width="1.096"/></g></svg>
