<?xml version="1.0" encoding="UTF-8"?>
<svg width="64" height="64" version="1.1" viewBox="0 0 16.93 16.93" xmlns="http://www.w3.org/2000/svg"><g><rect y="-8.506e-7" width="16.93" height="16.93" fill="#090c12"/><g fill="#09b8cf"><path d="m0.2661 0.2532v0.2527l0.6015 0.6015v1.069h0.493l0.3654-0.3659 0.09767-0.09767h5.16e-4l0.3654-0.3659v-0.493h-1.069l-0.601-0.601zm2.392 1.043-0.6563 0.6919-0.6914 0.6563c0.4461-0.00214 1.339-0.00391 1.339-0.00391s0.00647-0.8963 0.00908-1.344z"/><path d="m5.51 0.2532v0.2527l-0.6015 0.6015v1.069h-0.493l-0.3654-0.3659-0.09767-0.09767h-5.159e-4l-0.3654-0.3659v-0.493h1.069l0.601-0.601zm-2.392 1.043 0.6563 0.6919 0.6914 0.6563c-0.4461-0.00214-1.339-0.00391-1.339-0.00391s-0.00647-0.8963-0.00908-1.344z"/><path d="m0.2661 5.506v-0.2527l0.6015-0.6015v-1.069h0.493l0.3654 0.3659 0.09767 0.09767h5.159e-4l0.3654 0.3659v0.493h-1.069l-0.601 0.601zm2.392-1.043-0.6563-0.6919-0.6914-0.6563c0.4461 0.00214 1.339 0.00391 1.339 0.00391s0.00647 0.8963 0.00908 1.344z"/><path d="m5.703 5.693v-0.2527l-0.7944-0.7886v-1.069h-0.493l-0.3654 0.3659-0.09767 0.09767h-5.159e-4l-0.3654 0.3659v0.493h1.069l0.7939 0.7881zm-2.585-1.23 0.6563-0.6919 0.6914-0.6563c-0.4461 0.00214-1.339 0.00391-1.339 0.00391s-0.00647 0.8963-0.00908 1.344z"/><path d="m11.44 0.2532v0.2527l0.6015 0.6015v1.069h0.493l0.3654-0.3659 0.09767-0.09767h5.16e-4l0.3654-0.3659v-0.493h-1.069l-0.601-0.601zm2.392 1.043-0.6563 0.6919-0.6914 0.6563c0.4461-0.00214 1.339-0.00391 1.339-0.00391s0.0065-0.8963 0.0091-1.344z"/><path d="m16.69 0.2532v0.2527l-0.6015 0.6015v1.069h-0.493l-0.3654-0.3659-0.09767-0.09767h-5.16e-4l-0.3654-0.3659v-0.493h1.069l0.601-0.601zm-2.392 1.043 0.6563 0.6919 0.6914 0.6563c-0.4461-0.00214-1.339-0.00391-1.339-0.00391s-0.0065-0.8963-0.0091-1.344z"/><path d="m11.17 5.783v-0.2527l0.8785-0.8785v-1.069h0.493l0.3654 0.3659 0.09767 0.09767h5.16e-4l0.3654 0.3659v0.493h-1.069l-0.878 0.878zm2.669-1.32-0.6563-0.6919-0.6914-0.6563c0.4461 0.00214 1.339 0.00391 1.339 0.00391s0.0065 0.8963 0.0091 1.344z"/><path d="m16.69 5.506v-0.2527l-0.6015-0.6015v-1.069h-0.493l-0.3654 0.3659-0.09767 0.09767h-5.16e-4l-0.3654 0.3659v0.493h1.069l0.601 0.601zm-2.392-1.043 0.6563-0.6919 0.6914-0.6563c-0.4461 0.00214-1.339 0.00391-1.339 0.00391s-0.0065 0.8963-0.0091 1.344z"/><path d="m11.06 11.12v0.2527l0.9888 0.9815v1.069h0.493l0.3654-0.3659 0.09767-0.09767h5.16e-4l0.3654-0.3659v-0.493h-1.069l-0.9883-0.981zm2.779 1.423-0.6563 0.6919-0.6914 0.6563c0.4461-0.0021 1.339-0.0039 1.339-0.0039s0.0065-0.8963 0.0091-1.344z"/><path d="m16.69 11.5v0.2527l-0.6015 0.6015v1.069h-0.493l-0.3654-0.3659-0.09767-0.09767h-5.16e-4l-0.3654-0.3659v-0.493h1.069l0.601-0.601zm-2.392 1.043 0.6563 0.6919 0.6914 0.6563c-0.4461-0.0021-1.339-0.0039-1.339-0.0039s-0.0065-0.8963-0.0091-1.344z"/><path d="m11.44 16.75v-0.2527l0.6015-0.6015v-1.069h0.493l0.3654 0.3659 0.09767 0.09767h5.16e-4l0.3654 0.3659v0.493h-1.069l-0.601 0.601zm2.392-1.043-0.6563-0.6919-0.6914-0.6563c0.4461 0.0021 1.339 0.0039 1.339 0.0039s0.0065 0.8963 0.0091 1.344z"/><path d="m16.69 16.75v-0.2527l-0.6015-0.6015v-1.069h-0.493l-0.3654 0.3659-0.09767 0.09767h-5.16e-4l-0.3654 0.3659v0.493h1.069l0.601 0.601zm-2.392-1.043 0.6563-0.6919 0.6914-0.6563c-0.4461 0.0021-1.339 0.0039-1.339 0.0039s-0.0065 0.8963-0.0091 1.344z"/><path d="m0.2992 11.5v0.2527l0.6015 0.6015v1.069h0.493l0.3654-0.3659 0.09767-0.09767h5.16e-4l0.3654-0.3659v-0.493h-1.069l-0.601-0.601zm2.392 1.043-0.6563 0.6919-0.6914 0.6563c0.4461-0.0021 1.339-0.0039 1.339-0.0039s0.0065-0.8963 0.0091-1.344z"/><path d="m6.125 10.83v0.2527l-1.183 1.272v1.069h-0.493l-0.3654-0.3659-0.09767-0.09767h-5.16e-4l-0.3654-0.3659v-0.493h1.069l1.183-1.272zm-2.973 1.714 0.6563 0.6919 0.6914 0.6563c-0.4461-0.0021-1.339-0.0039-1.339-0.0039s-0.0065-0.8963-0.0091-1.344z"/><path d="m0.2992 16.75v-0.2527l0.6015-0.6015v-1.069h0.493l0.3654 0.3659 0.09767 0.09767h5.16e-4l0.3654 0.3659v0.493h-1.069l-0.601 0.601zm2.392-1.043-0.6563-0.6919-0.6914-0.6563c0.4461 0.0021 1.339 0.0039 1.339 0.0039s0.0065 0.8963 0.0091 1.344z"/><path d="m5.543 16.75v-0.2527l-0.6015-0.6015v-1.069h-0.493l-0.3654 0.3659-0.09767 0.09767h-5.16e-4l-0.3654 0.3659v0.493h1.069l0.601 0.601zm-2.392-1.043 0.6563-0.6919 0.6914-0.6563c-0.4461 0.0021-1.339 0.0039-1.339 0.0039s-0.0065 0.8963-0.0091 1.344z"/><path d="m5.458 5.427v0.2527l0.9991 1.017v1.069h0.493l0.3654-0.3659 0.09767-0.09767h5.16e-4l0.3654-0.3659v-0.493h-1.069l-0.9986-1.016zm2.789 1.458-0.6563 0.6919-0.6914 0.6563c0.4461-0.0021 1.339-0.0039 1.339-0.0039s0.0065-0.8963 0.0091-1.344z"/><path d="m11.51 5.437v0.2527l-1.011 1.007v1.069h-0.493l-0.3654-0.3659-0.09767-0.09767h-5.16e-4l-0.3654-0.3659v-0.493h1.069l1.01-1.006zm-2.801 1.448 0.6563 0.6919 0.6914 0.6563c-0.4461-0.0021-1.339-0.0039-1.339-0.0039s-0.0065-0.8963-0.0091-1.344z"/><path d="m5.855 11.09v-0.2527l0.6015-0.6015v-1.069h0.493l0.3654 0.3659 0.09767 0.09767h5.16e-4l0.3654 0.3659v0.493h-1.069l-0.601 0.601zm2.392-1.043-0.6563-0.6919-0.6914-0.6563c0.4461 0.0021 1.339 0.0039 1.339 0.0039s0.0065 0.8963 0.0091 1.344z"/><path d="m11.46 11.52v-0.2527l-0.964-1.025v-1.069h-0.493l-0.3654 0.3659-0.09767 0.09767h-5.16e-4l-0.3654 0.3659v0.493h1.069l0.9635 1.025zm-2.754-1.467 0.6563-0.6919 0.6914-0.6563c-0.4461 0.0021-1.339 0.0039-1.339 0.0039s-0.0065 0.8963-0.0091 1.344z"/><circle cx="2.824" cy="8.587" r=".5028"/><path d="m1.49 6.982 1.304-0.5573-0.2585 1.225z"/><path d="m0.8265 8.438 0.5631-1.301 0.6553 1.067z"/><path d="m1.521 9.996-0.6162-1.277 1.236 0.2024z"/><path d="m2.952 10.5-1.359-0.4062 0.9829-0.7762z"/><path d="m4.295 9.68-1.14 0.8429-0.03099-1.252z"/><path d="m4.822 8.269-0.4365 1.349-0.754-1z"/><path d="m4.163 6.985 0.7531 1.201-1.251-0.065z"/><path d="m2.828 6.444 1.338 0.469-1.018 0.7296z"/><circle cx="8.413" cy="2.964" r=".5028"/><path d="m7.079 1.359 1.304-0.5573-0.2585 1.225z"/><path d="m6.416 2.815 0.5631-1.301 0.6553 1.067z"/><path d="m7.111 4.374-0.6162-1.277 1.236 0.2024z"/><path d="m8.542 4.878-1.359-0.4062 0.9829-0.7762z"/><path d="m9.884 4.057-1.14 0.8429-0.03099-1.252z"/><path d="m10.41 2.646-0.4365 1.349-0.754-1z"/><path d="m9.752 1.363 0.7531 1.201-1.251-0.065z"/><path d="m8.417 0.8214 1.338 0.469-1.018 0.7296z"/><circle cx="8.413" cy="14.28" r=".5028"/><path d="m7.079 12.67 1.304-0.5573-0.2585 1.225z"/><path d="m6.416 14.13 0.5631-1.301 0.6553 1.067z"/><path d="m7.111 15.68-0.6162-1.277 1.236 0.2024z"/><path d="m8.542 16.19-1.359-0.4062 0.9829-0.7762z"/><path d="m9.884 15.37-1.14 0.8429-0.03099-1.252z"/><path d="m10.41 13.96-0.4365 1.349-0.754-1z"/><path d="m9.752 12.67 0.7531 1.201-1.251-0.065z"/><path d="m8.417 12.13 1.338 0.469-1.018 0.7296z"/><circle cx="13.94" cy="8.62" r=".5028"/><path d="m12.6 7.015 1.304-0.5573-0.2585 1.225z"/><path d="m11.94 8.471 0.5631-1.301 0.6553 1.067z"/><path d="m12.63 10.03-0.6162-1.277 1.236 0.2024z"/><path d="m14.06 10.53-1.359-0.4062 0.9829-0.7762z"/><path d="m15.41 9.713-1.14 0.8429-0.03099-1.252z"/><path d="m15.93 8.302-0.4365 1.349-0.754-1z"/><path d="m15.28 7.018 0.7531 1.201-1.251-0.065z"/><path d="m13.94 6.477 1.338 0.469-1.018 0.7296z"/></g></g></svg>
