<?xml version="1.0" encoding="UTF-8"?>
<svg width="64" height="64" version="1.1" viewBox="0 0 16.93 16.93" xmlns="http://www.w3.org/2000/svg"><g><rect y="-8.506e-7" width="16.93" height="16.93" fill="#f9b838"/><path transform="scale(.2646)" d="m29.26 2.143c-0.5921-0.01342-1.192 0.2858-1.334 0.5801-0.7152 1.485 0.7046 1.834-0.3574 2.633-0.4568 0.3437-2.098 0.6261-2.455 0.4922-0.3571-0.1339-0.3719-0.6932 1.07-1.34-0.3571-0.2679-2.25 0.1342-2.928 1.127-0.8302 1.216-0.3515 1.315-1.447 2.088-0.5894 0.4157-1.539 1.28-1.936 0.2695-0.2289-0.5836-0.1226-0.9891 0.4199-2.174-2.551 2.367-0.98 3.37-1.832 4.582-0.4775 0.6794-1.338 0.5804-1.383-0.625-0.04464-1.205-0.7972-2.635-1.928-3.471 0.0848 1.042 0.24 1.526-0.1172 1.973-0.3571 0.4464-2.005-0.4512-2.102-1.479-0.3686 0.2783-1.943 0.1777-2.432-0.9023-1.688-0.0383-2.33-0.4531-2.33-0.4531 0.8036 1.027 2.367 3.734 3.729 3.932 1.907 0.2762 2.174 1.715 2.799 2.607 0.9637 1.377 2.961 1.367 2.961 3.463-0.07823 0.8025-0.003532 1.487 0.248 2.225-0.7119-0.4258-1.532-0.3334-2.107-0.3672-2.096 0-2.086-1.995-3.463-2.959-0.8929-0.625-2.331-0.8923-2.607-2.799-0.1972-1.361-2.905-2.927-3.932-3.73 3e-7 0 0.4148 0.6436 0.4531 2.332 1.08 0.4888 1.181 2.063 0.9023 2.432 1.027 0.09615 1.925 1.744 1.479 2.102-0.4464 0.3571-0.9305 0.2-1.973 0.1152 0.8361 1.131 2.267 1.883 3.473 1.928 1.205 0.04464 1.304 0.9073 0.625 1.385-1.213 0.8521-2.217-0.719-4.584 1.832 1.185-0.5425 1.59-0.6488 2.174-0.4199 1.011 0.3963 0.1462 1.346-0.2695 1.936-0.7729 1.096-0.8717 0.6171-2.088 1.447-0.9928 0.6777-1.395 2.571-1.127 2.928 0.6467-1.442 1.206-1.427 1.34-1.07 0.1339 0.3571-0.1465 1.998-0.4902 2.455-0.7991 1.062-1.149-0.3578-2.635 0.3574-0.4708 0.2267-0.9555 1.625-0.1484 2.289 0 0 0.2655-1.307 0.8379-1.41 1.068-0.193 0.8101 1.799 2.678 0.5391 1.678-1.132 3.062-5.347 3.598-6.508 0.5357-1.161 2.456-2.813 4.777-3.215 2.321-0.4018 4.106 0.7601 5.713 2.367 1.607 1.607 1.352 3.805 0.7266 4.977-0.6775 1.27-2.288 1.427-3.939 0.4805-1.534-0.8794-1.104-2.511-0.793-3.203 0.4464-0.9933 1.764-0.7695 1.764-0.7695-0.7743-1.746-2.924-1.112-3.584 0.502-0.277 0.6778-0.5251 2.337-0.1562 3.314 0.7031 1.864 2.332 2.831 4.242 3.137 1.953 0.3125 4.394 0.0065 5.67-1.607 1.179-1.491 0.5565-3.756 0.5391-3.818 0.06269 0.01748 2.327 0.6382 3.818-0.541 1.614-1.276 1.92-3.715 1.607-5.668-0.3056-1.91-1.273-3.539-3.137-4.242-0.9778-0.3689-2.637-0.1208-3.314 0.1562-1.614 0.6597-2.248 2.808-0.502 3.582 0 0-0.2238-1.315 0.7695-1.762 0.6922-0.3111 2.324-0.7428 3.203 0.791 0.9469 1.652 0.7898 3.262-0.4805 3.939-1.172 0.625-3.369 0.8825-4.977-0.7246-1.607-1.607-2.769-3.393-2.367-5.715 0.4018-2.321 2.054-4.24 3.215-4.775 1.161-0.5357 5.378-1.922 6.51-3.6 1.26-1.868-0.734-1.608-0.541-2.676 0.1034-0.5724 1.41-0.8379 1.41-0.8379-0.249-0.3026-0.5998-0.4236-0.9551-0.4316zm5.377 0c-0.3553 0.008052-0.7061 0.129-0.9551 0.4316 0-2e-7 1.307 0.2655 1.41 0.8379 0.193 1.068-1.801 0.8082-0.541 2.676 1.132 1.678 5.349 3.064 6.51 3.6 1.161 0.5357 2.813 2.454 3.215 4.775 0.4018 2.321-0.7601 4.108-2.367 5.715-1.607 1.607-3.805 1.35-4.977 0.7246-1.27-0.6775-1.427-2.288-0.4805-3.939 0.8794-1.534 2.511-1.102 3.203-0.791 0.9933 0.4464 0.7695 1.762 0.7695 1.762 1.746-0.7743 1.112-2.922-0.502-3.582-0.6778-0.277-2.337-0.5251-3.314-0.1562-1.864 0.7031-2.831 2.332-3.137 4.242-0.3125 1.953-0.006488 4.392 1.607 5.668 1.491 1.179 3.756 0.5585 3.818 0.541-0.01748 0.06269-0.6402 2.327 0.5391 3.818 1.276 1.614 3.717 1.92 5.67 1.607 1.91-0.3056 3.539-1.273 4.242-3.137 0.3689-0.9778 0.1208-2.637-0.1562-3.314-0.6597-1.614-2.81-2.248-3.584-0.502 0 0 1.317-0.2238 1.764 0.7695 0.3111 0.6922 0.7409 2.324-0.793 3.203-1.652 0.9469-3.262 0.7898-3.939-0.4805-0.625-1.172-0.8806-3.369 0.7266-4.977 1.607-1.607 3.391-2.769 5.713-2.367 2.321 0.4018 4.242 2.054 4.777 3.215s1.92 5.376 3.598 6.508c1.868 1.26 1.61-0.7321 2.678-0.5391 0.5724 0.1034 0.8379 1.41 0.8379 1.41 0.8071-0.664 0.3224-2.062-0.1484-2.289-1.485-0.7152-1.836 0.7046-2.635-0.3574-0.3437-0.4568-0.6242-2.098-0.4902-2.455 0.1339-0.3571 0.6932-0.3719 1.34 1.07 0.2679-0.3571-0.1342-2.25-1.127-2.928-1.216-0.8302-1.315-0.3515-2.088-1.447-0.4157-0.5894-1.28-1.539-0.2695-1.936 0.5836-0.2289 0.9891-0.1226 2.174 0.4199-2.367-2.551-3.371-0.98-4.584-1.832-0.6794-0.4775-0.5804-1.34 0.625-1.385 1.205-0.04464 2.637-0.7972 3.473-1.928-1.042 0.0848-1.526 0.2419-1.973-0.1152-0.4464-0.3571 0.4512-2.005 1.479-2.102-0.2783-0.3686-0.1777-1.943 0.9023-2.432 0.0383-1.688 0.4531-2.332 0.4531-2.332-1.027 0.8036-3.734 2.369-3.932 3.73-0.2762 1.907-1.715 2.174-2.607 2.799-1.377 0.9637-1.367 2.959-3.463 2.959-0.5752 0.03381-1.395-0.05861-2.107 0.3672 0.2516-0.738 0.3263-1.422 0.248-2.225 0-2.096 1.997-2.086 2.961-3.463 0.625-0.8929 0.8923-2.331 2.799-2.607 1.361-0.1972 2.925-2.905 3.729-3.932 4e-6 0-0.6417 0.4148-2.33 0.4531-0.4888 1.08-2.063 1.181-2.432 0.9023-0.09615 1.027-1.744 1.925-2.102 1.479-0.3572-0.4464-0.202-0.9305-0.1172-1.973-1.131 0.8361-1.883 2.265-1.928 3.471-0.04464 1.205-0.9054 1.304-1.383 0.625-0.8521-1.213 0.719-2.215-1.832-4.582 0.5425 1.185 0.6488 1.59 0.4199 2.174-0.3963 1.011-1.346 0.1462-1.936-0.2695-1.096-0.7729-0.6171-0.8717-1.447-2.088-0.6777-0.9928-2.571-1.395-2.928-1.127 1.442 0.6467 1.427 1.206 1.07 1.34-0.3571 0.1339-1.998-0.1485-2.455-0.4922-1.062-0.7991 0.3578-1.147-0.3574-2.633-0.1417-0.2943-0.7419-0.5935-1.334-0.5801zm-2.707 4.855v0.1152c-0.091 0.3232-0.8282 2.771-2.482 2.771 1.661 0 2.392 2.531 2.482 2.865v0.1191s0.01601-0.05452 0.01758-0.06055c0.001588 0.006116 0.01953 0.06055 0.01953 0.06055v-0.1211c0.09153-0.3386 0.8232-2.863 2.482-2.863-1.654 0-2.391-2.448-2.482-2.771v-0.1152s-0.016 0.05277-0.01758 0.05859c-0.001607-0.005932-0.01953-0.05859-0.01953-0.05859zm0.01367 19.22s-0.0882 2.619-1.225 2.619c0.6175 0.4123 0.7108 0.6373 0.5957 1.031-0.1495 0.5117-0.5373 0.3162-0.7949 0.1973 0.1179 0.2943 0.2298 0.6047-0.01367 0.8008-0.3196 0.2574-0.8983 0.1116-1.311-0.5059 0 1.136-2.619 1.225-2.619 1.225h5.363l0.003907 0.003906v-0.003906h0.003906l-0.003906-0.003906v-5.363zm0.009765 0v5.363l-0.003906 0.003906h0.003906v0.003906l0.003907-0.003906h5.363s-2.619-0.08819-2.619-1.225c-0.4123 0.6175-0.9909 0.7633-1.311 0.5059-0.2434-0.1961-0.1316-0.5064-0.01367-0.8008-0.2576 0.1189-0.6454 0.3144-0.7949-0.1973-0.1151-0.3939-0.02177-0.619 0.5957-1.031-1.136 0-1.225-2.619-1.225-2.619zm-21.71 2.871c0 1.767-2.889 2.518-2.889 2.518h5.871c2e-6 0-2.982-0.7433-2.982-2.518zm43.42 0c0 1.774-2.982 2.518-2.982 2.518h5.871s-2.889-0.7505-2.889-2.518z" fill="#ec3141"/><path transform="scale(.2646)" d="m7.355 31.57c-1e-7 0 2.889 0.7505 2.889 2.518 0-1.774 2.982-2.518 2.982-2.518h-5.871zm43.32 0s2.982 0.7433 2.982 2.518c0-1.767 2.889-2.518 2.889-2.518h-5.871zm-18.73 0.01758-0.003907 0.003907h-5.363s2.619 0.08819 2.619 1.225c0.4123-0.6175 0.9909-0.7633 1.311-0.5059 0.2434 0.1961 0.1316 0.5064 0.01367 0.8008 0.2576-0.1189 0.6454-0.3144 0.7949 0.1973 0.1151 0.3939 0.02178 0.619-0.5957 1.031 1.136 0 1.225 2.619 1.225 2.619v-5.363l0.003906-0.003906h-0.003906v-0.003907zm0.009765 0v0.003907h-0.003906l0.003906 0.003906v5.363s0.0882-2.619 1.225-2.619c-0.6175-0.4123-0.7108-0.6373-0.5957-1.031 0.1495-0.5117 0.5373-0.3162 0.7949-0.1973-0.1179-0.2944-0.2298-0.6047 0.01367-0.8008 0.3196-0.2574 0.8983-0.1116 1.311 0.5059 0-1.136 2.619-1.225 2.619-1.225h-5.363l-0.003907-0.003907zm-11.63 1.414c-0.5234-0.009966-1.043 0.0293-1.531 0.1074-1.91 0.3056-3.539 1.273-4.242 3.137-0.3689 0.9778-0.1208 2.637 0.1562 3.314 0.6597 1.614 2.81 2.248 3.584 0.502 0 0-1.317 0.2238-1.764-0.7695-0.3111-0.6922-0.7409-2.324 0.793-3.203 1.652-0.9469 3.262-0.7898 3.939 0.4805 0.625 1.172 0.8806 3.369-0.7266 4.977-1.607 1.607-3.391 2.769-5.713 2.367-2.321-0.4018-4.242-2.054-4.777-3.215-0.5357-1.161-1.92-5.376-3.598-6.508-1.868-1.26-1.61 0.7321-2.678 0.5391-0.5724-0.1034-0.8379-1.41-0.8379-1.41-0.807 0.664-0.3224 2.062 0.1484 2.289 1.485 0.7152 1.836-0.7046 2.635 0.3574 0.3437 0.4568 0.6242 2.098 0.4902 2.455-0.1339 0.3571-0.6932 0.3719-1.34-1.07-0.2679 0.3571 0.1342 2.25 1.127 2.928 1.216 0.8302 1.315 0.3515 2.088 1.447 0.4157 0.5894 1.28 1.539 0.2695 1.936-0.5836 0.2289-0.9891 0.1226-2.174-0.4199 2.367 2.551 3.371 0.98 4.584 1.832 0.6794 0.4775 0.5804 1.34-0.625 1.385-1.205 0.04464-2.637 0.7972-3.473 1.928 1.042-0.08481 1.526-0.2419 1.973 0.1152 0.4464 0.3571-0.4512 2.005-1.479 2.102 0.2783 0.3686 0.1777 1.943-0.9023 2.432-0.0383 1.688-0.4531 2.332-0.4531 2.332 1.027-0.8036 3.734-2.369 3.932-3.73 0.2762-1.907 1.715-2.174 2.607-2.799 1.377-0.9637 1.367-2.959 3.463-2.959 0.5752-0.03379 1.395 0.05861 2.107-0.3672-0.2516 0.738-0.3263 1.422-0.248 2.225 0 2.096-1.997 2.086-2.961 3.463-0.625 0.8929-0.8923 2.331-2.799 2.607-1.361 0.1972-2.925 2.905-3.729 3.932-1.5e-6 0 0.6417-0.4148 2.33-0.4531 0.4888-1.08 2.063-1.181 2.432-0.9023 0.09615-1.027 1.744-1.925 2.102-1.479 0.3571 0.4464 0.202 0.9305 0.1172 1.973 1.131-0.8361 1.883-2.265 1.928-3.471 0.04464-1.205 0.9054-1.304 1.383-0.625 0.8521 1.213-0.719 2.215 1.832 4.582-0.5425-1.185-0.6488-1.59-0.4199-2.174 0.3963-1.011 1.346-0.1462 1.936 0.2695 1.096 0.7729 0.6171 0.8717 1.447 2.088 0.6777 0.9928 2.571 1.395 2.928 1.127-1.442-0.6467-1.427-1.206-1.07-1.34 0.3571-0.1339 1.998 0.1484 2.455 0.4922 1.062 0.7991-0.3578 1.147 0.3574 2.633 0.1417 0.2942 0.7419 0.5933 1.334 0.5801 0.3553-0.008054 0.7061-0.129 0.9551-0.4316 0 0-1.307-0.2655-1.41-0.8379-0.193-1.068 1.801-0.8082 0.541-2.676-1.132-1.678-5.349-3.064-6.51-3.6s-2.813-2.454-3.215-4.775c-0.4018-2.321 0.76-4.108 2.367-5.715 1.607-1.607 3.805-1.35 4.977-0.7246 1.27 0.6775 1.427 2.288 0.4805 3.939-0.8794 1.534-2.511 1.102-3.203 0.791-0.9933-0.4464-0.7695-1.762-0.7695-1.762-1.746 0.7743-1.112 2.922 0.502 3.582 0.6778 0.277 2.337 0.5251 3.314 0.1562 1.864-0.7031 2.831-2.332 3.137-4.242 0.3125-1.953 0.006488-4.392-1.607-5.668-1.491-1.179-3.756-0.5584-3.818-0.541 0.01748-0.0627 0.6402-2.327-0.5391-3.818-0.9571-1.21-2.568-1.685-4.139-1.715zm23.25 0c-1.57 0.0299-3.182 0.5045-4.139 1.715-1.179 1.491-0.5565 3.756-0.5391 3.818-0.0627-0.01739-2.327-0.6382-3.818 0.541-1.614 1.276-1.92 3.715-1.607 5.668 0.3056 1.91 1.273 3.539 3.137 4.242 0.9778 0.3689 2.637 0.1208 3.314-0.1562 1.614-0.6597 2.248-2.808 0.502-3.582 0 0 0.2238 1.315-0.7695 1.762-0.6922 0.3111-2.324 0.7428-3.203-0.791-0.9469-1.652-0.7898-3.262 0.4805-3.939 1.172-0.625 3.369-0.8825 4.977 0.7246 1.607 1.607 2.769 3.393 2.367 5.715-0.4018 2.321-2.054 4.24-3.215 4.775-1.161 0.5357-5.378 1.922-6.51 3.6-1.26 1.868 0.734 1.608 0.541 2.676-0.1034 0.5724-1.41 0.8379-1.41 0.8379 0.249 0.3026 0.5998 0.4236 0.9551 0.4316 0.5921 0.01323 1.192-0.2858 1.334-0.5801 0.7152-1.485-0.7046-1.834 0.3574-2.633 0.4568-0.3437 2.098-0.6261 2.455-0.4922 0.3571 0.1339 0.3719 0.6932-1.07 1.34 0.3571 0.2679 2.25-0.1342 2.928-1.127 0.8302-1.216 0.3515-1.315 1.447-2.088 0.5894-0.4157 1.539-1.28 1.936-0.2695 0.2289 0.5836 0.1226 0.9891-0.4199 2.174 2.551-2.367 0.98-3.37 1.832-4.582 0.4775-0.6794 1.338-0.5804 1.383 0.625 0.04464 1.205 0.7972 2.635 1.928 3.471-0.08481-1.042-0.24-1.526 0.1172-1.973 0.3571-0.4464 2.005 0.4512 2.102 1.479 0.3686-0.2783 1.943-0.1777 2.432 0.9023 1.688 0.03829 2.33 0.4531 2.33 0.4531-0.8036-1.027-2.367-3.734-3.729-3.932-1.907-0.2762-2.174-1.715-2.799-2.607-0.9637-1.377-2.961-1.367-2.961-3.463 0.07824-0.8025 0.003537-1.487-0.248-2.225 0.7119 0.4258 1.532 0.3334 2.107 0.3672 2.096 0 2.086 1.995 3.463 2.959 0.8929 0.625 2.331 0.8923 2.607 2.799 0.1972 1.361 2.905 2.927 3.932 3.73 0 0-0.4148-0.6436-0.4531-2.332-1.08-0.4888-1.181-2.063-0.9023-2.432-1.027-0.09615-1.925-1.744-1.479-2.102 0.4464-0.3571 0.9305-0.2 1.973-0.1152-0.8361-1.131-2.267-1.883-3.473-1.928-1.205-0.04464-1.304-0.9073-0.625-1.385 1.213-0.8521 2.217 0.719 4.584-1.832-1.185 0.5425-1.59 0.6488-2.174 0.4199-1.011-0.3963-0.1462-1.346 0.2695-1.936 0.7729-1.096 0.8717-0.6171 2.088-1.447 0.9928-0.6777 1.395-2.571 1.127-2.928-0.6467 1.442-1.206 1.427-1.34 1.07-0.1339-0.3571 0.1465-1.998 0.4902-2.455 0.7991-1.062 1.149 0.3578 2.635-0.3574 0.4708-0.2267 0.9555-1.625 0.1484-2.289 0 0-0.2655 1.307-0.8379 1.41-1.068 0.193-0.8101-1.799-2.678-0.5391-1.678 1.132-3.062 5.347-3.598 6.508-0.5357 1.161-2.456 2.813-4.777 3.215-2.321 0.4018-4.106-0.7601-5.713-2.367-1.607-1.607-1.352-3.805-0.7266-4.977 0.6775-1.27 2.288-1.427 3.939-0.4805 1.534 0.8794 1.104 2.511 0.793 3.203-0.4464 0.9933-1.764 0.7695-1.764 0.7695 0.7743 1.746 2.924 1.112 3.584-0.502 0.277-0.6778 0.5251-2.337 0.1562-3.314-0.7031-1.864-2.332-2.831-4.242-3.137-0.4883-0.07812-1.008-0.1174-1.531-0.1074zm-11.64 17.31v0.1191c-0.09016 0.334-0.8214 2.865-2.482 2.865 1.654 0 2.391 2.448 2.482 2.771v0.1152s0.01792-0.05266 0.01953-0.05859c0.001576 0.00582 0.01758 0.05859 0.01758 0.05859v-0.1152c0.091-0.3232 0.8282-2.771 2.482-2.771-1.659 0-2.391-2.525-2.482-2.863v-0.1211s-0.01794 0.05443-0.01953 0.06055c-0.001564-0.006023-0.01758-0.06055-0.01758-0.06055z" fill="#ec3141"/></g></svg>
