<?xml version="1.0" encoding="UTF-8"?>
<svg width=".6667in" height=".6667in" version="1.1" viewBox="0 0 16.93 16.93" xmlns="http://www.w3.org/2000/svg"><g><rect y="-3.459e-7" width="16.93" height="16.93" fill="#fff"/><g fill="#33bfc4"><path d="m0.02936 5.068h4.61s3.374 3.191 3.191 3.191h-4.928z"/><path d="m8.318 7.745-3.372-3.26s-0.1299-4.642 0-4.512l3.372 3.484z"/><path d="m-0.1043 2.378 2.414-2.414h-2.547z"/><path d="m17.03 5.068h-4.61s-3.374 3.191-3.191 3.191h4.928z"/><path d="m8.739 7.745 3.372-3.26s0.1299-4.642 0-4.512l-3.372 3.484z"/><path d="m17.16 2.378-2.414-2.414h2.547z"/><path d="m0.02936 11.85h4.61s3.374-3.191 3.191-3.191h-4.928z"/><path d="m8.318 9.171-3.372 3.26s-0.1299 4.642 0 4.512l3.372-3.484z"/><path d="m-0.1043 14.54 2.414 2.414h-2.547z"/><path d="m17.03 11.85h-4.61s-3.374-3.191-3.191-3.191h4.928z"/><path d="m8.739 9.171 3.372 3.26s0.1299 4.642 0 4.512l-3.372-3.484z"/><path d="m17.16 14.54-2.414 2.414h2.547z"/></g></g></svg>
